<?xml version="1.0" encoding="utf-8"?><svg xmlns="http://www.w3.org/2000/svg" xmlns:xlink="http://www.w3.org/1999/xlink"><symbol viewBox="-2 169.4 503 503" id="adv-alcove"><path fill="#FFDA21" d="M157.8 606.8C108.9 578.5.2 595.2.2 443.7c0-140.4 107.3-85.9 181.6-183.6 70.6-92.8 153.4-81.2 176.8-46.5s63.9 119.8 88.6 145.2c24.7 25.3 44.9 87.5 7.3 113.4-46 31.8-57.3 89-86.7 131.2s-90 72.7-210 3.4z"/><path d="M484.8 438c-2 0-3.9-.7-5.3-2.1L263.2 226.2 45.5 436c-2.7 2.6-7.3 2.8-10.2.3-2.9-2.4-3.1-6.6-.3-9.2l223-214.8c1.4-1.3 3.3-2.1 5.3-2.1s3.9.8 5.3 2.1l221.6 214.8c2.7 2.6 2.5 6.7-.3 9.2-1.5 1.1-3.3 1.7-5.1 1.7zm0-22c-2 0-3.9-.7-5.3-2.1L352.3 290.6c-2.7-2.6-2.5-6.7.3-9.2 2.9-2.4 7.5-2.3 10.2.3L490.1 405c2.7 2.6 2.5 6.7-.3 9.2-1.4 1.1-3.2 1.8-5 1.8z"/><path d="M40.2 416c-1.8 0-3.6-.6-4.9-1.8-2.9-2.4-3.1-6.6-.3-9.2l223-214.8c1.4-1.3 3.3-2.1 5.3-2.1s3.9.8 5.3 2.1l75.3 73c2.7 2.6 2.5 6.7-.3 9.2-2.9 2.4-7.5 2.3-10.2-.3l-70.1-67.9L45.5 413.9c-1.4 1.4-3.4 2.1-5.3 2.1z"/><path d="M334.9 292.6H191.2c-4 0-7.2-2.9-7.2-6.5s3.2-6.5 7.2-6.5h143.7c4 0 7.2 2.9 7.2 6.5s-3.2 6.5-7.2 6.5zM98.6 646.4c-4 0-7.1-2.9-7.1-6.4V377.9c0-3.6 3.2-6.4 7.1-6.4 3.9 0 7.1 2.9 7.1 6.4v262c.1 3.6-3.1 6.5-7.1 6.5z"/><path d="M315.3 652H77.5c-4 0-7.2-2.9-7.2-6.5s3.2-6.5 7.2-6.5h237.8c4 0 7.2 2.9 7.2 6.5s-3.2 6.5-7.2 6.5zm124.2 0h-92.3c-4 0-7.2-2.9-7.2-6.5s3.2-6.5 7.2-6.5h92.3c4 0 7.2 2.9 7.2 6.5s-3.2 6.5-7.2 6.5z"/><path d="M426.8 646.4c-4 0-7.1-2.9-7.1-6.4V377.9c0-3.6 3.2-6.4 7.1-6.4s7.1 2.9 7.1 6.4v262c.1 3.6-3.2 6.5-7.1 6.5z"/><path d="M359 649.7c-.9 0-2-.2-2.9-.5-3.6-1.5-5.3-5.3-3.7-8.6l110.3-226.8c1.6-3.3 5.9-4.8 9.5-3.4 3.6 1.5 5.3 5.3 3.7 8.6L365.6 645.8c-1.2 2.4-3.9 3.9-6.6 3.9zm-190.7 0c-2.8 0-5.4-1.5-6.6-3.9L51.3 417.1c-1.6-3.3.1-7.1 3.7-8.6s7.9.1 9.5 3.4l110.4 228.7c1.6 3.3-.1 7.1-3.7 8.6-1 .3-2 .5-2.9.5zm161.8-130.1H196.4c-4 0-7.2-2.9-7.2-6.5s3.2-6.5 7.2-6.5h133.7c4 0 7.2 2.9 7.2 6.5s-3.2 6.5-7.2 6.5zm-66.8 130.1c-4 0-7.2-2.9-7.2-6.5V528.9c0-3.6 3.2-6.5 7.2-6.5s7.2 2.9 7.2 6.5v114.3c0 3.6-3.2 6.5-7.2 6.5z"/><path d="M426.8 573.4h-77.7c-4 0-7.2-2.9-7.2-6.5s3.2-6.5 7.2-6.5h77.7c4 0 7.2 2.9 7.2 6.5s-3.2 6.5-7.2 6.5zm-17.4 14.1h-47.7c-3.4 0-6.2-2.5-6.2-5.6 0-3.1 2.8-5.6 6.2-5.6h47.7c3.4 0 6.2 2.5 6.2 5.6 0 3.1-2.8 5.6-6.2 5.6zm-232-13.9H98.6c-4 0-7.2-2.9-7.2-6.5s3.2-6.5 7.2-6.5h78.8c4 0 7.2 2.9 7.2 6.5s-3.2 6.5-7.2 6.5zm-9.1 14.7h-52.4c-3.5 0-6.3-2.5-6.3-5.7 0-3.1 2.8-5.7 6.3-5.7h52.4c3.5 0 6.3 2.5 6.3 5.7s-2.8 5.7-6.3 5.7z"/></symbol><symbol viewBox="-36.5 169.4 503 503" id="adv-children"><path fill="#FFDA21" d="M127.8 606.8C78.9 578.5-29.8 595.2-29.8 443.7c0-140.4 107.3-85.9 181.6-183.6 70.6-92.8 153.4-81.2 176.8-46.5s63.9 119.8 88.6 145.2c24.7 25.3 44.9 87.5 7.3 113.4-46 31.8-57.3 89-86.7 131.2s-90 72.7-210 3.4z"/><path d="M458.3 469.6h-50c-16.8-33.3-41.5-61.7-72.1-82.6l1-3.5c1-3.5 1.5-7.2 1.5-10.8 0-14.4-8-27.6-20.1-34.3l26.5-93.4c1.3-4.4-1.2-9-5.6-10.3-4.3-1.3-8.9 1.3-10.1 5.7L303 333.7c-7.3-.5-14.5 1.1-21.1 4.8-7 3.9-12.4 9.8-15.9 16.9-16.7-4.1-33.8-6.1-51.1-6.1-26.5 0-52.4 4.8-77 14.3-4.2 1.6-6.3 6.4-4.7 10.7 1.2 3.3 4.3 5.4 7.6 5.4 1 0 1.9-.2 2.9-.5 22.7-8.8 46.7-13.2 71.2-13.2 15.5 0 30.9 1.8 45.9 5.4l-9.7 34.2c-4.5 3.4-8.4 7.6-11.6 12.4-2.5 3.8-1.6 9 2.2 11.5 3.7 2.6 8.8 1.6 11.3-2.2 2.6-3.9 5.8-7.1 9.7-9.7 5.5-3.7 12-5.7 18.7-5.7 11.8 0 22.6 6.1 28.9 16.2 3.5 5.6 5.3 12 5.3 18.6 0 4.6 3.7 8.3 8.2 8.3 4.5 0 8.2-3.7 8.2-8.3 0-8.5-2-16.8-5.9-24.2l5.3-18.7c24 17.4 43.9 39.8 58.3 65.8H105l6-71.1h7.4c4.5 0 8.2-3.7 8.2-8.3v-26.7c0-4.6-3.7-8.3-8.2-8.3H114v-5.7c0-29.3-23.5-53.2-52.3-53.2S9.4 320 9.4 349.4v5.7H4.9c-4.5 0-8.2 3.7-8.2 8.3v26.7c0 4.6 3.7 8.3 8.2 8.3h7.4l6 71.1h-46.7c-4.5 0-8.2 3.7-8.2 8.3v32.6c0 4.6 3.7 8.3 8.2 8.3h21.6V599c0 4.6 3.7 8.3 8.2 8.3h427.2c4.5 0 8.2-3.7 8.2-8.3v-60.9c0-4.6-3.7-8.3-8.2-8.3-4.5 0-8.2 3.7-8.2 8.3v52.6H9.6v-72h40.5c4.5 0 8.2-3.7 8.2-8.3 0-4.6-3.7-8.3-8.2-8.3h-70.3v-16h470.3v16H77.3c-4.5 0-8.2 3.7-8.2 8.3 0 4.6 3.7 8.3 8.2 8.3h381c4.5 0 8.2-3.7 8.2-8.3v-32.6c0-4.5-3.7-8.2-8.2-8.2zm-136.7-90.8l-8 28c-8.9-7.5-20.1-11.6-32.1-11.6-3.6 0-7.2.4-10.7 1.2l8.5-30c1.6-5.7 5.4-10.5 10.5-13.4 5.1-2.9 11.1-3.6 16.7-1.9 9.4 2.7 15.9 11.6 15.9 21.5 0 2.1-.3 4.2-.8 6.2zM25.8 349.4c0-20.2 16.1-36.6 35.9-36.6s35.9 16.4 35.9 36.6v5.7H25.8v-5.7zm62.8 120.2H34.8l-6-71.1h66l-6.2 71.1zm-68.8-87.8h-6.7v-10.1h97.2v10.1H19.8z"/><path d="M155.9 430.6c-6-4.1-14.1 1.6-12.5 8.7.7 3.2 3.3 5.7 6.5 6.4 3.5.7 7.1-1.1 8.7-4.3 1.9-3.7.8-8.5-2.7-10.8zm-18.8-7.3c-1.7-3-5.2-4.5-8.5-3.9-3.8.7-6.7 4.2-6.7 8.2 0 7.6 9.6 11.2 14.4 5.4 2.2-2.8 2.5-6.7.8-9.7zm17.6-20.4c-3.1-2.1-7.3-1.8-10 .8-2.6 2.4-3.4 6.4-1.9 9.6 1.4 3.2 4.8 5.1 8.2 4.8 3.3-.3 6.1-2.7 7-5.9 1-3.4-.3-7.4-3.3-9.3zm115.6 38.2c-3.1 2.7-3.8 7.5-1.5 11 4.1 6.1 13.6 4.1 14.8-3.2 1.3-7.5-7.6-12.6-13.3-7.8zm-27.7 8.3c-2.7 2.8-3.1 7.2-1 10.5 2 3 5.7 4.4 9.1 3.4 3.2-1 5.6-3.9 5.8-7.4.6-7.5-8.7-11.9-13.9-6.5z"/></symbol><symbol viewBox="-36.5 169.4 503 503" id="adv-sea"><path fill="#FFDA21" d="M127.3 606.3C78.4 578-30.3 594.7-30.3 443.2c0-140.4 107.3-85.9 181.6-183.6 70.6-92.8 153.4-81.2 176.8-46.5s63.9 119.8 88.6 145.2c24.7 25.3 44.9 87.5 7.3 113.4-46 31.8-57.3 89-86.7 131.2s-90 72.7-210 3.4z"/><path d="M331.5 205.7c9.3 0 16.9 7.6 16.9 16.9 0 4 3.2 7.3 7.3 7.3s7.3-3.2 7.3-7.3c0-9.3 7.6-16.9 16.9-16.9 4 0 7.3-3.2 7.3-7.3 0-4-3.2-7.3-7.3-7.3-9.7 0-18.4 4.4-24.2 11.4-5.8-6.9-14.5-11.4-24.2-11.4-4 0-7.3 3.2-7.3 7.3 0 4 3.3 7.3 7.3 7.3zm-299.8 87c4 0 7.3-3.2 7.3-7.3 0-4-3.2-7.3-7.3-7.3-6.7 0-12.1-5.4-12.1-12.1 0-6.7 5.4-12.1 12.1-12.1h38.7c4 0 7.3-3.2 7.3-7.3 0-4-3.2-7.3-7.3-7.3H31.7c-14.7 0-26.6 11.9-26.6 26.6 0 14.9 11.9 26.8 26.6 26.8zm246.6 169.2c1 .5 2.1.7 3.2.7 2.7 0 5.3-1.5 6.5-4.1 8-16.3 12.1-33.9 12.1-52.2 0-18.1-4-35.5-11.8-51.7-1.7-3.6-6.1-5.1-9.7-3.4-3.6 1.7-5.1 6.1-3.4 9.7 6.9 14.2 10.4 29.4 10.4 45.3 0 16.1-3.6 31.5-10.6 45.8-1.8 3.8-.3 8.1 3.3 9.9zm31.4 113.7c0-4-3.2-7.3-7.3-7.3H109c-4 0-7.3 3.2-7.3 7.3 0 4 3.2 7.3 7.3 7.3h193.4c4.1 0 7.3-3.2 7.3-7.3zm67.7-261.1c0 4 3.2 7.3 7.3 7.3h53.2c6.7 0 12.1 5.4 12.1 12.1 0 6.7-5.4 12.1-12.1 12.1H331.5c-6.7 0-12.1-5.4-12.1-12.1 0-4-3.2-7.3-7.3-7.3h-38.7c-6.7 0-12.1-5.4-12.1-12.1 0-6.7 5.4-12.1 12.1-12.1h67.7c6.7 0 12.1 5.4 12.1 12.1 0 4 3.2 7.3 7.3 7.3s7.3-3.2 7.3-7.3c0-14.7-11.9-26.6-26.6-26.6h-67.7c-14.7 0-26.6 11.9-26.6 26.6s11.9 26.6 26.6 26.6h32.4c3.2 11.2 13.4 19.3 25.6 19.3h106.4c14.7 0 26.6-11.9 26.6-26.6 0-14.7-11.9-26.6-26.6-26.6h-53.2c-4 0-7.3 3.3-7.3 7.3z"/><path d="M399.2 413.6h-27.4c-4.8 0-9.5.7-13.9 2 .2-3.1.2-6.2.2-9.2 0-8.4-.6-16.9-1.8-25.2-.6-4-4.3-6.7-8.2-6.2-4 .6-6.7 4.2-6.2 8.2 1.1 7.6 1.6 15.4 1.6 23.2 0 5.5-.3 11.1-.8 16.6-8.3 6-14.7 14.5-18.1 24.7-4.8 14.4-18.2 24.1-33.4 24.1h-64.6c-21.4 0-40.4 13.7-47.1 34l-8 24.1h-95c-36.2-30.9-57-75.7-57-123.3 0-89.3 72.7-162 162-162 35.4 0 69 11.2 97.2 32.4 3.2 2.4 7.8 1.8 10.2-1.4 2.4-3.2 1.8-7.8-1.4-10.2-30.7-23.1-67.4-35.3-105.9-35.3C84.2 229.9 5.1 309 5.1 406.4c0 46.5 18.1 90.5 50.2 123.3h-43c-4 0-7.3 3.2-7.3 7.3 0 4 3.2 7.3 7.3 7.3h366.6c4 0 7.3-3.2 7.3-7.3 0-4-3.2-7.3-7.3-7.3H186.8l6.5-19.5c4.8-14.4 18.2-24.1 33.4-24.1h64.6c7.3 0 14.4-1.6 20.7-4.5-4.9 8.3-10.6 16.2-17 23.5-2.6 3-2.3 7.6.7 10.2 3 2.6 7.6 2.3 10.2-.7C324 494 337 469 343.5 442.3c6.5-8.8 16.9-14.2 28.2-14.2h27.4c28 0 50.8 22.8 50.8 50.8v50.8h-44c-4 0-7.3 3.2-7.3 7.3 0 4 3.2 7.3 7.3 7.3h51.3c4 0 7.3-3.2 7.3-7.3v-58c0-36.1-29.3-65.4-65.3-65.4zM171.9 602.2h-19.3c-4 0-7.3 3.2-7.3 7.3 0 4 3.2 7.3 7.3 7.3h19.3c4 0 7.3-3.2 7.3-7.3s-3.3-7.3-7.3-7.3zm188.6-33.8h-19.3c-4 0-7.3 3.2-7.3 7.3 0 4 3.2 7.3 7.3 7.3h19.3c4 0 7.3-3.2 7.3-7.3s-3.3-7.3-7.3-7.3z"/><path d="M181.6 302.4c15.6 0 30.6 3.4 44.5 10 3.6 1.7 7.9.2 9.7-3.4 1.7-3.6.2-7.9-3.4-9.7-15.9-7.6-33-11.4-50.8-11.4-65.3 0-118.5 53.2-118.5 118.5 0 54.5 36.8 101.7 89.6 114.9.6.1 1.2.2 1.8.2 3.2 0 6.2-2.2 7-5.5 1-3.9-1.4-7.8-5.3-8.8-46.3-11.6-78.6-53.1-78.6-100.9 0-57.3 46.6-103.9 104-103.9zm82.2 333.7h-58c-4 0-7.3 3.2-7.3 7.3 0 4 3.2 7.3 7.3 7.3h58c4 0 7.3-3.2 7.3-7.3s-3.3-7.3-7.3-7.3zm53.2-33.9H200.9c-4 0-7.3 3.2-7.3 7.3 0 4 3.2 7.3 7.3 7.3H317c4 0 7.3-3.2 7.3-7.3-.1-4-3.3-7.3-7.3-7.3z"/></symbol><symbol viewBox="-36.5 169.4 503 503" id="adv-shower"><path fill="#FFDA21" d="M126.9 606.6C78 578.3-30.7 595-30.7 443.5c0-140.4 107.3-85.9 181.6-183.6 70.6-92.8 153.4-81.2 176.8-46.5 23.4 34.7 63.9 119.8 88.6 145.2 24.7 25.3 44.9 87.5 7.3 113.4-46 31.8-57.3 89-86.7 131.2s-90 72.7-210 3.4z"/><path d="M397.4 355.7h-17.3l-16.5-41.1c-7.7-19.3-26.2-31.8-47-31.8h-58.4v-36.9c0-3.8-3.1-6.8-6.8-6.8h-7.8v-44.2c0-3.8-3.1-6.8-6.8-6.8s-6.8 3.1-6.8 6.8V239h-30v-44.2c0-3.8-3.1-6.8-6.8-6.8s-6.8 3.1-6.8 6.8V239h-7.8c-3.8 0-6.8 3.1-6.8 6.8v36.9h-58.4c-20.8 0-39.3 12.5-47 31.8l-16.5 41.1H32.6c-3.8 0-6.8 3.1-6.8 6.8v43.8c0 3.8 3.1 6.8 6.8 6.8h364.8c3.8 0 6.8-3.1 6.8-6.8v-43.8c0-3.7-3-6.7-6.8-6.7zm-212-103.1h59.3v30.1h-59.3v-30.1zm205.1 146.9h-351v-30.1h277.7c3.8 0 6.8-3.1 6.8-6.8 0-3.8-3.1-6.8-6.8-6.8H64.6L79 319.6c5.6-14.1 19.1-23.2 34.3-23.2h203.4c15.2 0 28.7 9.1 34.3 23.2l14.4 36.1H339c-3.8 0-6.8 3.1-6.8 6.8 0 3.8 3.1 6.8 6.8 6.8h51.5v30.2zM215 435.9c-11.8 0-21.4 9.6-21.4 21.4s9.6 21.4 21.4 21.4 21.4-9.6 21.4-21.4-9.6-21.4-21.4-21.4zm0 29.2c-4.3 0-7.8-3.5-7.8-7.8s3.5-7.8 7.8-7.8 7.8 3.5 7.8 7.8-3.5 7.8-7.8 7.8zm73-29.2c-11.8 0-21.4 9.6-21.4 21.4s9.6 21.4 21.4 21.4 21.4-9.6 21.4-21.4-9.6-21.4-21.4-21.4zm0 29.2c-4.3 0-7.8-3.5-7.8-7.8s3.5-7.8 7.8-7.8 7.8 3.5 7.8 7.8c-.1 4.3-3.6 7.8-7.8 7.8zm72.9-29.2c-11.8 0-21.4 9.6-21.4 21.4s9.6 21.4 21.4 21.4 21.4-9.6 21.4-21.4c0-11.7-9.6-21.4-21.4-21.4zm0 29.2c-4.3 0-7.8-3.5-7.8-7.8s3.5-7.8 7.8-7.8 7.8 3.5 7.8 7.8-3.5 7.8-7.8 7.8zM69.1 435.9c-11.8 0-21.4 9.6-21.4 21.4s9.6 21.4 21.4 21.4 21.4-9.6 21.4-21.4c0-11.7-9.6-21.4-21.4-21.4zm0 29.2c-4.3 0-7.8-3.5-7.8-7.8s3.5-7.8 7.8-7.8 7.8 3.5 7.8 7.8c-.1 4.3-3.5 7.8-7.8 7.8zm72.9-29.2c-11.8 0-21.4 9.6-21.4 21.4s9.6 21.4 21.4 21.4 21.4-9.6 21.4-21.4-9.5-21.4-21.4-21.4zm0 29.2c-4.3 0-7.8-3.5-7.8-7.8s3.5-7.8 7.8-7.8 7.8 3.5 7.8 7.8-3.5 7.8-7.8 7.8zm73 29.2c-11.8 0-21.4 9.6-21.4 21.4 0 11.8 9.6 21.4 21.4 21.4s21.4-9.6 21.4-21.4c0-11.8-9.6-21.4-21.4-21.4zm0 29.2c-4.3 0-7.8-3.5-7.8-7.8s3.5-7.8 7.8-7.8 7.8 3.5 7.8 7.8-3.5 7.8-7.8 7.8zm80.3-29.2c-11.8 0-21.4 9.6-21.4 21.4 0 11.8 9.6 21.4 21.4 21.4s21.4-9.6 21.4-21.4c0-11.8-9.6-21.4-21.4-21.4zm0 29.2c-4.3 0-7.8-3.5-7.8-7.8s3.5-7.8 7.8-7.8 7.8 3.5 7.8 7.8c-.1 4.3-3.6 7.8-7.8 7.8zm80.2-29.2c-11.8 0-21.4 9.6-21.4 21.4 0 11.8 9.6 21.4 21.4 21.4s21.4-9.6 21.4-21.4c0-11.8-9.6-21.4-21.4-21.4zm0 29.2c-4.3 0-7.8-3.5-7.8-7.8s3.5-7.8 7.8-7.8 7.8 3.5 7.8 7.8-3.5 7.8-7.8 7.8zm-321-29.2c-11.8 0-21.4 9.6-21.4 21.4 0 11.8 9.6 21.4 21.4 21.4s21.4-9.6 21.4-21.4c0-11.8-9.6-21.4-21.4-21.4zm0 29.2c-4.3 0-7.8-3.5-7.8-7.8s3.5-7.8 7.8-7.8 7.8 3.5 7.8 7.8-3.5 7.8-7.8 7.8zm80.2-29.2c-11.8 0-21.4 9.6-21.4 21.4 0 11.8 9.6 21.4 21.4 21.4s21.4-9.6 21.4-21.4c.1-11.8-9.5-21.4-21.4-21.4zm0 29.2c-4.3 0-7.8-3.5-7.8-7.8s3.5-7.8 7.8-7.8 7.8 3.5 7.8 7.8-3.5 7.8-7.8 7.8zm80.3 29.2c-11.8 0-21.4 9.6-21.4 21.4 0 11.8 9.6 21.4 21.4 21.4s21.4-9.6 21.4-21.4c0-11.8-9.6-21.4-21.4-21.4zm0 29.1c-4.3 0-7.8-3.5-7.8-7.8s3.5-7.8 7.8-7.8 7.8 3.5 7.8 7.8c0 4.4-3.5 7.8-7.8 7.8zm87.5-29.1c-11.8 0-21.4 9.6-21.4 21.4 0 11.8 9.6 21.4 21.4 21.4s21.4-9.6 21.4-21.4c.1-11.8-9.5-21.4-21.4-21.4zm0 29.1c-4.3 0-7.8-3.5-7.8-7.8s3.5-7.8 7.8-7.8 7.8 3.5 7.8 7.8c0 4.4-3.5 7.8-7.8 7.8zm87.6-29.1c-11.8 0-21.4 9.6-21.4 21.4 0 11.8 9.6 21.4 21.4 21.4s21.4-9.6 21.4-21.4c0-11.8-9.6-21.4-21.4-21.4zm0 29.1c-4.3 0-7.8-3.5-7.8-7.8s3.5-7.8 7.8-7.8 7.8 3.5 7.8 7.8c-.1 4.4-3.5 7.8-7.8 7.8zM39.9 552.7c-11.8 0-21.4 9.6-21.4 21.4 0 11.8 9.6 21.4 21.4 21.4s21.4-9.6 21.4-21.4c0-11.8-9.6-21.4-21.4-21.4zm0 29.1c-4.3 0-7.8-3.5-7.8-7.8s3.5-7.8 7.8-7.8 7.8 3.5 7.8 7.8c0 4.4-3.5 7.8-7.8 7.8zm87.6-29.1c-11.8 0-21.4 9.6-21.4 21.4 0 11.8 9.6 21.4 21.4 21.4s21.4-9.6 21.4-21.4c0-11.8-9.6-21.4-21.4-21.4zm0 29.1c-4.3 0-7.8-3.5-7.8-7.8s3.5-7.8 7.8-7.8 7.8 3.5 7.8 7.8c-.1 4.4-3.6 7.8-7.8 7.8zM215 611c-11.8 0-21.4 9.6-21.4 21.4 0 11.8 9.6 21.4 21.4 21.4s21.4-9.6 21.4-21.4c0-11.8-9.6-21.4-21.4-21.4zm0 29.2c-4.3 0-7.8-3.5-7.8-7.8s3.5-7.8 7.8-7.8 7.8 3.5 7.8 7.8-3.5 7.8-7.8 7.8zM404.7 611c-11.8 0-21.4 9.6-21.4 21.4 0 11.8 9.6 21.4 21.4 21.4s21.4-9.6 21.4-21.4c0-11.8-9.6-21.4-21.4-21.4zm0 29.2c-4.3 0-7.8-3.5-7.8-7.8s3.5-7.8 7.8-7.8 7.8 3.5 7.8 7.8c-.1 4.3-3.5 7.8-7.8 7.8zM25.3 611c-11.8 0-21.4 9.6-21.4 21.4 0 11.8 9.6 21.4 21.4 21.4s21.4-9.6 21.4-21.4c0-11.8-9.6-21.4-21.4-21.4zm0 29.2c-4.3 0-7.8-3.5-7.8-7.8s3.5-7.8 7.8-7.8 7.8 3.5 7.8 7.8-3.5 7.8-7.8 7.8z"/></symbol><symbol viewBox="-60.5 169.4 503 503" id="adv-sunbed"><path fill="#FFDA21" d="M102.4 606.1C53.5 577.8-55.2 594.5-55.2 443c0-140.4 107.3-85.9 181.6-183.6 70.6-92.8 153.4-81.2 176.8-46.5 23.4 34.7 63.9 119.8 88.6 145.2 24.7 25.3 44.9 87.5 7.3 113.4-46 31.8-57.3 89-86.7 131.2s-90 72.7-210 3.4z"/><path d="M433.1 443.4c-3.8-8.8-12.5-14.6-22.1-14.6-3.3 0-6.4.7-9.4 1.9l-151 64.7-261.8-290.6c-8.9-9.8-24.1-10.6-33.9-1.8-4.8 4.3-7.6 10.2-7.9 16.6-.3 6.4 1.8 12.6 6.1 17.3l21.9 24.4c2.3 60.2 16.5 120.8 40.3 170.9 25.7 54.3 61.8 95.1 105.2 119l-111 47.6C-2.6 604-8.3 618.2-3.1 630.3c3.8 8.8 12.5 14.5 22.1 14.5 3.3 0 6.4-.7 9.4-1.9l164.3-70.4c.3 0 .6.1.8.1 3.1.2 6.3.3 9.4.3 17.2 0 33.8-1.3 49.2-3.7l61 67.8c4.5 5 11 7.9 17.8 7.9 5.9 0 11.6-2.2 16-6.2 4.8-4.3 7.6-10.2 7.9-16.6.3-6.4-1.8-12.6-6.1-17.3L304 554.7c33.1-13.7 59.8-35.2 79.6-64.1l36.7-15.7c5.9-2.5 10.4-7.2 12.8-13.1s2.5-12.5 0-18.4zM-37 220.5c.1-2.1 1-4.1 2.6-5.5 3.3-3 8.3-2.7 11.3.6l258 286.7-15.5 6.7-80.4-89.5v-17.6c0-4.4-3.6-8-8-8s-7.9 3.5-8 7.9L-35 226.3c-1.4-1.7-2.1-3.7-2-5.8zM139.8 543c-.3-.1-.5-.2-.8-.4v-99.2l64.9 72.1-64.1 27.5zm-110-117.6c-20.2-42.8-33.3-93.6-37.6-145L123 425.6v108.5c-38.1-22.6-70-59.8-93.2-108.7zm202.6 130.1l5.4-2.3 1.4 1.6c-2.2.3-4.5.5-6.8.7zM339 621.3c-.1 2.1-1 4.1-2.6 5.5-1.5 1.3-3.4 2.1-5.3 2.1-2.3 0-4.4-.9-6-2.6l-71.7-79.7 15.9-6.8 67.7 75.8c1.4 1.5 2.1 3.6 2 5.7zm-46.2-79.2l-8-9 66.9-28.7c-16.3 16.3-36 29-58.9 37.7zm125.6-86.3c-.8 2-2.3 3.5-4.3 4.4l-392 168c-1 .4-2.1.7-3.1.7-3.2 0-6.1-1.9-7.4-4.9-1.7-4.1.1-8.8 4.2-10.5L123 567.6v2.3c0 4.4 3.6 8 8 8s8-3.6 8-8v-9.1l268.8-115.2c1-.4 2.1-.7 3.1-.7 3.2 0 6.1 1.9 7.4 4.9.9 1.9.9 4.1.1 6z"/><path d="M243 516.9c-2.1 0-4.2.8-5.7 2.3s-2.3 3.5-2.3 5.7c0 2.1.9 4.2 2.3 5.7 1.5 1.5 3.5 2.3 5.7 2.3 2.1 0 4.2-.9 5.7-2.3 1.5-1.5 2.3-3.6 2.3-5.7s-.9-4.2-2.3-5.7c-1.5-1.5-3.6-2.3-5.7-2.3z"/></symbol><symbol viewBox="-36.4 169.3 503 503" id="adv-swimming"><path fill="#FFDA21" d="M123.8 606.6C74.9 578.4-33.8 595-33.8 443.6c0-140.4 107.3-85.9 181.6-183.6 70.6-92.8 153.4-81.2 176.8-46.5s63.9 119.8 88.6 145.2c24.7 25.3 44.9 87.5 7.3 113.4-46 31.8-57.3 89-86.7 131.2s-90 72.7-210 3.3z"/><path d="M313.8 473.3c1.5 1.3 3.3 2 5.1 2 2.1 0 4.2-.9 5.7-2.6 98.4-109.9 129-228.8 130.2-233.8 3.3-12.6 7.6-35-.7-43.3-8.3-8.3-30.7-3.8-43.2-.5-1.4.3-136.9 35.1-250.8 145.9L126 307l5.4-5.4c9-9 9-23.5 0-32.5L99 236.7c-7.2-7.2-16.8-11.2-27.1-11.2-10.2 0-19.9 4-27.1 11.2-14.9 14.9-14.9 39.2 0 54.2l32.5 32.5c4.3 4.3 10.1 6.7 16.2 6.7s11.9-2.4 16.3-6.7l5.4-5.4 70.4 70.4 70.3 70.3c-35.6 33.1-84.6 56.2-102.8 38-14.1-14.1-3.3-52 25.3-88.1 2.6-3.3 2.1-8.1-1.3-10.8-3.3-2.6-8.1-2.1-10.8 1.3-35 44.3-44.7 87.9-24.1 108.4 7.1 7.1 17.1 10.5 28.9 10.5 26.7 0 62.7-17.6 95.6-48.5l20.2 20.2C176.6 597.4 59.6 631.1 57.8 631.6c-.2.1-18.5 6.6-31.1 2.3l62.1-62.1c3-3 3-7.8 0-10.8-3-3-7.8-3-10.8 0l-62 62c-3.4-10.5.2-25.2 2.5-31.6.3-1.1 30.5-107.2 126.5-212.7 2.8-3.1 2.6-8-.5-10.8-3.1-2.8-8-2.6-10.8.5C35.3 476.6 5 582.8 4 586.6c-.6 1.4-13.3 35.7 5.1 54.1 7.7 7.7 18.2 9.9 27.8 9.9 13.4 0 25.1-4.3 25.6-4.5 5-1.4 122-34.9 235.3-145.6l34 34-5.4 5.4c-9 9-9 23.5 0 32.5L359 605c7.2 7.2 16.8 11.2 27.1 11.2s19.8-4 27.1-11.2c7.2-7.2 11.2-16.9 11.2-27.1 0-10.2-4-19.9-11.2-27.1l-32.5-32.5c-8.7-8.7-23.8-8.7-32.5 0l-5.4 5.4L202 383c19.5-18.3 40.6-32.1 60.2-39.3 19.3-7 34.8-6.6 42.6 1.2 14 13.9 3.4 51.4-24.5 87.1-2.6 3.3-2 8.1 1.3 10.8 1.4 1.1 3.1 1.6 4.7 1.6 2.3 0 4.5-1 6-2.9 34.3-43.9 43.7-87 23.3-107.4-12.3-12.4-33.2-14.1-58.6-4.8-21.6 7.9-44.8 23-65.8 42.8L171 352c63-61.2 132.5-98.5 181.2-119.4 5.9 1.8 22.8 8.1 39.9 25.2 17.8 17.8 23.7 35.6 25.1 40.6-19.2 44.4-51.9 106-103.9 164.1-2.9 3.1-2.6 7.9.5 10.8zM120.7 290.8L99 312.5c-1.4 1.4-3.4 2.2-5.4 2.2-2 0-4-.8-5.4-2.2L55.7 280c-9-9-9-23.5 0-32.5 4.3-4.3 10.1-6.7 16.3-6.7 6.1 0 11.9 2.4 16.2 6.7l32.5 32.5c3 3 3 7.9 0 10.8zm216.6 260l21.7-21.7c1.4-1.4 3.4-2.2 5.4-2.2 2 0 4 .8 5.4 2.2l32.5 32.5c4.3 4.3 6.7 10.1 6.7 16.3 0 6.1-2.4 11.9-6.7 16.2-8.7 8.7-23.8 8.7-32.5 0l-32.5-32.5c-3-2.9-2.9-7.8 0-10.8zm65.6-303.9c-10.9-10.9-21.9-18-30.7-22.6 25.8-10 42.1-14.2 42.6-14.3 11.4-3.1 24.4-4.6 28.4-3.4 1.2 3.9-.2 17-3.2 28.5-.1.4-4.4 16.9-14.5 42.9-4.4-8.9-11.5-20-22.6-31.1z"/></symbol><symbol viewBox="-36.5 169.4 503 503" id="adv-trampoline"><path fill="#FFDA21" d="M126.9 606.6C78 578.3-30.7 595-30.7 443.5c0-140.4 107.3-85.9 181.6-183.6 70.6-92.8 153.4-81.2 176.8-46.5 23.4 34.7 63.9 119.8 88.6 145.2 24.7 25.3 44.9 87.5 7.3 113.4-46 31.8-57.3 89-86.7 131.2s-90 72.7-210 3.4z"/><path d="M436.3 561.1c12.5-8 20.8-22 20.8-37.9 0-24.8-20.2-45-45-45h-99v-30.8c0-12.3-10-22.3-22.3-22.3h-50.4l-48.6-41.7v-80.6h38.4c4.5 0 8-4.4 6.9-8.8l-7.6-30.3c-.5-1.9-1.8-3.6-3.6-4.5l-113.7-60.7c-2.1-1.1-4.8-1.1-6.9.1L-.8 259.3c-1.7 1-2.9 2.6-3.4 4.4l-7.6 30.3c-1.1 4.4 2.3 8.8 6.9 8.8h38.4v175.3H17.9c-24.8 0-45 20.2-45 45 0 15.9 8.3 29.9 20.8 37.9-12.5 8-20.8 22-20.8 37.9 0 24.8 20.2 45 45 45h347.3c3.9 0 7.1-3.2 7.1-7.1 0-3.9-3.2-7.1-7.1-7.1h-37v-61.6h83.9c17 0 30.8 13.8 30.8 30.8s-13.8 30.8-30.8 30.8h-22.7c-3.9 0-7.1 3.2-7.1 7.1 0 3.9 3.2 7.1 7.1 7.1h22.7c24.8 0 45-20.2 45-45 0-15.8-8.3-29.7-20.8-37.8zM233.1 437.7c1.3 1.1 2.9 1.7 4.6 1.7h53.1c4.4 0 8.1 3.6 8.1 8.1v30.8h-58.5l-101.7-87.1v-34.3l94.4 80.8zm-14.6 40.5h-26.7v-22.9l26.7 22.9zm-140-30.3H47.7v-16.1H79v16.1h-.5zm.5 14.2v16.1H47.7v-16.1H79zm-31.3-44.5v-16.1H79v16.1H47.7zm0-30.4v-38.9h76.8v38.9H47.7zm0-53v-31.3h129.8v68.4l-41.3-35.4c-1.3-1.1-2.9-1.7-4.6-1.7H47.7zm45.5 67.3H129l48.6 41.6v35.1H93.2v-76.7zm127.9-112.8h-44.4v-16.1H217l4.1 16.1zm-26.9-30.3h-21.7l-24.8-24.8 46.5 24.8zm-85-43.2l43.1 43.1h-39.7c-3.9 0-7.1 3.2-7.1 7.1s3.2 7.1 7.1 7.1h49.8v16.1H62.9v-16.1h23.2c3.9 0 7.1-3.2 7.1-7.1s-3.2-7.1-7.1-7.1H71.5l37.7-43.1zM75.6 232l-23.1 26.4h-23L75.6 232zM4.2 288.7l4-16.1h40.4v16.1H4.2zm-17.1 234.5c0-17 13.8-30.8 30.8-30.8h.5V554h-.5c-17 0-30.8-13.8-30.8-30.8zM94.2 629.9H17.9c-17 0-30.8-13.8-30.8-30.8s13.8-30.8 30.8-30.8h76.3v61.6zm0-75.9H32.6v-61.6h61.6V554zm75.8 75.9h-61.6v-61.6H170v61.6zm68.2 0h-54v-61.6h54v61.6zm75.8 0h-61.6v-61.6H314v61.6zm7.6-75.9H108.4v-61.6h213.2V554zm75.8 0h-61.6v-61.6h61.6V554zm14.7 0h-.5v-61.6h.5c17 0 30.8 13.8 30.8 30.8S429.1 554 412.1 554z"/></symbol><symbol viewBox="-84.5 169.4 503 503" id="adv-umbrella"><path fill="#FFDA21" d="M78.9 606.6C30 578.3-78.8 595-78.8 443.5c0-140.4 107.3-85.9 181.6-183.6 70.6-92.8 153.4-81.2 176.8-46.5 23.4 34.7 63.9 119.8 88.6 145.2 24.7 25.3 44.9 87.5 7.3 113.4-46 31.8-57.3 89-86.7 131.2s-89.9 72.7-209.9 3.4z"/><path d="M391.5 370.7c-13.6-46.8-42.9-89-82.7-118.8-38.9-29.1-85-45.2-133.9-46.8V197c0-4.4-3.6-8-8-8s-8 3.6-8 8v8.1c-48.9 1.6-95 17.7-133.9 46.8-39.7 29.8-69.1 72-82.7 118.8-1.2 4.2 1.2 8.7 5.5 9.9.9.3 1.8.3 2.7.3h.4c4.4 0 8-3.6 8-8 0-5.9 10.2-12.6 23.9-12.6S6.9 367 6.9 372.9c0 4.4 3.6 8 8 8h.3c3.8 0 7.1-2.6 7.9-6.4.3-1.4.6-2.9.9-4.3 2.9-4.7 12.8-9.9 27.1-9.9 17.1 0 27.9 7.4 27.9 12.6 0 4.4 3.6 8 8 8h.1c1.4 0 2.8-.3 4-1 .2-.1.4-.3.6-.4.2-.1.4-.3.6-.4.2-.2.4-.3.5-.5l.5-.5c.1-.2.3-.4.4-.6 0 0 0-.1.1-.1.1-.2.2-.4.3-.5 0-.1.1-.1.1-.2.1-.2.2-.3.2-.5 0-.1.1-.2.1-.3 0-.1.1-.3.1-.4.1-.2.1-.3.1-.5 0-.1 0-.2.1-.3 0-.2.1-.4.1-.6v-.2c.1-.5.1-1 .2-1.6 1.2-3.9 11.2-11.8 31.8-11.8 22.1 0 31.9 9.1 31.9 12.6v232h-48c-13.2 0-24 10.8-24 24v16c0 4.4 3.6 8 8 8h144c4.4 0 8-3.6 8-8v-16c0-13.2-10.8-24-24-24h-48V374.3c.1-.5.1-.9.1-1.4 0-3.5 9.8-12.6 31.9-12.6 19.8 0 29.8 7.3 31.6 11.3.1.7.2 1.4.2 2.1.4 4.1 3.9 7.2 7.9 7.2h.4c4.4 0 8-3.6 8-8 0-5.1 10.9-12.6 27.9-12.6 14.2 0 24.2 5.2 27.1 9.9.3 1.4.6 2.8.9 4.3.8 3.8 4.1 6.4 7.8 6.4h.4c4.4 0 8-3.6 8-8 0-5.9 10.2-12.6 23.9-12.6S375 367 375 372.9c0 4.4 3.6 8 8 8h.8c.7 0 1.5-.1 2.2-.3 4.3-1.3 6.8-5.7 5.5-9.9zM231 628.9v8H103v-8c0-4.4 3.6-8 8-8h112c4.4 0 8 3.6 8 8zM-17.1 344.3c-5.1 0-9.9.6-14.3 1.8 14.7-31.8 37.5-60.1 66.1-81.5 14.2-10.7 29.5-19.5 45.6-26.3-5.2 4.4-10.2 9.2-15.1 14.4-24.2 25.9-42.8 61-53.5 100.2-7.2-5.3-17.4-8.6-28.8-8.6zm68 0c-7.7 0-14.9 1.2-21.1 3.4 10.3-32.9 26.5-62.1 47-84 14.7-15.7 30.9-27.2 48.1-34.4-5.2 6.6-10.5 15-15.6 25.4-12.6 25.7-22.1 59.1-27.7 97.6-7.8-4.9-18.6-8-30.7-8zm156.2 0c-12.6 0-23.7 2.6-32.1 7v-58.4c0-4.4-3.6-8-8-8s-8 3.6-8 8v58.4c-8.4-4.3-19.4-6.9-31.9-6.9-11 0-20.9 2-28.8 5.4 5.4-34.5 14.3-65.2 25.5-88 10.7-21.7 23-35.4 35.3-39.5v30.6c0 4.4 3.6 8 8 8s8-3.6 8-8v-30.6c12.4 4.2 24.6 17.8 35.3 39.5 11.2 22.8 20 53.4 25.4 87.9-7.9-3.4-17.8-5.4-28.7-5.4zm76 0c-12.1 0-22.9 3-30.7 8-5.6-38.4-15-71.9-27.7-97.6-5.1-10.4-10.4-18.7-15.6-25.4 17.2 7.1 33.4 18.7 48.1 34.4 20.5 21.9 36.7 51.1 47 84-6.3-2.1-13.4-3.4-21.1-3.4zm39.2 8.6c-10.7-39.2-29.3-74.3-53.5-100.1-4.9-5.2-9.9-10-15.1-14.4 16.1 6.8 31.3 15.6 45.6 26.3 28.6 21.4 51.3 49.7 66.1 81.5-4.4-1.2-9.2-1.8-14.3-1.8-11.4-.1-21.6 3.2-28.8 8.5z"/></symbol><symbol viewBox="-36.5 169.4 503 503" id="adv-volleyball"><path fill="#FFDA21" d="M122.1 617.3C73.2 589-35.5 605.7-35.5 454.2c0-140.4 107.3-85.9 181.6-183.6 70.6-92.8 153.4-81.2 176.8-46.5 23.3 34.7 63.9 119.8 88.6 145.2 24.7 25.3 44.9 87.5 7.3 113.4-46 31.8-57.3 89-86.7 131.2-29.3 42.3-90 72.7-210 3.4z"/><path d="M390.9 261.6c-43.3-43.3-100.9-67.1-162.1-67.1S110 218.3 66.7 261.6C23.3 304.9-.5 362.5-.5 423.7s23.8 118.8 67.1 162.1 100.9 67.1 162.1 67.1 118.8-23.8 162.1-67.1C434.2 542.5 458 485 458 423.7s-23.8-118.8-67.1-162.1zm-14.6 5l-38 38c-3.1-1-6.4-1.6-9.9-1.6h-50.6l24.4-82c27.8 10.1 52.9 25.8 74.1 45.6zm-58.6 117.5c16 .2 31.7.4 46.7.7 4.8 25.7 4.8 52.1 0 77.8-121.1 2.5-241.6.5-271.3 0-4.8-25.7-4.8-52.1 0-77.8 20.1-.4 78.9-1.3 151.5-1.2 3.8 0 6.8-3 6.8-6.8s-3-6.8-6.8-6.8c-69.1-.1-125.8.8-148.5 1.2 4-15.5 9.7-30.7 17.3-45.2 3-5.8 9-9.4 15.6-9.4h199.3c6.6 0 12.6 3.6 15.6 9.4 7.6 14.5 13.3 29.7 17.3 45.2-14-.3-28.6-.5-43.5-.7-3.8-.1-6.8 3-6.9 6.7.1 3.7 3.1 6.8 6.9 6.9zm43.7 92.2c-4 15.5-9.7 30.7-17.3 45.2-3 5.8-9 9.4-15.6 9.4H129.1c-6.6 0-12.6-3.6-15.6-9.4-7.6-14.5-13.3-29.7-17.3-45.2 21.3.4 73.7 1.2 138.2 1.2 39.2 0 83-.3 127-1.2zM228.8 208.1c21 0 41.4 3 60.6 8.7L263.6 303h-72.4L172 233.8c-1-3.6-4.8-5.7-8.4-4.7-3.6 1-5.7 4.8-4.7 8.4l18.3 65.5h-48c-3.8 0-7.6.7-11 2l-36.9-38.3c38.5-36.3 90.4-58.6 147.5-58.6zM13.1 423.7c0-57 22.2-108.8 58.4-147.4l34.9 36.3c-2 2.1-3.7 4.4-5.1 7.1-34 65.2-34 143 0 208.2 1.5 2.9 3.5 5.6 5.8 7.8l-35.6 35.6c-36.1-38.7-58.4-90.6-58.4-147.6zm68.1 157.2l38-38c3.1 1 6.4 1.6 9.9 1.6h50.5l-25 81.7c-27.5-10.1-52.4-25.7-73.4-45.3zm147.6 58.5c-21.3 0-41.8-3.1-61.3-8.9l26.4-86h69.8L285 614c2.6 6.3 7.8 4.7 8.5 4.5 3.6-1.1 5.6-4.9 4.5-8.5l-20.1-65.5h50.5c3.4 0 6.7-.6 9.9-1.6l38 38c-38.6 36.2-90.5 58.5-147.5 58.5zm157.1-68.2l-35.6-35.6c2.3-2.2 4.3-4.9 5.8-7.8 34-65.2 34-143 0-208.2-1.5-2.9-3.5-5.6-5.8-7.8l35.6-35.6c36.3 38.6 58.5 90.5 58.5 147.5s-22.3 108.9-58.5 147.5z"/><path d="M292.7 370.2c-7.6-.1-15-.1-22.4-.1-3.7 0-6.8 3-6.8 6.8s3 6.8 6.8 6.8c7.4 0 14.8.1 22.4.1h.1c3.7 0 6.8-3 6.8-6.8-.2-3.7-3.2-6.8-6.9-6.8zm137.6 39.4c-.3-3.8-3.5-6.6-7.3-6.3-3.8.3-6.6 3.5-6.3 7.3.3 4.4.5 8.8.5 13.2 0 3.8 3 6.8 6.8 6.8s6.8-3 6.8-6.8c0-4.8-.2-9.5-.5-14.2zm-6.9 30.1c-3.7-.4-7.1 2.2-7.5 6-2.5 21.6-9.8 41.9-18.3 61.8-3.2 7.5 5.1 9.8 6.1 9.8 2.5 0 4.9-1.4 6.1-3.8 10.3-20.8 16.9-43.1 19.6-66.3.4-3.7-2.2-7.1-6-7.5z"/></symbol><symbol viewBox="-105.6 189.9 502.6 463" id="adv-waterslide"><path fill="#FFDA21" d="M52 608.8c-49-28.3-157.6-11.6-157.6-163.1 0-140.4 107.3-85.9 181.6-183.6 70.6-92.8 153.4-81.2 176.8-46.5s63.9 119.8 88.6 145.2c24.7 25.3 44.9 87.5 7.3 113.4-46 31.8-57.3 89-86.7 131.2s-90 72.7-210 3.4z"/><path d="M389.5 620c-13.6 0-20.9 5.2-26.7 9.4-5.2 3.7-9.2 6.6-18 6.6s-12.9-2.9-18-6.6c-5.9-4.2-13.1-9.4-26.7-9.4s-20.9 5.2-26.8 9.4c-5.2 3.7-9.2 6.6-18 6.6s-12.9-2.9-18-6.6c-5.9-4.2-13.2-9.4-26.8-9.4s-20.9 5.2-26.8 9.4c-5.2 3.7-9.2 6.6-18 6.6h-.6v-78.1l161 47c5.1 1.5 10.3 2.2 15.5 2.2 24.5 0 46.4-16.5 53.3-40 .1-.2.1-.4.1-.5.9-3.9-1.3-7.8-5.2-9l-69.3-20.2c-21.3-6.2-33.7-28.6-27.6-50 1.1-4-1.2-8.1-5.1-9.3l-42.1-12.3c13.9-6.7 24.8-19.1 29.2-34.5 7.7-26.5-5.4-54.2-29.6-65.6 15.6-7.4 27.4-22 30.8-39.9 5.3-27.7-12.6-55.9-40.8-64.1L-3.4 192.4c-8.2-2.4-16.8 2.4-19.2 10.6l-22.3 76.8c-1.2 4-.7 8.2 1.3 11.8 2 3.6 5.3 6.3 9.3 7.4l39.1 11.4c-.7.3-1.4.7-2 1.1-13 7.1-22.4 18.9-26.6 33.2-7.7 26.6 5.4 54.3 29.7 65.7-1.1.5-2.1 1-3.1 1.6-13 7.1-22.4 18.9-26.6 33.2-8.5 29.4 8.4 60.2 37.8 68.8l104 30.4v75.9c-11.8.7-18.5 5.4-24 9.3-5.2 3.7-9.2 6.6-18 6.6s-12.9-2.9-18.1-6.6c-5.9-4.2-13.2-9.4-26.8-9.4-13.6 0-20.9 5.2-26.8 9.4-5.2 3.7-9.3 6.6-18.1 6.6s-12.9-2.9-18.1-6.6c-5.9-4.2-13.2-9.4-26.8-9.4-4.1 0-7.5 3.4-7.5 7.5s3.4 7.5 7.5 7.5c8.8 0 12.9 2.9 18.1 6.6 5.9 4.2 13.2 9.4 26.8 9.4S7.1 646 13 641.8c5.2-3.7 9.3-6.6 18.1-6.6s12.9 2.9 18.1 6.6c5.9 4.2 13.2 9.4 26.8 9.4 13.6 0 20.9-5.2 26.8-9.4 5.2-3.7 9.2-6.6 18-6.6s12.9 2.9 18 6.6c5.9 4.2 13.2 9.4 26.8 9.4 13.6 0 20.9-5.2 26.8-9.4 5.2-3.7 9.2-6.6 18-6.6s12.9 2.9 18 6.6c5.9 4.2 13.2 9.4 26.8 9.4 13.6 0 20.9-5.2 26.8-9.4 5.2-3.7 9.2-6.6 18-6.6s12.9 2.9 18 6.6c5.9 4.2 13.1 9.4 26.7 9.4s20.9-5.2 26.7-9.4c5.2-3.7 9.2-6.6 18-6.6 4.1 0 7.5-3.4 7.5-7.5.1-4.4-3.3-7.7-7.4-7.7zM261.3 322.9c-3.7 19.2-20.4 33.1-39.8 33.1-3.8 0-7.6-.5-11.3-1.6L1.7 293.8 24.2 216 231 276c20.9 6.1 34.2 26.7 30.3 46.9zM-30.5 284l22.3-76.8c.1-.2.3-.4.5-.4h.1l17.4 5-22.6 77.8-17.4-5c-.2-.1-.3-.3-.3-.6zm21.1 64.8c3-10.4 9.9-19 19.4-24.2 6.1-3.3 12.7-5 19.4-5 3.8 0 7.6.5 11.3 1.6l192 55.7c21.4 6.2 33.8 28.7 27.6 50.2-5 17.2-21 29.2-38.9 29.2-3.8 0-7.6-.5-11.3-1.6L18.2 399c-21.5-6.3-33.8-28.8-27.6-50.2zm0 100.4c3-10.4 9.9-19 19.4-24.2 9.5-5.2 20.4-6.4 30.8-3.4l236 68.9c-3.9 26.9 12.6 53.4 39.4 61.2l61.4 17.9c-6.8 13.5-20.8 22.4-36.2 22.4-3.8 0-7.6-.5-11.3-1.6l-312-91.1c-21.4-6.1-33.7-28.6-27.5-50.1zM133 621.7v-73.1l17 5v77.6c-.8-.5-1.6-1.1-2.4-1.7-3.8-2.8-8.3-6-14.6-7.8z"/><path d="M43.4 254.9l12.9 3.8c.7.2 1.4.3 2.1.3 3.3 0 6.2-2.1 7.2-5.4 1.2-4-1.1-8.1-5.1-9.3l-12.9-3.8c-4-1.2-8.1 1.1-9.3 5.1-1.2 4 1.1 8.2 5.1 9.3zm48 14l32 9.3c.7.2 1.4.3 2.1.3 3.3 0 6.2-2.1 7.2-5.4 1.2-4-1.1-8.1-5.1-9.3l-32-9.3c-4-1.2-8.1 1.1-9.3 5.1-1.2 4 1.1 8.1 5.1 9.3zm-16 95.6l72 20.9c.7.2 1.4.3 2.1.3 3.3 0 6.2-2.1 7.2-5.4 1.2-4-1.1-8.1-5.1-9.3l-72-20.9c-4-1.2-8.1 1.1-9.3 5.1-1.2 4 1.1 8.2 5.1 9.3zm-43.6-12.6l11.6 3.4c.7.2 1.4.3 2.1.3 3.3 0 6.2-2.1 7.2-5.4 1.2-4-1.1-8.1-5.1-9.3L36 337.5c-4-1.2-8.1 1.1-9.3 5.1-1.1 4 1.2 8.1 5.1 9.3zm159.8 131.5l-112-32.7c-4-1.2-8.1 1.1-9.3 5.1-1.2 4 1.1 8.1 5.1 9.3l112 32.7c.7.2 1.4.3 2.1.3 3.2 0 6.2-2.1 7.2-5.4 1.2-4-1.1-8.2-5.1-9.3zm-144-42.1L36 437.9c-4-1.2-8.1 1.1-9.3 5.1-1.2 4 1.1 8.1 5.1 9.3l11.6 3.4c.7.2 1.4.3 2.1.3 3.2 0 6.2-2.1 7.2-5.4 1.2-3.9-1.1-8.1-5.1-9.3z"/></symbol><symbol viewBox="-60.5 169.4 503 503" id="adv-wc"><path fill="#FFDA21" d="M102.4 606.1C53.5 577.8-55.2 594.5-55.2 443c0-140.4 107.3-85.9 181.6-183.6 70.6-92.8 153.4-81.2 176.8-46.5 23.4 34.7 63.9 119.8 88.6 145.2 24.7 25.3 44.9 87.5 7.3 113.4-46 31.8-57.3 89-86.7 131.2s-90 72.7-210 3.4z"/><path d="M170.5 542.5h-31.9c-3.5 0-6.5-2.4-7.3-5.8l-29.8-123.2c-3.5-14.2-6.5-27.4-9.2-40.2-3 12.8-6.5 25.9-10.7 40.5L47.9 537c-.9 3.3-3.9 5.5-7.3 5.5H8.7c-3.4 0-6.5-2.3-7.3-5.7l-60-236.5c-.6-2.3-.1-4.6 1.4-6.5 1.4-1.8 3.6-2.9 5.9-2.9H-19c3.5 0 6.5 2.4 7.3 5.8l28.1 119.7c3.8 16 7.5 32.2 10.7 47.4 3.7-15.6 8-31.9 12.3-48L71 296.5c.9-3.3 3.9-5.6 7.3-5.6h31.9c3.5 0 6.5 2.4 7.3 5.8l28.8 120c3.6 15 7.1 30.4 10.2 45.4 3.2-13.6 6.6-27.5 10.2-41.8l1.1-4.4L199 296.6c.9-3.3 3.9-5.6 7.3-5.6h31.2c2.4 0 4.6 1.1 6 3 1.4 1.9 1.9 4.3 1.2 6.6l-67 236.5c-.9 3.2-3.8 5.4-7.2 5.4zm-26-15h20.3L227.6 306h-15.5l-29.8 113.7-1.1 4.3c-7 28.2-13.1 52.5-17.8 76.9-.7 3.6-3.8 6.1-7.4 6.1h-.7c-3.8 0-6.9-2.8-7.5-6.5-3.5-24.8-9.9-53.3-16.4-80.4L104.2 306H84L53.9 419.7c-7.5 28.4-15.3 57.7-19.2 81.4-.6 3.6-3.7 6.3-7.4 6.3h-.7c-3.6 0-6.7-2.6-7.4-6.2-4.2-22.6-10.6-52.3-17.5-81.3L-25 306h-16.6l56.2 221.5h20.3l32.2-117.6c8.2-28.5 13.6-51.3 18.1-76.6.6-3.6 3.8-6.2 7.4-6.2h.7c3.8 0 7 2.8 7.5 6.5 3.3 25 8.5 48.6 15.3 76.4l28.4 117.5zm225.3 18.6c-35.8 0-66.5-11.4-88.7-32.9-23.4-22.6-35.7-55.3-35.7-94.3 0-38.3 12.6-71.3 36.5-95.2 23.8-23.9 56.5-36.6 94.6-36.6 35.1 0 54.5 8.7 59.6 11.4 3.2 1.7 4.8 5.4 3.7 8.8l-7.4 24.9c-.6 2.1-2.2 3.9-4.2 4.8-2 .9-4.3.9-6.3-.1-12.1-5.9-27.9-9.1-44.4-9.1-53.1 0-84.8 33.7-84.8 90 0 54.8 31.2 87.6 83.4 87.6 17.2 0 35-3.5 46.5-9.1 2-1 4.4-1 6.4-.1s3.6 2.8 4.1 4.9l6.3 24.2c.9 3.4-.7 7-3.9 8.6-11.4 5.9-34.8 12.2-65.7 12.2zm6.7-244c-69.4 0-116 46.9-116 116.7 0 69.2 41.9 112.1 109.3 112.1 23.7 0 42.4-4 53.5-8.1l-2.5-9.6c-12.8 4.5-29.1 7.1-44.7 7.1-60.7 0-98.4-39.3-98.4-102.6 0-32.1 9.5-58.8 27.5-77.3 17.6-18.2 42.7-27.8 72.3-27.8 15.4 0 30.3 2.5 42.9 7.1l3.1-10.5c-7.9-2.9-23.2-7.1-47-7.1z"/></symbol><symbol viewBox="0 0 139.4 44.7" id="dorohovdesign"><path d="M52.2 19.5V8.1H57c3.6 0 6.1 2.1 6.1 5.7 0 3.5-2.6 5.7-6.1 5.7h-4.8zm7.9-5.7c0-1.8-1.1-3.1-3.1-3.1h-1.9v6.2H57c2 0 3.1-1.4 3.1-3.1m4.1 0c0-3.4 2.6-5.9 6.1-5.9 3.5 0 6.1 2.4 6.1 5.9 0 3.5-2.6 5.9-6.1 5.9-3.5 0-6.1-2.4-6.1-5.9m9.2 0c0-1.9-1.2-3.3-3.1-3.3-1.9 0-3.1 1.4-3.1 3.3 0 1.8 1.2 3.3 3.1 3.3 1.9 0 3.1-1.4 3.1-3.3m11 5.7l-1.9-3.8H81v3.8h-2.9V8.1h5.7c2.5 0 3.9 1.7 3.9 3.8 0 2-1.2 3-2.3 3.4l2.3 4.2h-3.3zm.3-7.6c0-.8-.6-1.2-1.4-1.2H81v2.4h2.3c.8 0 1.4-.4 1.4-1.2m4.2 1.9c0-3.4 2.6-5.9 6.1-5.9 3.5 0 6.1 2.4 6.1 5.9 0 3.5-2.6 5.9-6.1 5.9-3.5 0-6.1-2.4-6.1-5.9m9.1 0c0-1.9-1.2-3.3-3.1-3.3-1.9 0-3.1 1.4-3.1 3.3 0 1.8 1.2 3.3 3.1 3.3 1.9 0 3.1-1.4 3.1-3.3m12.4 5.7v-4.6h-4.7v4.6h-3V8.1h3v4.3h4.7V8.1h2.9v11.4zm4.6-5.7c0-3.4 2.6-5.9 6.1-5.9 3.5 0 6.1 2.4 6.1 5.9 0 3.5-2.6 5.9-6.1 5.9-3.5 0-6.1-2.4-6.1-5.9m9.2 0c0-1.9-1.2-3.3-3.1-3.3-1.9 0-3.1 1.4-3.1 3.3 0 1.8 1.2 3.3 3.1 3.3 1.9 0 3.1-1.4 3.1-3.3m7.3 5.7l-4.3-11.4h3.3l2.8 8.2 2.8-8.2h3.3l-4.2 11.4zm-79.3 17V25.1H57c3.6 0 6.1 2.1 6.1 5.7 0 3.5-2.6 5.7-6.1 5.7h-4.8zm7.9-5.7c0-1.8-1.1-3.1-3.1-3.1h-1.9v6.2H57c2 0 3.1-1.4 3.1-3.1m4.7 5.7V25.1h8.3v2.6h-5.3v1.8H73V32h-5.2v1.9h5.3v2.6zm9.6-1.6l1.5-2.2c.8.8 2.1 1.5 3.6 1.5 1 0 1.6-.4 1.6-.9 0-1.5-6.4-.3-6.4-4.7 0-1.9 1.6-3.6 4.5-3.6 1.8 0 3.4.5 4.6 1.6l-1.6 2.1c-1-.8-2.2-1.2-3.3-1.2-.8 0-1.2.3-1.2.8 0 1.4 6.4.4 6.4 4.6 0 2.3-1.7 3.8-4.7 3.8-2.2 0-3.8-.7-5-1.8m11.5-9.8h2.9v11.3h-2.9zm4.7 5.7c0-3.6 2.8-5.9 6.1-5.9 2.5 0 4.1 1.3 4.8 2.8L99.1 29c-.4-.7-1.3-1.4-2.4-1.4-1.9 0-3.2 1.4-3.2 3.3s1.3 3.3 3.2 3.3c.8 0 1.7-.3 2.1-.7v-.9h-2.6V30h5.5v4.5c-1.2 1.3-2.9 2.2-5 2.2-3.4 0-6.1-2.3-6.1-5.9m20.9 5.7l-4.8-6.6v6.6h-2.9V25.1h3l4.6 6.3v-6.3h2.9v11.4zM17.7 0H0v44.7h17.8c15 0 24.6-8.8 24.6-22.4C42.4 8.7 32.7 0 17.7 0m-.4 35.7h-8V9.5h8c9.3 0 15.7 3.7 15.7 12.7.1 7.5-5.8 13.5-15.7 13.5"/><path d="M19.1 17H17v10.6h2c4 0 6.4-2.4 6.4-5.4 0-3.7-2.6-5.2-6.3-5.2"/></symbol><symbol viewBox="0 0 124.099 124.1" id="email"><path d="M18.25 106.7c5.6 5.399 12.3 9.8 20.1 12.8 7.8 3 16.5 4.6 25.9 4.6 10.5 0 20.2-1.6 28.9-4.899 7.9-2.9 1.1-17.601-4.7-15.2-6.399 2.7-14.2 4.1-23.101 4.1-7 0-13.399-1.1-19-3.199-5.6-2.101-10.5-5.101-14.5-9-4-3.9-7.2-8.7-9.4-14.2-2.3-5.601-3.4-12-3.4-19 0-6.6 1.1-12.9 3.3-18.5 2.2-5.6 5.2-10.6 9.2-14.6 3.9-4.1 8.7-7.4 14.2-9.7 5.5-2.3 11.7-3.5 18.5-3.5 6.301 0 12.1.9 17.301 2.5 5.1 1.6 9.5 4.1 13.199 7.4 3.7 3.3 6.6 7.3 8.7 12.1 2.101 4.8 3.101 10.4 3.101 16.8 0 3.7-.4 7.2-1.201 10.5-.799 3.1-1.799 5.899-3.199 8.1-1.301 2.101-2.801 3.8-4.6 5-2.101 1.4-5.201 2.2-7.601 1.4-3-1-2.399-5.2-2.2-7.7.301-3.4 1.2-6.6 1.9-9.9 1.1-5.4 2.3-10.7 3.4-16 .6-2.9 1.299-5.9 1.899-8.8.8-3.7-2-7.3-5.899-7.3h-4.4c-2.7 0-5.1 1.8-5.801 4.4-.299 1.2-.6 2.2-.6 2.2-2.199-6.8-10.3-8.7-16.7-8.6-8.4.1-16.1 4.4-21.7 10.5-.5.6-1.1 1.2-1.6 1.8-2.9 3.5-5.1 7.6-6.6 11.9-1.6 4.6-2.4 9.3-2.4 14.1 0 4.101.6 8 1.7 11.5 1.2 3.601 2.9 6.7 5.1 9.3 2.2 2.601 5 4.7 8.3 6.2 3.3 1.5 7 2.3 11 2.3 3 0 5.8-.5 8.3-1.399 2.4-.9 4.6-2 6.5-3.3 1.5-1 2.9-2.2 4-3.301.699 1.301 1.5 2.4 2.6 3.5 2.801 3 7.1 4.5 12.801 4.5 4.5 0 8.899-.899 13-2.699 4.1-1.801 7.799-4.601 10.899-8.2 3-3.601 5.5-8 7.3-13.2 1.801-5.2 2.7-11.2 2.7-17.8 0-9-1.7-17-5-23.7s-7.8-12.4-13.399-16.9c-5.5-4.5-11.9-7.8-19-10.1C79.05 1.1 71.75 0 64.25 0c-8.7 0-17 1.6-24.7 4.7-7.7 3.2-14.5 7.6-20.2 13.1-5.8 5.5-10.4 12.2-13.7 19.7-3.3 7.5-5 15.9-5 24.7 0 8.899 1.5 17.3 4.6 24.8 3 7.6 7.4 14.2 13 19.7zm54.099-42c-.699 2.7-1.699 5.3-3.1 7.7-1.4 2.3-3.1 4.199-5.3 5.699-2 1.4-4.4 2.101-7.4 2.101-1.9 0-3.4-.4-4.5-1.101-1.2-.8-2.2-1.8-2.9-3.1-.8-1.4-1.3-2.9-1.6-4.4-.3-1.6-.5-3.1-.5-4.399 0-2.8.4-5.6 1.2-8.5.8-2.8 1.9-5.4 3.4-7.6 1.5-2.2 3.2-4 5.3-5.4 1.9-1.3 4-1.9 6.5-1.9 2 0 3.601.3 4.8 1 1.2.7 2.2 1.6 2.9 2.7.8 1.2 1.3 2.6 1.699 4.1.4 1.7.601 3.5.601 5.2-.1 2.5-.399 5.1-1.1 7.9z"/></symbol><symbol viewBox="0 0 510.2 446.2" id="logotip"><path fill-rule="evenodd" clip-rule="evenodd" fill="#91C13D" d="M360.4 245.5c-16.7-1.9-28.8-1.4-37.7 1-6 1.6-5.7 2.1-.3-1.8 47.1-34.8 94.9-54.1 144.2-42.7 10.7 2.5 16 4.5 24.7 11.4 6.6 5.2 12.4 11.8 17.1 21.2 3.3 6.8 1.9 4.4-1.7.5-9.4-10.2-19.1-17.5-29.2-20.8-7.2-2.4-10.5-3.8-3.5 1.8 6.3 5 11.9 11.2 16.4 19.4 3.7 6.8.8 2.9-2.6-.1-11.1-10.1-21.6-17.3-31.4-21.3-6.8-2.8-11.9-5.7-3.9.6 4.8 3.8 10.2 9.8 16.8 19.8 3.5 5.3 4.5 5.9-1 1.7-9.6-7.5-20.8-15.4-31-19.4-7.2-2.8-9.8-4.2-2.8 1.4 6.2 4.9 13.3 12 18.9 19.7 5.2 7 2.3 3.6-1.8.3-10.6-8.5-21.6-13.5-31.4-16.5-7.8-2.4-8.7-3.2-2.2 2 6.8 5.5 12.6 11.2 17 17 3.8 5 2.5 3.5-1.4.9-11.4-7.7-22.4-12.2-32.9-14.4-10.6-2.2-10.9-2.6-2.6 2.8 5.5 3.6 10.7 8.1 15.6 14.4 3.7 4.8 2.4 3.3-1.7 1.1-11.6-6.5-21.4-9.7-30-10.9-11.8-1.6-10.5-1.3-1.4 2.3 4.6 1.8 8.4 4 11 6.6 4.8 5-.4 2.2-3.7 1.2-10.6-3.2-18.9-4.6-26.2-5.1-5.2-.3-13.2-1.3-3.5 1 5.3 1.3 9 2.8 11.6 4.6 6.3 4-5.9.7-9.4.3zm-128.1-2.3c19.4-1.8 32.7-.7 43 1.8 7.5 1.9 10.5 4.4 2.3-2.3-46.3-38.2-94.1-60.3-144.8-50.6-11 2.1-16.5 3.9-25.7 10.8-6.9 5.2-13.3 11.8-18.4 21.4-3.7 6.9-2.2 4.5 1.7.6 10.1-10.2 20.3-17.4 30.8-20.5 7.5-2.2 10.9-3.5 3.5 2-6.7 4.9-12.7 11.2-17.7 19.6-4.1 7-1 3 2.6 0 11.9-10 22.9-17.1 33.1-20.8 7-2.6 12.4-5.5 4 .8-5.1 3.8-10.9 9.8-18 19.9-3.8 5.4-4.8 6 .9 1.8 10.2-7.4 21.9-15.2 32.6-18.9 7.5-2.6 10.2-4 2.8 1.6-6.6 4.8-14.1 11.9-20.3 19.8-5.6 7.1-2.5 3.7 1.9.4 11.2-8.5 22.7-13.1 32.9-15.8 8.1-2.2 9-3 2.2 2.2-7.2 5.5-13.4 11.1-18.2 17.1-4.1 5.1-2.7 3.6 1.4 1 12.1-7.6 23.5-11.8 34.4-13.5 10.9-1.8 11.3-2.3 2.6 3-5.7 3.5-11.3 8-16.6 14.3-4 4.9-2.6 3.4 1.6 1.2 12.2-6.3 22.3-9.2 31.2-10 12.1-1.1 10.8-.9 1.3 2.4-3.2 1.1-6 2.4-8.4 3.9-11.5 7.4-2.2 4.5 3.6 3.1 9.5-2.3 17.2-3.2 24-3.4 5.3-.1 13.6-.8 3.5 1.2-4.2.8-7.5 1.9-10 3.1-6.1 2.9-5.9 3.4.2 2.8zm16.1-35.4c12 5.5 24.1 12.4 36.1 22.6 6.5 5.5 8.4 9.8 4.8-.6-11.4-32.7-26.5-58.9-45-79.2-9.1-10-18.6-18.6-29.8-24.7-11.9-6.5-26.3-10.7-39.9-8.9-6.7.9-12.8 3-18.6 5.8-11.5 5.6-11.7 5.2-.3 3.1 10.3-1.9 21.9-2.3 32.8-.2 14.3 2.9 9.1 2.5-.6 3.5-8.5.9-16.6 2.8-22.6 6.6-6.3 4-5.2 3.8.7 2.7 9.8-1.7 19.7-2.7 30-1.9 18.6 1.4 9 .8 0 2.8-5.3 1.2-10 3.2-14.3 5.9-9.8 6-5.5 4.3 2.2 3.1 7.7-1.2 15.4-2 23.5-1.1 15.5 1.6 12 1.4 1.2 3.7-5.9 1.2-11 3.3-15.2 6.1-7.9 5.2-4 3.7 2.1 3.1 9-1 17.9-1.2 26.4.6 12.8 2.7 9.6 2.6 0 3.3-8.6.7-14.1 2.4-17.6 4.7-5.6 3.6-2.1 2.8 1.9 2.9 9.2.1 18.5.6 27.9 3 14.3 3.8 11.8 3.2.3 3.8-5.6.3-10 1.2-13.3 2.6-7.7 3.3-4.3 3.3.8 3.8 8.6.8 16.9 2.4 24.7 5.6 8.3 3.4 12 4.6 1.1 3.6-12.1-1.1-16.3.1-16 2.6 11.1 2.6 21.6 5.7 30.6 9.8 8.3 3.8 14.4 6.5 1.4 2.4-8.4-2.7-14.7-3.8-15.3-1.1z"/><path fill-rule="evenodd" clip-rule="evenodd" fill="#EF7C04" d="M122.5 5.1l1.8-.9c9.9 6.4 26.3 41.5 11.8 44.4-11.2 2.3-10.2-15.7-9.8-22.7.5-8.5-1.8-16.2-3.8-20.8z"/><path fill-rule="evenodd" clip-rule="evenodd" fill="#FFD900" d="M167.8.4c.8-.2 1-.2 1.8-.4 7.5 7.7 14.9 42.3 1.4 41.9-10.4-.3-5.8-16-4.1-22.2 2.2-7.5 1.7-14.8.9-19.3zM78.6 23.5c.7-.6.8-.8 1.5-1.4 11.3 3.2 37.2 32.1 24.2 39.1-10.1 5.4-14.3-12.1-16-18.9-2.1-8.3-6.5-14.9-9.7-18.8z"/><path fill-rule="evenodd" clip-rule="evenodd" fill="#EF7C04" d="M42.5 53.3c.5-.8.6-1 1-1.8 11.8-.2 44.8 20.1 34.3 30.6-8.1 8.1-17.1-7.5-20.7-13.6-4.3-7.3-10.4-12.5-14.6-15.2z"/><path fill-rule="evenodd" clip-rule="evenodd" fill="#FFD900" d="M12.6 90.9c.2-.9.3-1.1.5-2C24.3 85.3 61.9 95 54.9 108c-5.4 10.1-18.6-2.1-23.8-6.9-6.3-5.7-13.7-8.8-18.5-10.2z"/><path fill-rule="evenodd" clip-rule="evenodd" fill="#EF7C04" d="M3.5 134.1c0-.8 0-1-.1-1.7 8.4-5.5 41.4-6.1 38.6 6.2-2.1 9.5-15.7 2.5-21-.2-6.5-3.4-13.2-4.3-17.5-4.3z"/><path fill-rule="evenodd" clip-rule="evenodd" fill="#FFD900" d="M1.8 174.2c-.2-.6-.3-.8-.5-1.5C7 165.9 35 157 35.8 168.2c.6 8.6-12.8 6.1-18 5.2-6.4-1.2-12.3-.2-16 .8z"/><path fill-rule="evenodd" clip-rule="evenodd" fill="#EF7C04" d="M6.7 207.2c-.2-.5-.3-.6-.5-1.1 4.3-5.7 26.2-14 27.3-5.1.9 6.9-9.9 5.4-14.2 4.9-5-.7-9.8.3-12.6 1.3z"/><path fill-rule="evenodd" clip-rule="evenodd" fill="#91C13D" d="M290.6 194.3c5.7 8.4 10.3 20.2 14.2 32.7 2.6 8.3 2.1 11.6 4 1.2 6-31.6 6-62.8-1.6-85.6-3.3-10.1-6.6-17.5-11.9-23.9-10.6-12.7-23-18.1-37.5-20.7-20-3.5-13-2-.3 3.3 6.3 2.6 12.3 5.8 17.7 9.7 9.8 7.3 5.9 4.5-.9 2.6-4.2-1.1-8.4-1.5-12.8-1.2-.8.1-1.7.1-2.5.2-8 .9-5.7.9.1 2.7 10.6 3.2 19.7 7.3 26.1 12.8 7.3 6.3 2.8 3.9-2.8 2.5-5.1-1.3-9.4-2-12.9-2.2-7.6-.6-10.5-.7-2.2 2.6 7.8 3.1 15.6 6.7 23.1 12.2 4.8 3.5 7.5 4.8.4 2.5-6.7-2.1-12.2-3-16.6-2.8-6.9.2-4.8.6-.4 2.7 7 3.3 13.9 7.2 20.9 12.9 8.6 7.1 3.5 3.7-2.8 1.6-5.6-1.9-10.1-2.8-13.7-2.8-7.6-.1-3.6 1 .2 3.1 8.8 4.8 17.4 10.7 23.9 18.3 5.8 6.7 4.2 5.2-1.6 1.9-4.6-2.6-9.2-4.7-13.3-6-10-3.2-6.6-1.5-1.2 2.7 5.3 4.1 10.5 9.8 15.1 16.1 6.4 8.6 5.6 7.1-1.4 1.6-2.8-2.2-5.6-4-8.4-5.3-9.5-3.9-3.6.7-.9 4.6zm67.8 16.2c-12.2 5.2-24.5 11.9-36.9 21.8-6.7 5.4-8.7 9.6-4.8-.7 12.2-32.5 28-58.4 47-78.2 9.3-9.8 19.1-18.2 30.5-24.1 12.1-6.3 26.7-10.1 40.4-8 6.7 1 12.8 3.3 18.6 6.2 11.4 5.9 11.7 5.5.2 3.1-10.3-2.1-22-2.8-33-.9-14.4 2.6-9.2 2.3.5 3.6 8.6 1.1 16.6 3.2 22.6 7.1 6.3 4.1 5.2 3.9-.8 2.7-9.8-1.9-19.8-3.1-30.2-2.6-18.8 1-9.1.6-.1 2.8 5.3 1.3 10 3.4 14.3 6.2 9.7 6.2 5.4 4.4-2.2 3-7.7-1.4-15.5-2.3-23.6-1.6-15.6 1.3-12.1 1.1-1.3 3.6 5.9 1.4 11 3.5 15.2 6.4 7.9 5.3 3.9 3.8-2.2 3-9-1.2-17.9-1.6-26.5 0-12.9 2.5-9.7 2.4-.1 3.3 8.6.9 14.1 2.7 17.6 5 5.5 3.7 2 2.9-2 2.8-9.3-.1-18.6.2-28.2 2.4-14.5 3.4-11.9 2.9-.4 3.8 5.6.4 10.1 1.4 13.4 2.9 7.6 3.4 4.2 3.4-.9 3.7-8.6.6-17.1 2-25 5.1-8.4 3.3-12.2 4.3-1.2 3.6 12.2-.8 16.4.5 16.1 2.9-11.2 2.4-21.9 5.2-31 9.1-8.4 3.6-14.6 6.2-1.4 2.4 8.5-2.1 14.9-3.1 15.4-.4z"/><path fill-rule="evenodd" clip-rule="evenodd" fill="#FFDA00" d="M179.6 49.5c39.1 0 74.4 16.2 99.6 42.3 8.2 8.5 5 5.4-2 1C255.3 79 229.3 71 201.5 71c-78.9 0-142.9 64-142.9 142.9 0 19.1 3.7 37.3 10.5 54 4.1 10 3.5 8.5-2.4.3-16.1-22.6-25.6-50.3-25.6-80.3 0-76.4 62-138.4 138.5-138.4z"/><path fill-rule="evenodd" clip-rule="evenodd" fill="#FFD900" d="M16.3 236.8c-.2-.4-.3-.5-.6-.9 2.8-5.5 20.4-15.7 22.7-8.3 1.7 5.8-7.7 6.1-11.4 6.2-4.5.2-8.4 1.8-10.7 3z"/><path fill-rule="evenodd" clip-rule="evenodd" fill="#EF7C04" d="M34.4 263.6c-.2-.3-.3-.3-.6-.6 1.3-4.6 13.1-15 15.9-9.7 2.2 4.1-4.9 5.7-7.7 6.4-3.3.8-6 2.6-7.6 3.9zM214.3 3h1.9c5.5 9.2 4.5 44.6-8.5 41.1-10.1-2.7-1.9-17 1.3-22.6 3.8-6.7 5-13.9 5.3-18.5z"/><path fill-rule="evenodd" clip-rule="evenodd" fill="#FFD900" d="M253.2 22c.7.1.8.2 1.5.3 3.2 8.4-2.9 37.3-13.1 32.5-7.9-3.7 1-14.2 4.4-18.3 4.2-5.1 6.3-10.8 7.2-14.5z"/><path fill-rule="evenodd" clip-rule="evenodd" fill="#EF7C04" d="M283.6 46.1c.5.3.6.3 1.1.6.3 7.2-11.4 27.8-18 21.6-5.1-4.8 4.2-10.6 7.9-12.9 4.4-2.8 7.4-6.6 9-9.3z"/><path fill-rule="evenodd" clip-rule="evenodd" fill="#FFD900" d="M303.3 71.9c.3.3.4.4.7.6-1.1 5.5-13.6 18.8-17.4 12.9-2.9-4.5 5.1-7.2 8.3-8.2 3.7-1.3 6.7-3.6 8.4-5.3z"/><path fill-rule="evenodd" clip-rule="evenodd" fill="#3286C7" d="M82.8 303.8c-62-2.1-79.3 51-60.1 98.9 4.1 10.1 11.5 21-3.4 4.9-4.5-4.8-8.2-10.2-11.1-16.2-7.4-15.1-10-35-6.9-51.5 7.8-41.5 49.5-60.1 85.7-41.2 17.2 9 6.3 5.4-4.2 5.1z"/><path fill-rule="evenodd" clip-rule="evenodd" fill="#3286C7" d="M125.9 355.4c.2-2.8-.1-5.8-.8-8.6-2.5-10.1-8.6-16.9-17.7-21.4-4.2-2-8.7-3.5-13.1-4.4-23.3-4.8-48.2 7.8-56.3 36.7-6.7 23.7-1.1 47.2 15.8 66.1 48.3 54 131.4-3 175.9-31 26.4-16.6 50.5-27.6 72.5-34.9 21.7-7.2 39-9.5 61.5-10.4 6-.2 12.7-.4 20.2-.5 19.7-.3 18.3-.6-.6-4.3-29-5.7-58.6-3.5-88.4 2.3-32.2 4.4-73.4 25.4-111.7 44.4-23.2 11.5-38 20-64.5 22.4-50.2 4.6-69.5-39.8-42.7-67.7 6.7-7 15.8-9.2 24.8-6.6 18 5.2 23.6 19.7 14.1 33.7-2 2.9-2.3 3.3.9 1.9 1.2-.5 2.8-2 4.2-3.6 3.2-3.8 5.6-9 5.9-14.1z"/><path fill-rule="evenodd" clip-rule="evenodd" fill="#2B465F" d="M467.3 293.4l2.6-7.7c-1.4-.2-2.8-.6-3.8-1.6-.9-1-1.5-2.1-1.9-3.4l-.1-.4 4.1-3v1.7c0 .9.2 1.7.8 2.4.5.6 1.2.9 1.9 1.1.2-.5.4-1 .6-1.6.4-1.2.9-2.3 1.4-3.4.6-1.4 1.4-2.7 2.2-4 .9-1.4 1.9-2.7 3.1-3.8 1.2-1.2 2.6-2.1 4.1-2.9 1.7-.8 3.5-1.2 5.3-1.2 1.6 0 3 .4 4.3 1.2 1.5 1 2.1 2.5 2.1 4.2 0 1.9-.8 3.7-2 5.2-1.3 1.7-2.9 3.2-4.7 4.5-1.9 1.4-4 2.5-6.2 3.4-1.9.8-3.9 1.4-6 1.8l-5.9 17.8c-.3.9-.5 1.9-.8 2.8-.2.8-.4 1.7-.4 2.5s.3 1.5.8 2.1c.6.8 2.1.9 3 .9.5 0 1.2 0 1.6-.2.2-.1.3-.2.5-.3-.9-.8-1.6-1.8-2.2-2.9-.8-1.7-1-3.8-1-5.7 0-1.8.4-3.7.8-5.4.6-2.1 1.4-4.1 2.5-6 1.1-1.9 2.5-3.5 4.3-4.9 1.8-1.4 3.8-2.1 6.1-2.1 1 0 1.9.2 2.8.6.8.4 1.5.9 2.1 1.6.6.7 1 1.4 1.3 2.3.3.9.4 1.7.4 2.6 0 2.3-.6 4.4-1.5 6.4-1 2.1-2.2 4.1-3.6 6-1.3 1.7-2.7 3.3-4.3 4.8-.8.7-1.6 1.5-2.5 2.1.1 0 .1 0 .2.1.4.1.9.2 1.3.2 2 0 3.9-.7 5.6-1.7 2-1.2 3.8-2.6 5.4-4.2 1.6-1.5 3.2-3.2 4.6-4.9 1-1.3 2.1-2.6 3.1-3.9.1-.2.2-.4.4-.5.1-.1.2-.3.3-.4l2-1.9-1.4 4.3-.1.1c-.2.3-.4.5-.5.7-1 1.4-2 2.7-3.1 4-1.4 1.8-3 3.4-4.6 5-1.7 1.6-3.6 3.1-5.7 4.3-2 1.2-4.2 1.8-6.6 1.8-.8 0-1.6-.1-2.4-.4-.6-.2-1.2-.4-1.8-.7l-2.7 1.2c-1.6.6-3.3.8-5 .8-1.6 0-3.2-.4-4.4-1.5-1-1-1.5-2.2-1.5-3.7 0-1.1.2-2.2.5-3.2.3-1.1.6-2.2 1-3.3l1.4-4.4c-.3.4-.6.8-.9 1.3-.8 1.1-1.6 2.1-2.4 3.1l-3.3 3.6c-1.2 1.3-2.6 2.4-4 3.5-1.4 1-2.9 1.9-4.5 2.6-1.5.7-3.1 1.1-4.7 1.1-.7 0-1.5-.1-2.2-.3-.6-.1-1.1-.3-1.7-.5l-2.1.9c-1.4.6-2.9.8-4.4.8-2 0-3.9-.6-5.2-2.1-1.3-1.6-1.7-3.6-1.7-5.6 0-1.6.3-3.2.8-4.8.6-1.7 1.3-3.4 2.2-5 1-1.7 2.1-3.3 3.4-4.8 1.3-1.5 2.7-2.9 4.3-4.1 1.5-1.2 3.1-2.1 4.9-2.9 1.7-.7 3.5-1.1 5.3-1.1 2 0 3.9.5 5.3 2 1.3 1.4 1.8 3.2 1.8 5.1 0 2.3-.6 4.6-1.5 6.7-1 2.1-2.2 4.1-3.6 6a48.1 48.1 0 0 1-4.2 4.8c-.7.7-1.5 1.4-2.3 2 .3.1.6.1.9.1 1.4 0 2.8-.3 4.2-.9 1.5-.6 2.8-1.4 4.1-2.4 1.3-1 2.6-2.1 3.8-3.3 1.1-1.1 2.2-2.3 3.3-3.5.9-1 1.8-2.1 2.6-3.2.6-.8 1.1-1.5 1.7-2.3l2.3-2.1zM192 291.7c-.1.3-.3.6-.4.9-1.4 2.9-2.7 5.9-3.9 8.9-1 2.5-2 5.1-2.8 7.7-.5 1.5-1.1 3.1-1.5 4.7l-.1.4-10.7 1.5 7.7-24c.9-2.7 1.7-5.4 2.4-8.1.4-1.7 1-3.8 1.1-5.5 0-.6-.1-1.2-.5-1.7-.4-.4-.8-.7-1.3-.9-.7-.2-1.3-.3-2-.4-.7-.1-1.5-.1-2.2-.1h-1l1-2.8 16.9-1.4-13.5 41.3h.2c.6-1.2 1-2.7 1.4-3.9.9-2.7 1.9-5.4 3-8 1.3-3.3 2.7-6.5 4.3-9.7 1.6-3.3 3.4-6.5 5.5-9.5 1.9-2.7 4-5.2 6.6-7.2 2.3-1.8 5-2.9 7.9-2.9 1.4 0 2.7.4 3.9 1.2l.5.3-3.5 6.5-.6-1.3c-.6-1.5-1.8-2-3.4-2-2 0-3.7 1-5.1 2.3-2 1.8-3.7 4-5.2 6.2-1.2 1.9-2.4 3.8-3.4 5.8h6l.3 1.6c.5 1.8.9 3.7 1.4 5.5.5 2.1 1.1 4.1 1.8 6.1.6 1.7 1.4 3.4 2.4 4.9.6.9 1.5 1.8 2.6 1.8 1.3 0 2.7-.7 3.8-1.3 1.7-1 3.3-2.3 4.8-3.6 1.7-1.5 3.4-3.1 5-4.8 1.3-1.4 2.6-2.8 3.8-4.2.8-2.1 1.7-4.1 2.8-6 1.4-2.5 3.1-4.9 5-7.1 1.9-2.2 4-4.3 6.3-6.1 2.2-1.7 4.7-3.2 7.3-4.2 2.5-1 5.1-1.6 7.8-1.6 2.9 0 5.7.7 7.7 2.9 1.9 2.1 2.6 4.7 2.6 7.4 0 3.4-.8 6.7-2.3 9.9-1.5 3.2-3.2 6.1-5.3 8.9-1.9 2.5-4 4.9-6.3 7.1-1.2 1.1-2.6 2.4-3.9 3.5.1 0 .3.1.4.1.6.1 1.1.2 1.7.2 2.2 0 4.3-.5 6.3-1.3 2.2-.9 4.3-2.1 6.2-3.6 2-1.5 3.9-3.1 5.7-4.9 1.3-1.3 2.6-2.7 3.9-4.1.8-2.4 1.9-4.8 3.2-7 1.4-2.5 3.1-4.9 5-7.1 1.9-2.2 4-4.3 6.3-6.1 2.2-1.7 4.7-3.2 7.3-4.2 2.5-1 5.1-1.6 7.8-1.6 2.9 0 5.7.7 7.7 2.9 1.9 2.1 2.6 4.7 2.6 7.4 0 3.4-.8 6.7-2.3 9.9-1.5 3.2-3.2 6.1-5.3 8.9-1.9 2.5-4 4.9-6.3 7.1-3.8 3.6-6.3 5.2-11 7.3-2 .9-4.2 1.2-6.4 1.2-2.9 0-5.6-.8-7.5-3-1.9-2.3-2.5-5.2-2.5-8.1 0-.9.1-1.7.2-2.6-.5.6-1.1 1.2-1.7 1.7-1.8 1.9-3.8 3.6-5.9 5.2-2 1.5-4.2 2.8-6.6 3.9-2.2 1-4.5 1.5-6.9 1.5-1.1 0-2.1-.1-3.2-.4-.9-.2-1.7-.5-2.6-.8-1 .5-2.2 1-3.2 1.5-2 .9-4.2 1.2-6.4 1.2-2.9 0-5.6-.8-7.5-3-1.9-2.3-2.5-5.2-2.5-8.1 0-1.1.1-2.1.3-3.1-.9 1-1.9 2.1-2.8 3.1-1.8 1.9-3.6 3.7-5.5 5.4-1.7 1.5-3.5 2.9-5.4 4.1-1.4.9-3.2 1.7-4.9 1.7-1.5 0-2.7-.8-3.7-1.8-1.2-1.2-2.1-2.7-2.9-4.1-.9-1.7-1.7-3.6-2.3-5.4-.7-1.9-1.3-3.8-1.9-5.7-.5-1.6-.9-3.2-1.3-4.8-.7-1.2-.9-1.8-1-2.5zm132.6-2.9c1.5-1.2 3.2-2.2 5-3 1.8-.8 3.7-1.2 5.6-1.2 1.3 0 2.8.1 4 .5.8.3 1.6.5 2.4.8l.7.2-2.6 5.7-.7-.9c-.3-.4-.5-.7-.8-1.1-.3-.4-.7-.8-1.1-1.1-.5-.4-1-.7-1.6-.9-.7-.3-1.5-.3-2.2-.3-1.2 0-2.3.3-3.3.9-1.2.6-2.2 1.5-3.2 2.4-1 1-1.9 2.2-2.7 3.4-.8 1.3-1.5 2.6-2.1 4-.5 1.3-1 2.6-1.3 4-.3 1.1-.5 2.2-.5 3.4 0 .7.1 1.3.2 2 .1.6.3 1.2.7 1.7.4.6 1 .9 1.6 1.2.9.4 2.1.5 3 .5 2.3 0 4.5-.6 6.6-1.8 2.2-1.2 4.2-2.7 6-4.3 1.7-1.6 3.4-3.2 4.8-5.1 1.1-1.3 2.1-2.7 3.1-4l2.9-3.7c.1-.5.2-.9.3-1.4.1-.5.2-1.1.2-1.7 0-1.2-1.7-1.2-2.5-1.2H345l.8-2.3 11.6-1-6.2 19.3c.2-.4.4-.8.5-1.1 1-2.1 2.1-4.2 3.2-6.2 1.2-2 2.5-4 3.9-5.8 1.3-1.6 2.8-3.1 4.5-4.3 1.5-1.1 3.3-1.8 5.2-1.8 1.3 0 2.4.4 3.3 1.3.8.8 1.2 1.8 1.2 2.9 0 1.1-.2 2.2-.5 3.3l-.9 3-3 9.3c.1-.2.2-.4.3-.7 1-2.2 2.1-4.3 3.2-6.4 1.2-2.1 2.5-4.2 4-6.2 1.3-1.8 2.9-3.4 4.7-4.7 1.6-1.2 3.4-1.9 5.4-1.9 1.3 0 2.6.4 3.5 1.4.7.9 1.1 1.9 1.1 3s-.2 2.2-.5 3.2-.6 2-1 3l-2.7 8.2c-.4 1.3-.8 2.6-1.1 4-.2.7-.4 1.8-.4 2.5 0 .2.1.4.2.6.1.1.3.2.4.2.7 0 1.5-.4 2.1-.8 1-.7 2-1.4 2.9-2.3 1.1-1 2.2-2.1 3.2-3.2s2-2.2 3-3.4c.8-1 1.7-2 2.5-3 .5-.6 1.1-1.3 1.6-2l2.1-2.9v-.1c.3-1 .7-2.5.7-3.6 0-.3 0-.7-.3-1-.2-.2-.5-.4-.8-.5-.4-.1-.9-.2-1.3-.3-.5 0-1-.1-1.5-.1h-1l.8-2.3 11.8-1L404 308c.4-.9.8-1.9 1.2-2.8 1.1-2.6 2.3-5.1 3.6-7.5 1.2-2.3 2.5-4.5 4-6.5 1.3-1.7 2.7-3.4 4.4-4.7 1.4-1.1 3.1-1.8 4.9-1.8.8 0 1.6.2 2.3.6.7.4 1.2.9 1.6 1.6.4.7.7 1.4.9 2.2.2.8.3 1.6.3 2.4 0 1.7-.3 3.4-.7 5-.5 1.8-1.2 3.6-2 5.3-.9 1.7-1.9 3.4-3 4.9-1.1 1.5-2.3 2.9-3.7 4.2-1.3 1.2-2.6 2.2-4.2 2.9-1.4.7-2.9 1.1-4.4 1.1-.8 0-1.6-.1-2.3-.3-.6-.2-1.1-.4-1.6-.7-.4-.2-.7-.5-1-.8l-.6 1.8c-.5 1.4-.9 2.8-1.4 4.2-.4 1.3-.9 2.6-1.3 3.9-.3 1.1-.7 2.2-1 3.3-.2.7-.5 1.4-.7 2.1l-.1.4-7.7 1 10.2-31.2c-.5.7-1 1.3-1.5 2l-2.7 3.3c-1.1 1.3-2.3 2.5-3.4 3.7-1.2 1.2-2.5 2.4-3.8 3.5-1.2 1-2.5 1.9-3.9 2.7-1.2.6-2.4 1.1-3.8 1.1-1 0-1.8-.4-2.4-1.1-.6-.7-.9-1.5-.9-2.4 0-.6.1-1.2.2-1.7.1-.7.3-1.5.6-2.2.2-.8.5-1.6.7-2.3.2-.7.5-1.5.7-2.2l2.9-9c.2-.8.4-1.6.6-2.5.1-.5.3-1.2.3-1.7 0-.4-.2-.8-.3-1.1-.2-.4-.5-.4-.9-.4-1.2 0-2.3.7-3.2 1.5-1.4 1.2-2.5 2.6-3.6 4.1-1.3 1.8-2.4 3.6-3.4 5.6-1 2-2 3.9-2.9 5.9-.8 1.7-1.5 3.4-2.2 5.1-.4 1.1-.9 2.1-1.2 3.2l-.1.4-7.7 1.2 6.2-19c.4-1.2.8-2.5 1.1-3.7.2-.8.5-1.8.5-2.6 0-.4-.1-.8-.3-1.2-.2-.4-.7-.4-1.1-.4-1.3 0-2.4.7-3.3 1.6-1.4 1.3-2.6 2.7-3.6 4.3-1.3 1.8-2.4 3.8-3.4 5.8s-2 4-2.9 6c-.7 1.6-1.4 3.3-2.1 5-.3.9-.7 1.8-1 2.8l-.1.4-7.6 1.2 5.7-17.6-.3.3c-.9 1.2-2 2.6-2.3 3-.9 1.2-1.9 2.4-2.9 3.5-1.2 1.3-2.5 2.6-3.8 3.7-1.4 1.3-3 2.4-4.6 3.4-1.7 1-3.4 1.9-5.3 2.5-1.9.6-3.8 1-5.8 1-1.3 0-2.7-.1-3.9-.6-1-.4-1.9-1-2.7-1.8-.7-.7-1.2-1.6-1.5-2.6-.8-2.4-.5-5 .3-7.3 1.6-5.8 6.1-11.4 9.5-14.2zm-195.5-29.5c3-2.4 6.3-4.4 9.9-5.9 3.6-1.5 7.3-2.2 11.2-2.2 5.8 0 11.5 1.3 15.9 5.4 4.3 4 5.8 9.3 5.8 15 0 5.3-1.1 10.4-3.1 15.3-2 5.1-4.8 9.9-8.4 14.1-3.5 4.2-7.6 7.7-12.3 10.4-4.7 2.7-9.8 4.1-15.2 4.1-4.4 0-8.8-.9-12.6-3.2-3.6-2.2-6-5.4-7.4-9.3l-.1-.4 8.1-8.5v1.6c.1 2.2.4 4.5 1 6.7.5 1.9 1.3 3.8 2.5 5.4 1 1.5 2.3 2.7 3.9 3.6 1.7 1 3.6 1.3 5.6 1.3 4 0 7.6-1.3 10.9-3.4 3.7-2.4 6.8-5.6 9.4-9.2 2.8-4 4.9-8.4 6.5-13 1.6-4.8 2.5-9.8 2.5-14.8 0-2.3-.3-4.6-.8-6.8-.5-2.1-1.3-4.1-2.5-5.8-1.1-1.6-2.4-3-4-4s-3.5-1.5-5.4-1.5c-3.7 0-7.2 1.1-10.3 3.1-3.4 2.1-6.3 4.8-8.7 7.9l-.9 1.2-1.4-6.6-.1-.5zm26.8 24.7c-2.2-1.1-4.3-2.2-6.5-3.3-2.5-1.2-5.1-2.3-7.7-3.3-2.5-.9-5.1-1.8-7.7-2.4-2.4-.6-4.9-1-7.4-1.2h-.9l1.3 6.5.7-.1c1.3-.3 2.7-.5 4.1-.5 1.9 0 3.8.2 5.7.6 2.1.4 4.2.9 6.2 1.6 2.1.7 4.1 1.5 6.1 2.4 1.8.8 3.5 1.7 5.2 2.7-.7 2.1-1.5 4.1-2.5 6-1 2-2.2 4-3.5 5.8-1.2 1.7-2.6 3.4-4.1 4.9-1.3 1.3-2.7 2.5-4.3 3.6l-.7.5 1.6 1.5.4-.2c3.4-1.8 6.2-4.3 8.6-7.3 2.4-3 4.5-6.3 6.1-9.8 1.6-3.3 2.8-6.8 3.7-10.3.7-2.8 1.2-5.8 1.2-8.7 0-2.1-.2-4.3-.8-6.4-.5-1.9-1.2-3.7-2.2-5.4-.9-1.5-2.1-2.8-3.6-3.9-1.4-1-3.1-1.7-4.8-1.9l-1-.1 1.2 5.2.4.1c1.1.4 2 1 2.7 1.9.8 1.1 1.5 2.3 2 3.6.6 1.5.9 3 1.2 4.6.2 1.6.3 3.2.3 4.9.1 2.7-.3 5.6-1 8.4zm85.9-5.5c-.2.1-.3.3-.5.4-2 1.9-3.8 4-5.3 6.3-1.7 2.6-3.1 5.3-4.1 8.2-1.1 3-1.7 6.2-1.7 9.4 0 2 .4 4.1 1.6 5.8 1.2 1.8 3.6 2.2 5.6 2.2.5 0 1 0 1.5-.1h.2c-.4-.3-.7-.7-1-1-.7-.8-1.3-1.6-1.7-2.5-.6-1.1-1-2.3-1.2-3.5-.3-1.5-.4-3.2-.4-4.7 0-2.8.3-5.6.9-8.3.6-2.4 1.4-4.7 2.5-6.8 1-2 2.2-3.8 3.6-5.4zm1.2 30.6c1.1-.9 2.2-2 3.1-3 1.7-1.8 3.1-3.8 4.4-5.9 1.5-2.4 2.7-5 3.7-7.7 1-2.8 1.6-5.7 1.6-8.7 0-2.1-.4-4.1-1.5-6-.9-1.6-2.3-2.3-4.2-2.3-1.9 0-3.5.8-4.8 2.1-1.6 1.5-3 3.4-4 5.4-1.2 2.2-2.1 4.6-2.7 7-.6 2.2-1 4.5-1 6.8 0 2.6.3 5.7 1.7 8 1 1.8 2.2 3.2 3.7 4.3zm45.1-30.6c-.2.1-.3.3-.5.4-2 1.9-3.8 4-5.3 6.3-1.7 2.6-3.1 5.3-4.1 8.2-1.1 3-1.7 6.2-1.7 9.4 0 2 .4 4.1 1.6 5.8 1.2 1.8 3.6 2.2 5.6 2.2.5 0 1 0 1.5-.1h.2c-.4-.3-.7-.7-1-1-.7-.8-1.3-1.6-1.7-2.5-.6-1.1-1-2.3-1.2-3.5-.3-1.5-.4-3.2-.4-4.7 0-2.8.3-5.6.9-8.3.6-2.4 1.4-4.7 2.5-6.8 1-2 2.2-3.8 3.6-5.4zm1.2 30.6c1.1-.9 2.2-2 3.1-3 1.7-1.8 3.1-3.8 4.4-5.9 1.5-2.4 2.7-5 3.7-7.7 1-2.8 1.6-5.7 1.6-8.7 0-2.1-.4-4.1-1.5-6-.9-1.6-2.3-2.3-4.2-2.3-1.9 0-3.5.8-4.8 2.1-1.6 1.5-3 3.4-4 5.4-1.2 2.2-2.1 4.6-2.7 7-.6 2.2-1 4.5-1 6.8 0 2.6.3 5.7 1.7 8 1 1.8 2.1 3.2 3.7 4.3zm116 1l1.9-1.5.2 1.1c0 .2.2.5.3.7.1.3.3.6.6.9.3.3.6.6 1 .8.4.2.9.3 1.4.3 1 0 1.9-.4 2.7-.9 1-.7 1.9-1.7 2.6-2.7.9-1.2 1.6-2.5 2.2-3.8.7-1.4 1.3-2.9 1.7-4.4.5-1.4.8-2.9 1.1-4.4.2-1.2.4-2.4.4-3.6 0-.4 0-.8-.1-1.3-.1-.4-.2-.7-.3-1.1-.2-.3-.3-.5-.6-.8-.2-.2-.4-.2-.7-.2-1.4 0-2.7.9-3.7 1.9-1.5 1.5-2.8 3.2-3.9 4.9-1.3 2-2.4 4.1-3.5 6.3l-2.7 6-.6 1.8zm-54.1-29.7c3.4 0 6.8-.1 10.2-.5 3.1-.3 6.1-.8 9.1-1.5 2.9-.7 5.8-1.5 8.6-2.6 2.9-1 5.7-2.3 8.4-3.6l.3-.1 6.4 2.9-1.6.6c-3.5 1.3-7.1 2.5-10.7 3.4-3.2.8-6.4 1.5-9.6 1.9-3.2.5-6.5.8-9.8 1.1-3.7.3-7.4.5-11.2.7h-.7l-.2-2.3h.8zm87.9 31l-.4-.4c-.5-.5-.9-1.1-1.2-1.7-.4-.7-.7-1.6-.8-2.4-.2-1-.3-2.1-.3-3.2 0-1.9.2-3.8.6-5.6.4-1.6.9-3.2 1.7-4.6.2-.3.3-.6.5-.9-.6.7-1.1 1.4-1.6 2.1-1.1 1.7-2 3.5-2.7 5.5-.7 2-1.1 4.1-1.1 6.2 0 1.3.3 2.7 1 3.8.8 1.1 2.3 1.3 3.6 1.3.2-.1.4-.1.7-.1zm3-1.2c.7-.6 1.4-1.3 1.9-1.9 1.1-1.2 2.1-2.5 2.9-3.9 1-1.6 1.8-3.3 2.5-5.1.7-1.8 1-3.8 1-5.7 0-1.4-.3-2.7-.9-3.9-.6-1-1.4-1.4-2.6-1.4-1.2 0-2.2.5-3.1 1.3-1.1 1-2 2.2-2.6 3.6-.8 1.5-1.4 3-1.8 4.7-.4 1.5-.6 3-.6 4.5 0 1.7.2 3.8 1.1 5.3.5.9 1.2 1.8 2.2 2.5zm34.6-.3c.9-.7 1.8-1.6 2.6-2.5 1.1-1.2 2.1-2.6 2.9-4 .9-1.5 1.6-3.1 2.2-4.8.5-1.6.8-3.3.8-5 0-.6-.1-1.3-.2-1.9-.1-.6-.3-1.2-.6-1.7-.2-.5-.6-.8-1-1.1-.5-.3-1.1-.4-1.6-.4-1 0-1.9.5-2.7 1.1-1.1.9-2 1.9-2.7 3.1-.9 1.4-1.5 2.9-2 4.4-.5 1.7-.8 3.3-.8 5.1 0 1.6.2 3.6 1 5.1.6 1.1 1.3 1.9 2.1 2.6zm-.4-26.9c1.3-.1 2.5-.5 3.7-.9 1.7-.6 3.3-1.4 4.7-2.4 1.4-1 2.6-2.2 3.5-3.6.9-1.3 1.4-2.8 1.4-4.4 0-1-.3-1.9-1-2.6-.7-.7-1.6-1-2.6-1s-1.9.3-2.6.9c-.9.7-1.7 1.6-2.3 2.6-.7 1.1-1.4 2.3-1.9 3.5-.5 1.2-1 2.5-1.5 3.8-.4 1.1-.7 2.1-1.1 3.2 0 .3-.1.6-.3.9z"/></symbol><symbol viewBox="0 0 600.759 600.759" id="map"><path d="M203.993 295.287c21.001 0 38.024 17.023 38.024 38.018s-17.023 38.024-38.024 38.024c-20.998 0-38.021-17.029-38.021-38.024s17.023-38.018 38.021-38.018z"/><path d="M574.267 325.822l25.782-203.262-184.936-70.182-221.834 105.959L0 76.71l26.099 216.848L1.085 507.093l205.36 38.521 209.46-39.892 184.854 42.658-26.492-222.558zM414.428 73.909l163.811 61.731-11.277 88.88-163.273-41.301 10.739-109.31zm-21.669 11.283l-8.642 93.06-.142-.033L270.929 192.8l-.677 2.494c-.142.538-13.258 48.995-27.08 71.033-8.946-5.261-19.006-8.784-29.755-10.09l-9.164-81.028 188.506-90.017zm-17.283 207.574l-98.251 14.815c-5.291-14.969-14.999-27.825-27.606-37.022 12.862-20.531 24.471-60.278 27.394-70.77l106.361-13.728-7.898 106.705zM184.269 176.197l9.079 80.236c-29.864 4.113-54.358 25.2-63.336 53.217l-83.779-12.968-8.045-77.706c27.769-1.838 48.599-10.875 61.948-27 12.034-14.514 15.495-31.685 16.157-44.484l67.976 28.705zM24.187 108.596l84.465 35.668c-.242 11.777-2.905 28.865-14.443 42.791-12.037 14.514-31.182 22.632-56.998 24.261l-13.024-102.72zm-1.09 382.325l20.779-174.402 82.626 12.803c-.062 1.324-.195 2.636-.195 3.989 0 18.164 6.307 34.856 16.807 48.108l-42.912 34.459-13.521 86.959-63.584-11.916zm161.878 30.358l-90.721-17.017 13.104-84.252 40.837-32.781c12.528 12.95 29.48 21.593 48.421 23.377l-11.641 110.673zm-43.246-187.968c0-34.348 27.935-62.281 62.264-62.281 34.347 0 62.282 27.934 62.282 62.281 0 34.33-27.935 62.265-62.282 62.265-34.33.006-62.264-27.935-62.264-62.265zm64.69 191.987l-1.75-.33 12.12-115.119c36.756-6.135 64.9-38.076 64.9-76.556 0-2.081-.15-4.114-.313-6.159l96.038-14.481 8.016 81.911c-42.132 1.98-73.625 14.932-93.449 38.857-23.114 27.923-24.205 62.737-23.008 79.949l-62.554 11.928zm70.247-13.381c-.931-16.337.419-48.397 21.264-73.565 18.438-22.26 48.182-34.271 88.244-36.091l8.535 87.154-118.043 22.502zm126.307-320.946l163.03 41.225-9.776 77.017-160.974-19.431 7.72-98.811zm131.083 184.774l-74.175-8.819 13.584 131.58-59.428-12.773-16.852-176.034 1.732-.272 155.612 19.754 23.022 193.354-96.298-22.213-12.714-124.599 66.111 7.672-.594-7.65z"/></symbol><symbol viewBox="0 0 41.756 41.756" id="modal-close"><path d="M27.948 20.878L40.291 8.536a5 5 0 1 0-7.07-7.071L20.878 13.809 8.535 1.465a5 5 0 0 0-7.07 7.071l12.342 12.342L1.465 33.22a5 5 0 1 0 7.07 7.071l12.343-12.342 12.343 12.343c.976.977 2.256 1.464 3.535 1.464s2.56-.487 3.535-1.464a5 5 0 0 0 0-7.071L27.948 20.878z"/></symbol><symbol viewBox="0 0 477.175 477.175" id="owl-next"><path d="M360.731 229.075l-225.1-225.1c-5.3-5.3-13.8-5.3-19.1 0s-5.3 13.8 0 19.1l215.5 215.5-215.5 215.5c-5.3 5.3-5.3 13.8 0 19.1 2.6 2.6 6.1 4 9.5 4 3.4 0 6.9-1.3 9.5-4l225.1-225.1c5.3-5.2 5.3-13.8.1-19z"/></symbol><symbol viewBox="0 0 477.175 477.175" id="owl-prev"><path d="M145.188 238.575l215.5-215.5c5.3-5.3 5.3-13.8 0-19.1s-13.8-5.3-19.1 0l-225.1 225.1c-5.3 5.3-5.3 13.8 0 19.1l225.1 225c2.6 2.6 6.1 4 9.5 4s6.9-1.3 9.5-4c5.3-5.3 5.3-13.8 0-19.1l-215.4-215.5z"/></symbol><symbol viewBox="0 0 512 512" id="scroll"><path d="M369.018 46.807C338.818 16.622 298.682 0 256 0 167.87 0 96.169 71.7 96.169 159.831V352.17C96.169 440.3 167.87 512 256 512s159.831-71.7 159.831-159.831V159.831c0-42.682-16.623-82.818-46.813-113.024zm19.723 305.362c0 73.194-59.546 132.741-132.741 132.741s-132.741-59.546-132.741-132.741V159.831C123.259 86.636 182.806 27.09 256 27.09c35.447 0 68.784 13.806 93.863 38.873 25.072 25.084 38.878 58.421 38.878 93.868v192.338z"/><path d="M256.014 83.979c-7.481 0-13.545 6.064-13.545 13.545v31.831c0 7.481 6.064 13.545 13.545 13.545s13.545-6.064 13.545-13.545V97.524c0-7.481-6.065-13.545-13.545-13.545zm0 68.12c-7.481 0-13.545 6.064-13.545 13.545v4.007c0 7.481 6.064 13.545 13.545 13.545s13.545-6.064 13.545-13.545v-4.007c0-7.481-6.065-13.545-13.545-13.545z"/></symbol><symbol viewBox="0 0 1438.7 506" id="superwebstar"><style>.st0{fill-rule:evenodd;clip-rule:evenodd}</style><path d="M156.2 226.2l34.6 107.1 112.5-.2-91.1 65.9 35 107-91-66.3L65.3 506l35-107-91.2-65.9 112.6.2zM78.3 89.8C72.9 92 56.8 79 44 67.2 33 56.9 24.2 49.6 22.1 47.9l.3-.6c.6-1.4.9-2.9.9-4.5 0-6.4-5.2-11.6-11.7-11.6C5.2 31.1 0 36.3 0 42.7s5.2 11.6 11.6 11.6L41 148.2s64.5-18.3 112-16.8c47.5-1.4 112 16.8 112 16.8l29.3-93.8c6.4 0 11.6-5.2 11.6-11.6 0-6.4-5.2-11.6-11.6-11.6-6.4 0-11.7 5.2-11.7 11.6 0 1.6.3 3.1.9 4.5l.3.6c-2.1 1.7-10.9 9-21.9 19.3C249.3 79 233.1 92 227.8 89.8c-5.4-2.2-16.3-49.6-18.6-66.9 4.9-1.4 8.5-5.9 8.5-11.2 0-6.4-5.2-11.6-11.6-11.6-6.4 0-11.7 5.2-11.7 11.6 0 3.3 1.4 6.3 3.6 8.4-2.3 3.9-37.1 62.2-45 62.2-8 0-42.7-58.3-45-62.2 2.2-2.1 3.6-5.1 3.6-8.4C111.6 5.2 106.4 0 100 0c-6.4 0-11.6 5.2-11.6 11.6 0 5.4 3.6 9.9 8.5 11.2-2.3 17.4-13.2 64.9-18.6 67z"/><path d="M88.1 158.5c-.5-2.5 1.1-4.8 3.5-5.3 2.4-.4 4.7 1.2 5.2 3.7s-1.1 4.8-3.5 5.3-4.7-1.2-5.2-3.7zm52.9-3.2c-2.4 0-4.4-2-4.4-4.6 0-2.5 2-4.6 4.4-4.6 2.4 0 4.4 2 4.4 4.6 0 2.6-2 4.6-4.4 4.6zm22.7 0c-2.4 0-4.4-2-4.4-4.6 0-2.5 2-4.6 4.4-4.6 2.4 0 4.4 2 4.4 4.6 0 2.6-2 4.6-4.4 4.6zm45.9 1.2c.5-2.5 2.8-4.1 5.2-3.7 2.4.4 4 2.8 3.5 5.3s-2.8 4.1-5.2 3.7c-2.4-.4-4-2.8-3.5-5.3zm45.3 22.7l7.9-24.4-1.2-.3c-24.8-6.5-51.9-11.6-77.3-14.4-10.6-1.2-21.3-2-32-2s-21.4.8-32 2c-25.3 2.9-52.5 8-77.2 14.4l-.5.1 6.9 25.1C80.6 171.6 120.9 164 153 164c31.5-.1 71 7.3 101.9 15.2zm-23-18.6c.5-2.5 2.8-4.1 5.2-3.7 2.4.4 4 2.8 3.5 5.3s-2.8 4.1-5.2 3.7c-2.4-.4-4-2.8-3.5-5.3zm-162.6-3.2c2.4-.4 4.7 1.2 5.2 3.7s-1.1 4.8-3.5 5.3c-2.4.4-4.7-1.2-5.2-3.7s1.1-4.9 3.5-5.3zM704.2 175.8c-8.4 4.2-25.3 8.4-46.9 8.4-50.1 0-87.8-31.6-87.8-89.9 0-55.6 37.7-93.3 92.8-93.3 22.1 0 36.1 4.7 42.2 7.9L699 27.6c-8.7-4.2-21.1-7.4-35.8-7.4-41.6 0-69.3 26.6-69.3 73.3 0 43.5 25 71.4 68.3 71.4 14 0 28.2-2.9 37.4-7.4l4.6 18.3zm40-171.9l35.3 75.7c4.5 10.5 8.7 20.8 12.9 31.4h.5c3.2-9.2 6.6-19.5 11.1-32.2l27.7-74.9H856l-37.2 91.2c-9.8 23.7-20.8 50.9-33.2 67.5-11.6 14.5-24.5 21.9-40.3 21.9-5.8 0-10-.5-12.9-1.6l2.4-18.7c1.8.5 4.5.8 8.4.8 18.5-.3 29.3-17.9 34.8-30.6 1.8-4 1.3-6.6-.8-10.8l-59-119.7h26zm259.1 0v177.7h-22.9V23.2h-82.5v158.4H875V3.9h128.3zm132.1 94.4h-69.1v64.1h77v19.2h-99.9V3.9h95.9v19.2h-73v56.1h69.1v19.1zM1173.1 6c11.1-1.8 25.6-3.4 44-3.4 22.7 0 39.3 5.3 49.8 14.8 9.8 8.4 15.6 21.4 15.6 37.2 0 16.1-4.7 28.7-13.7 38-12.1 12.9-31.9 19.5-54.3 19.5-6.9 0-13.2-.3-18.5-1.6v71.2h-22.9V6zm22.9 85.7c5 1.3 11.3 1.8 19 1.8 27.7 0 44.5-13.4 44.5-38 0-23.5-16.6-34.8-41.9-34.8-10 0-17.7.8-21.6 1.8v69.2zM423.8 322.6c10-2.1 25.8-3.7 41.9-3.7 22.9 0 37.7 4 48.8 12.9 9.2 6.9 14.8 17.4 14.8 31.4 0 17.1-11.3 32.2-30 39v.5c16.9 4.2 36.6 18.2 36.6 44.5 0 15.3-6.1 26.9-15 35.6-12.4 11.3-32.4 16.6-61.4 16.6-15.8 0-27.9-1.1-35.6-2.1V322.6zm23 72.7h20.8c24.3 0 38.5-12.7 38.5-29.8 0-20.8-15.8-29-39-29-10.5 0-16.6.8-20.3 1.6v57.2zm0 85.2c4.5.8 11.1 1.1 19.2 1.1 23.7 0 45.6-8.7 45.6-34.5 0-24.3-20.8-34.3-45.9-34.3h-19v67.7zm211.9-65.9h-69.1v64.1h77v19.2h-99.9V320.2h95.9v19.2h-73v56.1h69.1v19.1zM796 320.2v19.2h-76.7v47.7c5.5-.8 16.1-1.3 21.9-1.3 16.9 0 33.5 3.7 45.9 11.9 13.4 8.7 22.7 22.7 22.7 43.5 0 16.6-5.5 29.3-14.8 38.5-14.5 14.2-38.5 19.8-62.7 19.8-16.1 0-28.2-1.1-35.8-2.1V320.2H796zm-76.7 160c5.3 1.1 11.3 1.3 19.2 1.3 14.2 0 28.7-4.5 37.4-13.7 6.1-6.3 9.8-15 9.8-26.1 0-13.7-5.8-22.9-14.5-29-9.2-6.3-21.1-9-33.7-9-5.3 0-12.4.5-18.2 1.1v75.4zm301 11.9c-8.4 4.2-25.3 8.4-46.9 8.4-50.1 0-87.8-31.6-87.8-89.9 0-55.6 37.7-93.3 92.8-93.3 22.1 0 36.1 4.7 42.2 7.9l-5.5 18.7c-8.7-4.2-21.1-7.4-35.8-7.4-41.6 0-69.3 26.6-69.3 73.3 0 43.5 25 71.4 68.3 71.4 14 0 28.2-2.9 37.4-7.4l4.6 18.3zm71.7-152.4h-54v-19.5h131.5v19.5h-54.3v158.2H1092V339.7zM1196.7 442l-18.5 55.9h-23.7l60.4-177.7h27.7l60.6 177.7h-24.5l-19-55.9h-63zm58.2-17.9l-17.4-51.1c-4-11.6-6.6-22.1-9.2-32.4h-.5c-2.6 10.5-5.5 21.4-9 32.2l-17.4 51.4h53.5zm74.4-101.8c11.1-1.8 25.6-3.4 44-3.4 22.7 0 39.3 5.3 49.8 14.8 9.8 8.4 15.6 21.4 15.6 37.2 0 16.1-4.7 28.7-13.7 38-12.1 12.9-31.9 19.5-54.3 19.5-6.9 0-13.2-.3-18.5-1.6V498h-22.9V322.3zm22.9 85.7c5 1.3 11.3 1.8 19 1.8 27.7 0 44.5-13.4 44.5-38 0-23.5-16.6-34.8-41.9-34.8-10 0-17.7.8-21.6 1.8V408z"/></symbol><symbol viewBox="0 0 348.077 348.077" id="tel"><path d="M340.273 275.083l-53.755-53.761c-10.707-10.664-28.438-10.34-39.518.744l-27.082 27.076a792.327 792.327 0 0 1-5.344-2.973c-17.102-9.476-40.509-22.464-65.14-47.113-24.704-24.701-37.704-48.144-47.209-65.257-1.003-1.813-1.964-3.561-2.913-5.221l18.176-18.149 8.936-8.947c11.097-11.1 11.403-28.826.721-39.521L73.39 8.194c-10.682-10.68-28.421-10.356-39.518.744l-15.15 15.237.414.411c-5.08 6.482-9.325 13.958-12.484 22.02C3.74 54.28 1.927 61.603 1.098 68.941-6 127.785 20.89 181.564 93.866 254.541c100.875 100.868 182.167 93.248 185.674 92.876 7.638-.913 14.958-2.738 22.397-5.627 7.992-3.122 15.463-7.361 21.941-12.43l.331.294 15.348-15.029c11.074-11.098 11.393-28.83.716-39.542z"/></symbol><symbol viewBox="0 0 548.358 548.358" id="vk"><path d="M545.451 400.298c-.664-1.431-1.283-2.618-1.858-3.569-9.514-17.135-27.695-38.167-54.532-63.102l-.567-.571-.284-.28-.287-.287h-.288c-12.18-11.611-19.893-19.418-23.123-23.415-5.91-7.614-7.234-15.321-4.004-23.13 2.282-5.9 10.854-18.36 25.696-37.397 7.807-10.089 13.99-18.175 18.556-24.267 32.931-43.78 47.208-71.756 42.828-83.939l-1.701-2.847c-1.143-1.714-4.093-3.282-8.846-4.712-4.764-1.427-10.853-1.663-18.278-.712l-82.224.568c-1.332-.472-3.234-.428-5.712.144l-3.713.859-1.431.715-1.136.859c-.952.568-1.999 1.567-3.142 2.995-1.137 1.423-2.088 3.093-2.848 4.996-8.952 23.031-19.13 44.444-30.553 64.238-7.043 11.803-13.511 22.032-19.418 30.693-5.899 8.658-10.848 15.037-14.842 19.126-4 4.093-7.61 7.372-10.852 9.849-3.237 2.478-5.708 3.525-7.419 3.142-1.715-.383-3.33-.763-4.859-1.143-2.663-1.714-4.805-4.045-6.42-6.995-1.622-2.95-2.714-6.663-3.285-11.136-.568-4.476-.904-8.326-1-11.563-.089-3.233-.048-7.806.145-13.706.198-5.903.287-9.897.287-11.991 0-7.234.141-15.085.424-23.555.288-8.47.521-15.181.716-20.125.194-4.949.284-10.185.284-15.705s-.336-9.849-1-12.991a44.442 44.442 0 0 0-2.99-9.137c-1.335-2.95-3.289-5.232-5.853-6.852-2.569-1.618-5.763-2.902-9.564-3.856-10.089-2.283-22.936-3.518-38.547-3.71-35.401-.38-58.148 1.906-68.236 6.855-3.997 2.091-7.614 4.948-10.848 8.562-3.427 4.189-3.905 6.475-1.431 6.851 11.422 1.711 19.508 5.804 24.267 12.275l1.715 3.429c1.334 2.474 2.666 6.854 3.999 13.134 1.331 6.28 2.19 13.227 2.568 20.837.95 13.897.95 25.793 0 35.689-.953 9.9-1.853 17.607-2.712 23.127-.859 5.52-2.143 9.993-3.855 13.418-1.715 3.426-2.856 5.52-3.428 6.28-.571.76-1.047 1.239-1.425 1.427a21.387 21.387 0 0 1-7.71 1.431c-2.667 0-5.901-1.334-9.707-4-3.805-2.666-7.754-6.328-11.847-10.992-4.093-4.665-8.709-11.184-13.85-19.558-5.137-8.374-10.467-18.271-15.987-29.691l-4.567-8.282c-2.855-5.328-6.755-13.086-11.704-23.267-4.952-10.185-9.329-20.037-13.134-29.554-1.521-3.997-3.806-7.04-6.851-9.134l-1.429-.859c-.95-.76-2.475-1.567-4.567-2.427a30.301 30.301 0 0 0-6.567-1.854l-78.229.568c-7.994 0-13.418 1.811-16.274 5.428l-1.143 1.711c-.571.953-.859 2.475-.859 4.57 0 2.094.571 4.664 1.714 7.707 11.42 26.84 23.839 52.725 37.257 77.659 13.418 24.934 25.078 45.019 34.973 60.237 9.897 15.229 19.985 29.602 30.264 43.112 10.279 13.515 17.083 22.176 20.412 25.981 3.333 3.812 5.951 6.662 7.854 8.565l7.139 6.851c4.568 4.569 11.276 10.041 20.127 16.416 8.853 6.379 18.654 12.659 29.408 18.85 10.756 6.181 23.269 11.225 37.546 15.126 14.275 3.905 28.169 5.472 41.684 4.716h32.834c6.659-.575 11.704-2.669 15.133-6.283l1.136-1.431c.764-1.136 1.479-2.901 2.139-5.276.668-2.379 1-5 1-7.851-.195-8.183.428-15.558 1.852-22.124 1.423-6.564 3.045-11.513 4.859-14.846 1.813-3.33 3.859-6.14 6.136-8.418 2.282-2.283 3.908-3.666 4.862-4.142.948-.479 1.705-.804 2.276-.999 4.568-1.522 9.944-.048 16.136 4.429 6.187 4.473 11.99 9.996 17.418 16.56 5.425 6.57 11.943 13.941 19.555 22.124 7.617 8.186 14.277 14.271 19.985 18.274l5.708 3.426c3.812 2.286 8.761 4.38 14.853 6.283 6.081 1.902 11.409 2.378 15.984 1.427l73.087-1.14c7.229 0 12.854-1.197 16.844-3.572 3.998-2.379 6.373-5 7.139-7.851.764-2.854.805-6.092.145-9.712-.677-3.611-1.344-6.136-2.008-7.563z"/></symbol></svg>