<svg version="1" xmlns="http://www.w3.org/2000/svg" width="346.667" height="346.667" viewBox="0 0 260.000000 260.000000"><path d="M91.2 3.7c.2 1.6-.3 5.6-1.1 8.9-1.5 6.9-.5 10.4 3 10.4 4.1 0 5-10.1 1.5-18.4-1.8-4.3-3.7-4.8-3.4-.9zM115.7 2.6c-.4.4-.7 1.6-.7 2.6s-1.1 4-2.4 6.6c-3.1 6.1-3.6 10.2-1.5 11.5 3.9 2.5 6.6-1.5 7.2-10.7.4-5.4-1.2-11.4-2.6-10zM67.6 4.7c.4 1 1 5.8 1.4 10.7.5 7 1 9.1 2.5 10.2 2.5 1.9 3.1 1.8 4.8-.7 2.5-3.5-.6-14.4-5.5-19.6-2.6-2.7-4.3-3-3.2-.6zM44.6 12.9c-.3.5 0 1.4.8 2 .7.6 2.4 4.4 3.7 8.3 2.1 6.7 4.7 10.8 6.8 10.8 2.2 0 4.1-3.2 3.5-5.8-1.6-6.3-13.1-18.2-14.8-15.3zM135 15c-.7 1.8-2.3 4.4-3.5 5.9-3.1 3.7-3.8 6.6-2.1 8 2.2 1.8 5.2-.2 6.4-4.1 1.6-5.2 2-9.1 1.3-11.2-.6-1.6-.9-1.5-2.1 1.4zM147 30c-5 4.4-5.4 5-3.9 6.5 1.4 1.4 1.7 1.4 4.1-.4 2.3-1.8 6.4-9.8 5.6-10.7-.2-.1-2.8 1.9-5.8 4.6zM87.5 27.2c-30 3.9-54.6 25.8-62 55.3-1.8 7.4-2.4 22-1.2 30 4 25.3 23.9 48.7 48.9 57.1 8.9 3 18.8 4.6 19.3 3 .2-.6 1.1-3.8 2-7.1 2.6-9.3 8-18.2 15.4-25.1 3.2-3.1 13.6-9 17.4-10 1.5-.3 2.6-.8 2.4-1-.2-.3-7.7-2.9-16.7-6l-16.3-5.5-10.6 1.7c-10.3 1.6-11.9 1.9-17.1 2.8-1.4.3-4.3.8-6.5 1.1-2.2.3-5.3.8-7 1.1-2.9.6-2.8.5 2.4-5.1 5-5.3 5.3-5.9 3.7-7.1-1.7-1.2-1.7-1.4-.2-3.6 2.8-4 16.8-14.5 24.3-18.3 10.5-5.1 18-6.8 30.1-6.8 11.9 0 12-.1 7-8.7-3.4-6-15.2-18.2-23.6-24.5l-5.3-4 3.1-1.3c3.2-1.3 16.2-1.7 21.5-.7 15.2 3 24.5 6.5 36.5 13.8l3.5 2.2-1.9-3c-2.4-3.8-4-5.6-9.6-11.2-15-14.7-37.5-21.9-59.5-19.1z"/><path d="M28.4 31.7c2.1 2.1 4.7 5.4 5.8 7.4 3.5 6.3 10 8 10.6 2.8.5-4.4-11.5-13.9-17.7-13.9-2.3 0-2.3.1 1.3 3.7zM157.6 41.3c-4.4 2.4-5.5 4.2-3.2 5 1.7.7 6.1-2.5 7.6-5.4 1.3-2.4.5-2.3-4.4.4zM10 47.9c0 .6 1.2 1.7 2.8 2.3 1.5.7 4.5 2.7 6.7 4.5 5.7 4.5 9.4 5.8 11.3 3.9 2.6-2.6.7-6.1-4.5-8.6-5.5-2.6-16.3-4-16.3-2.1zM102 48c0 .3 1.2 1.3 2.6 2.1 1.5.8 6.7 5.6 11.5 10.8 4.9 5.2 9.2 9.2 9.5 8.9.8-.8-12.3-20.8-13.6-20.8-.5 0-1.3-.1-1.7-.2-4.2-1-8.3-1.4-8.3-.8zM114 47.6c0 .3 3 4.9 6.7 10.3 6.1 8.9 6.9 9.7 9.7 9.5 3.1-.2 8.6 2 8.6 3.5 0 .5-1.3.7-2.9.6-5.8-.5-5.6.8 2.6 13.1 4.3 6.6 8.4 12 9.1 12 .6.1 2.3.2 3.6.2 1.3.1 3.4 1.1 4.7 2.2l2.4 2.1-3.4-.5c-6-.8-6.5.1-2.8 5.3 5.8 7.8 8.5 13.4 8.2 16.3-.4 3.3-.6 3.3 4.2.7l3.8-2.1-3.4 2.8c-1.9 1.6-4.2 3.4-5 4.1-1.3.9-.5 1.4 4.3 2.8 3.2.9 6.5 1.8 7.4 1.9.8.2 3 2 4.9 4.2 3.2 3.5 16.8 18.3 24.8 26.9 1.7 1.8 5 5.5 7.4 8.1 2.4 2.7 8.7 9.5 14 15.2 5.3 5.6 10.1 11.7 10.8 13.5 1.4 3.7 1.6 2.5 1.4-6.3-.5-18.5-8.1-39.4-18.2-49.9-8.8-9.3-24.8-15.1-41.6-15.2-8.2-.1-8.2-1.4 0-1.5 5.6 0 6.2-.3 6.5-2.2.2-1.3-.7-3.2-2.2-4.7-2.1-2.1-2.9-2.3-5.2-1.5-1.5.6-2.9.9-3.1.7-.7-.8 18.8-7.7 35.8-12.8 11.9-3.5 18.2-4.9 20.5-4.6 1.8.3 7.4 2.5 12.3 4.9 5 2.4 9.1 4.2 9.1 4 0-.8-8.5-8.5-12.4-11.1-10.6-7.3-18.8-9.5-33.7-8.9-8.8.3-11.3.8-15.9 3-6.4 3.2-12.3 8.5-18.7 17.1-2.5 3.4-4.2 5.3-3.8 4.2 4.5-11.7 4.9-31.5.9-40-5.3-11.3-20-20.4-42.7-26.5-8.5-2.2-8.7-2.3-8.7-1.4zm50.7 81c-.3.3-1.2.4-1.9.1-.8-.3-.5-.6.6-.6 1.1-.1 1.7.2 1.3.5zM8.1 69c-3.2.7-3.8 2.5-.9 2.7 1.1.1 4.5 1.2 7.4 2.3 2.9 1.2 6.3 2 7.6 1.8 3.2-.4 3.7-4.3.6-5.9-2.5-1.4-10.9-1.9-14.7-.9z"/><path d="M128.2 74.7c.2.6 3.2 6.3 6.8 12.7 4.4 7.9 7.1 11.6 8.3 11.6.9 0 1.7-.3 1.7-.6 0-1.2-11.4-18.6-14.3-21.8-1.6-1.7-2.7-2.6-2.5-1.9zM10.6 87.6C6.7 89 4 90.7 4 91.9c0 .3 3.7.6 8.1.6 6.7 0 8.4-.3 9.3-1.7 2.3-3.7-4.1-5.5-10.8-3.2zM110.2 89.2c-10.8 1.2-22.7 6.5-35.5 15.6-4.2 3-7.6 5.7-7.4 5.9.2.2 2.4-.4 4.8-1.2 4.5-1.6 17.1-5 22.4-6 6.9-1.3 20.7-1.3 26.5.1 10.6 2.4 24.1 10.4 31.8 18.7 5 5.5 5.6 7.4 1 3.1-3.3-3-5.6-4.6-12-8.2-1.8-1.1-7.7-4.5-13-7.7-10.3-6-11.2-6.2-22.4-4.1-1.1.2-4.4.7-7.4 1.1-3 .4-6.4.9-7.4 1.1-1.1.2-5.6.8-10 1.5-4.4.6-8.5 1.4-9.1 1.7-2.6 1.7-13.3 10.7-13 11 .1.2 3-.2 6.4-.8 3.3-.6 7.3-1.3 8.8-1.6 1.6-.2 5.1-.9 7.8-1.5 2.8-.5 6.6-1.2 8.5-1.5 1.9-.3 3.8-.8 4.1-.9.3-.2 4.3.7 9 2.1 4.6 1.4 9.1 2.7 9.9 2.9.8.2 3.4 1 5.7 1.9 3.7 1.3 4.6 1.3 7 .1 1.6-.8 3.6-1.5 4.7-1.5 1.6 0 1.5.2-.5 2-1.3 1-1.9 2-1.4 2.1.6 0 4.4.3 8.5.5s10 1 13 1.8 5.8 1.2 6.1 1c.4-.2 1-2 1.3-3.9.6-3.1 0-4.7-4.6-12.5-4.9-8.4-5.5-9-8-8.4-2.1.4-2.9 0-3.9-1.8-4.4-8.7-18.2-14.2-31.7-12.6zM203.9 109c-25 7.6-23.1 6.6-17.9 9.6 2.5 1.4 4.9 3.2 5.3 3.9.6 1.1 1.3 1.2 3 .5 10.2-4.5 41.8-4.8 58.7-.5l5.5 1.4-5.5-5c-5.2-4.7-26.2-16.1-29.2-15.8-.7.1-9.7 2.7-19.9 5.9zM11.4 105.9c-6.3 2.9-6 3.8 1.3 3.5 6.5-.2 9.4-1.7 7.3-3.8-1.7-1.7-4.4-1.6-8.6.3zM16.5 120.5c-1.6.9-3.7 2.3-4.5 3.1-1.3 1.4-1.1 1.5 2.5.9 7.9-1.2 8.6-1.5 8.3-3.3-.4-2.3-2.7-2.5-6.3-.7zM139 130.6c-23.6 4.4-37.3 18-41.4 40.9-1.2 6.7-1.5 20.9-.7 34.9.2 4.2 1.4.3 1.6-5.6 1.5-29.4 17.4-52.9 45.9-68 7.9-4.1 6.9-4.6-5.4-2.2z"/><path d="M148.1 134c-16.4 7.8-32.8 21.3-38.3 31.5-3.2 6-7.3 19.8-8.2 27.5-1.1 9.2-.9 24.1.4 30.9.6 3.6 1.2 7.3 1.3 8.3.2 3.3 1.3 1.9 2.7-3.4 5-19.8 18.5-48.2 30-63.2 4.8-6.3 4.9-6.4 2.9-8.1-2-1.9-2.5-5-1-5.9.4-.3 1.6.3 2.6 1.4 1 1.1 2.1 2 2.5 2 .3 0 2.6-3.7 5-8.3 2.4-4.5 5.4-9.9 6.7-12 2.9-4.6 1.9-4.7-6.6-.7zM160.9 133.8c1.6 2.3 12.5 15.4 49.1 59.2 2 2.5 7.3 8.8 11.6 14 4.3 5.2 8.9 10.6 10.2 12l2.4 2.5-.6-7c-.3-3.9-.6-8.6-.6-10.5-.1-2.9-1.2-4.7-6.1-10-7.3-7.8-10.7-11.5-21.9-24-4.7-5.2-8.8-9.7-9.1-10-.3-.3-5.6-6.1-11.8-13-11.8-13-12.4-13.4-22.9-15.4l-2.2-.5 1.9 2.7zM23.1 135.9c-3.4 3.2-4.1 4.7-1.3 3.1.9-.5 2.9-1.4 4.5-2 1.5-.5 2.7-1.6 2.7-2.5 0-2.4-2.5-1.8-5.9 1.4z"/><path d="M155.5 136.9c-.8 1.6-1.2 3.1-.9 3.4.7.6.7 29.5 0 30.5-.2.4-.7 3-1 5.9-2.3 21.1-10.7 39.7-23.8 53.1-5.5 5.6-5.9 5.8-16.5 8.4-5.9 1.6-16.6 4.6-23.8 6.8-17.3 5.4-33.8 9.7-40.4 10.5-3 .4-6.2.8-7.1 1-.9.2-5.4.6-10.1 1-4.6.4-8.6.9-8.8 1.1-.2.2 17.8.5 40 .5 22.2.1 58.9.3 81.4.4 47.4.3 53.9-.1 67.1-4.5 16.1-5.4 21.1-13.6 12.8-21.1-7.7-6.9-14.8-8.9-31.4-8.9-6.9 0-13.4.1-14.5.4-1.1.2-4.9.7-8.5 1.1-6.7.8-8.5 1-13.3 2.1l-2.8.6 1.6-3.9c8.7-20.2 12-35.3 12-55.3-.1-16.9-1.9-27.1-5.6-31.9-3.4-4.2-4.7-4.4-6.4-1.2z"/></svg>