<?xml version="1.0" encoding="utf-8"?>
<!-- Generator: Adobe Illustrator 19.0.0, SVG Export Plug-In . SVG Version: 6.00 Build 0)  -->
<svg version="1.1" id="Layer_1" xmlns="http://www.w3.org/2000/svg" xmlns:xlink="http://www.w3.org/1999/xlink" x="0px" y="0px"
	 viewBox="-36.5 169.4 503 503" enable-background="new -36.5 169.4 503 503" xml:space="preserve">
<path fill="#FFDA21" d="M127.8,606.8C78.9,578.5-29.8,595.2-29.8,443.7c0-140.4,107.3-85.9,181.6-183.6
	c70.6-92.8,153.4-81.2,176.8-46.5s63.9,119.8,88.6,145.2c24.7,25.3,44.9,87.5,7.3,113.4c-46,31.8-57.3,89-86.7,131.2
	S247.8,676.1,127.8,606.8z"/>
<g>
	<g>
		<path d="M458.3,469.6h-50c-16.8-33.3-41.5-61.7-72.1-82.6l1-3.5c1-3.5,1.5-7.2,1.5-10.8c0-14.4-8-27.6-20.1-34.3l26.5-93.4
			c1.3-4.4-1.2-9-5.6-10.3c-4.3-1.3-8.9,1.3-10.1,5.7L303,333.7c-7.3-0.5-14.5,1.1-21.1,4.8c-7,3.9-12.4,9.8-15.9,16.9
			c-16.7-4.1-33.8-6.1-51.1-6.1c-26.5,0-52.4,4.8-77,14.3c-4.2,1.6-6.3,6.4-4.7,10.7c1.2,3.3,4.3,5.4,7.6,5.4c1,0,1.9-0.2,2.9-0.5
			c22.7-8.8,46.7-13.2,71.2-13.2c15.5,0,30.9,1.8,45.9,5.4l-9.7,34.2c-4.5,3.4-8.4,7.6-11.6,12.4c-2.5,3.8-1.6,9,2.2,11.5
			c3.7,2.6,8.8,1.6,11.3-2.2c2.6-3.9,5.8-7.1,9.7-9.7c5.5-3.7,12-5.7,18.7-5.7c11.8,0,22.6,6.1,28.9,16.2c3.5,5.6,5.3,12,5.3,18.6
			c0,4.6,3.7,8.3,8.2,8.3c4.5,0,8.2-3.7,8.2-8.3c0-8.5-2-16.8-5.9-24.2l5.3-18.7c24,17.4,43.9,39.8,58.3,65.8H105l6-71.1h7.4
			c4.5,0,8.2-3.7,8.2-8.3v-26.7c0-4.6-3.7-8.3-8.2-8.3H114v-5.7c0-29.3-23.5-53.2-52.3-53.2S9.4,320,9.4,349.4v5.7H4.9
			c-4.5,0-8.2,3.7-8.2,8.3v26.7c0,4.6,3.7,8.3,8.2,8.3h7.4l6,71.1h-46.7c-4.5,0-8.2,3.7-8.2,8.3v32.6c0,4.6,3.7,8.3,8.2,8.3h21.6
			v80.3c0,4.6,3.7,8.3,8.2,8.3h427.2c4.5,0,8.2-3.7,8.2-8.3v-60.9c0-4.6-3.7-8.3-8.2-8.3c-4.5,0-8.2,3.7-8.2,8.3v52.6H9.6v-72h40.5
			c4.5,0,8.2-3.7,8.2-8.3c0-4.6-3.7-8.3-8.2-8.3h-70.3v-16h47.4h68.9h354v16H77.3c-4.5,0-8.2,3.7-8.2,8.3c0,4.6,3.7,8.3,8.2,8.3h381
			c4.5,0,8.2-3.7,8.2-8.3v-32.6C466.5,473.3,462.8,469.6,458.3,469.6z M321.6,378.8l-8,28c-8.9-7.5-20.1-11.6-32.1-11.6
			c-3.6,0-7.2,0.4-10.7,1.2l8.5-30c1.6-5.7,5.4-10.5,10.5-13.4c5.1-2.9,11.1-3.6,16.7-1.9c9.4,2.7,15.9,11.6,15.9,21.5
			C322.4,374.7,322.1,376.8,321.6,378.8z M25.8,349.4c0-20.2,16.1-36.6,35.9-36.6s35.9,16.4,35.9,36.6v5.7H25.8V349.4z M88.6,469.6
			H34.8l-6-71.1h66L88.6,469.6z M19.8,381.8h-6.7v-10.1h4.5h88.2h4.5v10.1h-6.7L19.8,381.8L19.8,381.8z"/>
	</g>
</g>
<g>
	<g>
		<path d="M155.9,430.6c-6-4.1-14.1,1.6-12.5,8.7c0.7,3.2,3.3,5.7,6.5,6.4c3.5,0.7,7.1-1.1,8.7-4.3
			C160.5,437.7,159.4,432.9,155.9,430.6z"/>
	</g>
</g>
<g>
	<g>
		<path d="M137.1,423.3c-1.7-3-5.2-4.5-8.5-3.9c-3.8,0.7-6.7,4.2-6.7,8.2c0,7.6,9.6,11.2,14.4,5.4
			C138.5,430.2,138.8,426.3,137.1,423.3z"/>
	</g>
</g>
<g>
	<g>
		<path d="M154.7,402.9c-3.1-2.1-7.3-1.8-10,0.8c-2.6,2.4-3.4,6.4-1.9,9.6c1.4,3.2,4.8,5.1,8.2,4.8c3.3-0.3,6.1-2.7,7-5.9
			C159,408.8,157.7,404.8,154.7,402.9z"/>
	</g>
</g>
<g>
	<g>
		<path d="M270.3,441.1c-3.1,2.7-3.8,7.5-1.5,11c4.1,6.1,13.6,4.1,14.8-3.2C284.9,441.4,276,436.3,270.3,441.1z"/>
	</g>
</g>
<g>
	<g>
		<path d="M242.6,449.4c-2.7,2.8-3.1,7.2-1,10.5c2,3,5.7,4.4,9.1,3.4c3.2-1,5.6-3.9,5.8-7.4C257.1,448.4,247.8,444,242.6,449.4z"/>
	</g>
</g>
</svg>
