<?xml version="1.0" encoding="utf-8"?>
<!-- Generator: Adobe Illustrator 19.0.0, SVG Export Plug-In . SVG Version: 6.00 Build 0)  -->
<svg version="1.1" id="Слой_1" xmlns="http://www.w3.org/2000/svg" xmlns:xlink="http://www.w3.org/1999/xlink" x="0px" y="0px"
	 viewBox="-2 169.4 503 503" enable-background="new -2 169.4 503 503" xml:space="preserve">
<path fill="#FFDA21" d="M157.8,606.8C108.9,578.5,0.2,595.2,0.2,443.7c0-140.4,107.3-85.9,181.6-183.6
	c70.6-92.8,153.4-81.2,176.8-46.5s63.9,119.8,88.6,145.2c24.7,25.3,44.9,87.5,7.3,113.4c-46,31.8-57.3,89-86.7,131.2
	S277.8,676.1,157.8,606.8z"/>
<g>
	<path id="XMLID_19_" d="M484.8,438c-2,0-3.9-0.7-5.3-2.1L263.2,226.2L45.5,436c-2.7,2.6-7.3,2.8-10.2,0.3c-2.9-2.4-3.1-6.6-0.3-9.2
		L258,212.3c1.4-1.3,3.3-2.1,5.3-2.1l0,0c2,0,3.9,0.8,5.3,2.1l221.6,214.8c2.7,2.6,2.5,6.7-0.3,9.2C488.4,437.4,486.6,438,484.8,438
		z"/>
	<path id="XMLID_3_" d="M484.8,416c-2,0-3.9-0.7-5.3-2.1L352.3,290.6c-2.7-2.6-2.5-6.7,0.3-9.2c2.9-2.4,7.5-2.3,10.2,0.3L490.1,405
		c2.7,2.6,2.5,6.7-0.3,9.2C488.4,415.3,486.6,416,484.8,416z"/>
	<path id="XMLID_5_" d="M40.2,416c-1.8,0-3.6-0.6-4.9-1.8c-2.9-2.4-3.1-6.6-0.3-9.2L258,190.2c1.4-1.3,3.3-2.1,5.3-2.1l0,0
		c2,0,3.9,0.8,5.3,2.1l75.3,73c2.7,2.6,2.5,6.7-0.3,9.2c-2.9,2.4-7.5,2.3-10.2-0.3l-70.1-67.9L45.5,413.9
		C44.1,415.3,42.1,416,40.2,416z"/>
	<path id="XMLID_6_" d="M334.9,292.6H191.2c-4,0-7.2-2.9-7.2-6.5c0-3.6,3.2-6.5,7.2-6.5h143.7c4,0,7.2,2.9,7.2,6.5
		C342.1,289.7,338.9,292.6,334.9,292.6z"/>
	<path id="XMLID_7_" d="M98.6,646.4c-4,0-7.1-2.9-7.1-6.4V377.9c0-3.6,3.2-6.4,7.1-6.4c3.9,0,7.1,2.9,7.1,6.4v262
		C105.8,643.5,102.6,646.4,98.6,646.4z"/>
	<path id="XMLID_17_" d="M315.3,652H77.5c-4,0-7.2-2.9-7.2-6.5s3.2-6.5,7.2-6.5h237.8c4,0,7.2,2.9,7.2,6.5S319.3,652,315.3,652z"/>
	<path id="XMLID_8_" d="M439.5,652h-92.3c-4,0-7.2-2.9-7.2-6.5s3.2-6.5,7.2-6.5h92.3c4,0,7.2,2.9,7.2,6.5S443.5,652,439.5,652z"/>
	<path id="XMLID_9_" d="M426.8,646.4c-4,0-7.1-2.9-7.1-6.4V377.9c0-3.6,3.2-6.4,7.1-6.4s7.1,2.9,7.1,6.4v262
		C434,643.5,430.7,646.4,426.8,646.4z"/>
	<path id="XMLID_10_" d="M359,649.7c-0.9,0-2-0.2-2.9-0.5c-3.6-1.5-5.3-5.3-3.7-8.6l110.3-226.8c1.6-3.3,5.9-4.8,9.5-3.4
		c3.6,1.5,5.3,5.3,3.7,8.6L365.6,645.8C364.4,648.2,361.7,649.7,359,649.7z"/>
	<path id="XMLID_11_" d="M168.3,649.7c-2.8,0-5.4-1.5-6.6-3.9L51.3,417.1c-1.6-3.3,0.1-7.1,3.7-8.6s7.9,0.1,9.5,3.4l110.4,228.7
		c1.6,3.3-0.1,7.1-3.7,8.6C170.2,649.5,169.2,649.7,168.3,649.7z"/>
	<path id="XMLID_12_" d="M330.1,519.6H196.4c-4,0-7.2-2.9-7.2-6.5c0-3.6,3.2-6.5,7.2-6.5h133.7c4,0,7.2,2.9,7.2,6.5
		C337.3,516.7,334.1,519.6,330.1,519.6z"/>
	<path id="XMLID_13_" d="M263.3,649.7c-4,0-7.2-2.9-7.2-6.5V528.9c0-3.6,3.2-6.5,7.2-6.5s7.2,2.9,7.2,6.5v114.3
		C270.5,646.8,267.3,649.7,263.3,649.7z"/>
	<path id="XMLID_14_" d="M426.8,573.4h-77.7c-4,0-7.2-2.9-7.2-6.5s3.2-6.5,7.2-6.5h77.7c4,0,7.2,2.9,7.2,6.5
		S430.8,573.4,426.8,573.4z"/>
	<path id="XMLID_15_" d="M409.4,587.5h-47.7c-3.4,0-6.2-2.5-6.2-5.6c0-3.1,2.8-5.6,6.2-5.6h47.7c3.4,0,6.2,2.5,6.2,5.6
		C415.6,585,412.8,587.5,409.4,587.5z"/>
	<path id="XMLID_16_" d="M177.4,573.6H98.6c-4,0-7.2-2.9-7.2-6.5s3.2-6.5,7.2-6.5h78.8c4,0,7.2,2.9,7.2,6.5S181.4,573.6,177.4,573.6
		z"/>
	<path id="XMLID_18_" d="M168.3,588.3h-52.4c-3.5,0-6.3-2.5-6.3-5.7c0-3.1,2.8-5.7,6.3-5.7h52.4c3.5,0,6.3,2.5,6.3,5.7
		C174.6,585.8,171.8,588.3,168.3,588.3z"/>
</g>
</svg>
