<?xml version="1.0" encoding="utf-8"?>
<!-- Generator: Adobe Illustrator 19.0.0, SVG Export Plug-In . SVG Version: 6.00 Build 0)  -->
<svg version="1.1" id="Layer_1" xmlns="http://www.w3.org/2000/svg" xmlns:xlink="http://www.w3.org/1999/xlink" x="0px" y="0px"
	 viewBox="-36.5 169.4 503 503" enable-background="new -36.5 169.4 503 503" xml:space="preserve">
<path fill="#FFDA21" d="M126.9,606.6C78,578.3-30.7,595-30.7,443.5c0-140.4,107.3-85.9,181.6-183.6c70.6-92.8,153.4-81.2,176.8-46.5
	c23.4,34.7,63.9,119.8,88.6,145.2c24.7,25.3,44.9,87.5,7.3,113.4c-46,31.8-57.3,89-86.7,131.2S246.9,675.9,126.9,606.6z"/>
<g>
	<g>
		<path d="M436.3,561.1c12.5-8,20.8-22,20.8-37.9c0-24.8-20.2-45-45-45h-99v-30.8c0-12.3-10-22.3-22.3-22.3h-50.4l-48.6-41.7
			c0-0.2,0-0.4,0-0.6v-80h38.4c4.5,0,8-4.4,6.9-8.8l-7.6-30.3c-0.5-1.9-1.8-3.6-3.6-4.5l-113.7-60.7c-2.1-1.1-4.8-1.1-6.9,0.1
			L-0.8,259.3c-1.7,1-2.9,2.6-3.4,4.4l-7.6,30.3c-1.1,4.4,2.3,8.8,6.9,8.8h38.4v175.3H17.9c-24.8,0-45,20.2-45,45
			c0,15.9,8.3,29.9,20.8,37.9c-12.5,8-20.8,22-20.8,37.9c0,24.8,20.2,45,45,45h347.3c3.9,0,7.1-3.2,7.1-7.1c0-3.9-3.2-7.1-7.1-7.1
			h-37v-61.6h0.5h75.8h7.6c17,0,30.8,13.8,30.8,30.8c0,17-13.8,30.8-30.8,30.8h-22.7c-3.9,0-7.1,3.2-7.1,7.1c0,3.9,3.2,7.1,7.1,7.1
			h22.7c24.8,0,45-20.2,45-45C457.1,583.1,448.8,569.2,436.3,561.1z M233.1,437.7c1.3,1.1,2.9,1.7,4.6,1.7h53.1
			c4.4,0,8.1,3.6,8.1,8.1v30.8h-58.5l-101.7-87.1v-34.3L233.1,437.7z M218.5,478.2h-26.7v-22.9L218.5,478.2z M78.5,447.9H48.2
			c-0.2,0-0.3,0-0.5,0v-16.1H79v16.1C78.8,447.9,78.7,447.9,78.5,447.9z M79,462.1v16.1H47.7v-16.1c0.2,0,0.3,0,0.5,0h30.3
			C78.7,462.1,78.8,462.1,79,462.1z M47.7,417.6v-16.1H79v16.1H47.7z M47.7,387.2v-38.9h76.8v38.9H47.7z M47.7,334.2v-31.3h129.8v0
			v68.4l-41.3-35.4c-1.3-1.1-2.9-1.7-4.6-1.7L47.7,334.2L47.7,334.2z M93.2,401.5H129l48.6,41.6v35.1H93.2V401.5z M221.1,288.7
			h-44.4v-16.1H217L221.1,288.7z M194.2,258.4h-21.7l-24.8-24.8L194.2,258.4z M109.2,215.2l43.1,43.1h-39.7c-3.9,0-7.1,3.2-7.1,7.1
			s3.2,7.1,7.1,7.1h49.8v16.1H62.9v-16.1h23.2c3.9,0,7.1-3.2,7.1-7.1s-3.2-7.1-7.1-7.1H71.5L109.2,215.2z M75.6,232l-23.1,26.4H29.5
			L75.6,232z M4.2,288.7l4-16.1h40.4v16.1H4.2z M-12.9,523.2c0-17,13.8-30.8,30.8-30.8h0.5V554h-0.5C0.9,554-12.9,540.2-12.9,523.2z
			 M94.2,629.9H17.9c-17,0-30.8-13.8-30.8-30.8s13.8-30.8,30.8-30.8h76.3L94.2,629.9L94.2,629.9z M94.2,554H32.6v-61.6h61.6V554z
			 M170,629.9h-61.6v-61.6H170V629.9z M238.2,629.9h-54v-61.6h54V629.9z M314,629.9h-61.6v-61.6H314L314,629.9L314,629.9z
			 M321.6,554h-0.5H108.4v-61.6h213.2V554z M397.4,554h-61.6v-61.6h61.6V554z M412.1,554h-0.5v-61.6h0.5c17,0,30.8,13.8,30.8,30.8
			C442.9,540.2,429.1,554,412.1,554z"/>
	</g>
</g>
</svg>
