<?xml version="1.0" encoding="utf-8"?>
<!-- Generator: Adobe Illustrator 19.0.0, SVG Export Plug-In . SVG Version: 6.00 Build 0)  -->
<svg version="1.1" id="Capa_1" xmlns="http://www.w3.org/2000/svg" xmlns:xlink="http://www.w3.org/1999/xlink" x="0px" y="0px"
	 viewBox="121 -101 502.6 463" enable-background="new 121 -101 502.6 463" xml:space="preserve">
<path fill="#FFDA21" d="M278.6,318.6C229.6,290.3,121,307,121,155.5c0-140.4,107.3-85.9,181.6-183.6
	c70.6-92.8,153.4-81.2,176.8-46.5S543.3,45.2,568,70.6c24.7,25.3,44.9,87.5,7.3,113.4c-46,31.8-57.3,89-86.7,131.2
	S398.6,387.9,278.6,318.6z"/>
<g>
	<g>
		<g>
			<path d="M572.7,197.5h-7.8V197c0-11.9-9.7-21.6-21.6-21.6H395.7V-16.3c0-11.9-9.7-21.6-21.6-21.6c-11.9,0-21.6,9.7-21.6,21.6v103
				c0,3.8,3.1,6.9,6.9,6.9c3.8,0,6.9-3.1,6.9-6.9V20h15.6v155.4h-15.6v-51.9c0-3.8-3.1-6.9-6.9-6.9s-6.9,3.1-6.9,6.9v51.9H204.9
				c-11.9,0-21.6,9.7-21.6,21.6v0.5h-7.8c-11.9,0-21.6,9.7-21.6,21.6v88.3c0,11.9,9.7,21.6,21.6,21.6h7.8v0.5
				c0,11.9,9.7,21.6,21.6,21.6h338.4c11.9,0,21.6-9.7,21.6-21.6v-0.5h7.8c11.9,0,21.6-9.7,21.6-21.6v-88.3
				C594.3,207.1,584.6,197.5,572.7,197.5z M366.3,6.2v-22.5c0-4.3,3.5-7.8,7.8-7.8s7.8,3.5,7.8,7.8V6.2H366.3z M197.1,197
				c0-4.3,3.5-7.8,7.8-7.8h338.4c4.3,0,7.8,3.5,7.8,7.8v0.5h-354V197z M580.5,307.3c0,4.3-3.5,7.8-7.8,7.8H307.9
				c-3.8,0-6.9,3.1-6.9,6.9s3.1,6.9,6.9,6.9h243.2v0.5c0,4.3-3.5,7.8-7.8,7.8H204.9c-4.3,0-7.8-3.5-7.8-7.8v-0.5h74
				c3.8,0,6.9-3.1,6.9-6.9s-3.1-6.9-6.9-6.9h-95.6c-4.3,0-7.8-3.5-7.8-7.8v-88.3c0-4.3,3.5-7.8,7.8-7.8h397.2c4.3,0,7.8,3.5,7.8,7.8
				L580.5,307.3L580.5,307.3z"/>
		</g>
	</g>
	<g>
		<g>
			<path d="M533.8,239.2c-2.5-2.9-6.9-3.1-9.7-0.6c-2.9,2.5-3.1,6.9-0.6,9.7c3.6,4.1,5.6,9.4,5.6,14.9c0,12.4-10.1,22.5-22.5,22.5
				c-12.4,0-22.5-10.1-22.5-22.5c0-5.5,2-10.8,5.6-14.9c2.5-2.9,2.2-7.2-0.6-9.7c-2.9-2.5-7.2-2.2-9.7,0.6c-5.9,6.6-9.1,15.2-9.1,24
				c0,20,16.3,36.3,36.3,36.3c20,0,36.3-16.3,36.3-36.3C542.8,254.3,539.6,245.8,533.8,239.2z"/>
		</g>
	</g>
	<g>
		<g>
			<path d="M506.5,226.9c-3.8,0-6.9,3.1-6.9,6.9v29.4c0,3.8,3.1,6.9,6.9,6.9s6.9-3.1,6.9-6.9v-29.4
				C513.4,230,510.3,226.9,506.5,226.9z"/>
		</g>
	</g>
	<g>
		<g>
			<path d="M227,241.6c-11.9,0-21.6,9.7-21.6,21.6c0,11.9,9.7,21.6,21.6,21.6c11.9,0,21.6-9.7,21.6-21.6
				C248.6,251.3,238.9,241.6,227,241.6z M227,271c-4.3,0-7.8-3.5-7.8-7.8s3.5-7.8,7.8-7.8c4.3,0,7.8,3.5,7.8,7.8S231.3,271,227,271z
				"/>
		</g>
	</g>
	<g>
		<g>
			<path d="M285.9,241.6c-11.9,0-21.6,9.7-21.6,21.6c0,11.9,9.7,21.6,21.6,21.6c11.9,0,21.6-9.7,21.6-21.6
				C307.5,251.3,297.8,241.6,285.9,241.6z M285.9,271c-4.3,0-7.8-3.5-7.8-7.8s3.5-7.8,7.8-7.8c4.3,0,7.8,3.5,7.8,7.8
				S290.2,271,285.9,271z"/>
		</g>
	</g>
	<g>
		<g>
			<path d="M344.7,241.6c-11.9,0-21.6,9.7-21.6,21.6c0,11.9,9.7,21.6,21.6,21.6s21.6-9.7,21.6-21.6
				C366.3,251.3,356.6,241.6,344.7,241.6z M344.7,271c-4.3,0-7.8-3.5-7.8-7.8s3.5-7.8,7.8-7.8s7.8,3.5,7.8,7.8S349,271,344.7,271z"
				/>
		</g>
	</g>
	<g>
		<g>
			<path d="M431.6-58.1c-1.9-3.3-6.1-4.4-9.4-2.5c-3.3,1.9-4.4,6.1-2.5,9.4c3.3,5.6,5,12.1,5,18.6s-1.7,13-5,18.6
				c-1.9,3.3-0.8,7.5,2.5,9.4c3.3,1.9,7.5,0.7,9.4-2.5c4.5-7.7,6.8-16.6,6.8-25.5S436.1-50.4,431.6-58.1z"/>
		</g>
	</g>
	<g>
		<g>
			<path d="M457.1-72.8c-1.9-3.3-6.1-4.4-9.4-2.5c-3.3,1.9-4.4,6.1-2.5,9.4c5.8,10.1,8.9,21.6,8.9,33.3c0,11.7-3.1,23.2-8.9,33.3
				c-1.7,3-0.9,6.9,1.9,9c3.3,2.4,8,1.4,10.1-2.1c7-12.2,10.8-26.1,10.8-40.2C467.8-46.8,464.1-60.7,457.1-72.8z"/>
		</g>
	</g>
	<g>
		<g>
			<path d="M482.6-87.6c-1.9-3.3-6.1-4.4-9.4-2.5c-3.3,1.9-4.4,6.1-2.5,9.4c8.4,14.5,12.9,31.1,12.9,48c0,17.5-4.7,34.6-13.7,49.5
				c-2,3.3-0.9,7.5,2.3,9.5c3.2,1.9,7.5,0.9,9.5-2.3c10.3-17,15.7-36.6,15.7-56.6C497.3-51.9,492.2-70.9,482.6-87.6z"/>
		</g>
	</g>
	<g>
		<g>
			<path d="M323.6-32.6c0-6.5,1.7-13,5-18.6c1.9-3.3,0.8-7.5-2.5-9.4c-3.3-1.9-7.5-0.8-9.4,2.5c-4.5,7.7-6.8,16.5-6.8,25.5
				c0,9,2.4,17.8,6.8,25.5c1.3,2.2,3.6,3.4,6,3.4c5.2,0,8.6-5.8,6-10.4C325.3-19.6,323.6-26.1,323.6-32.6z"/>
		</g>
	</g>
	<g>
		<g>
			<path d="M294.2-32.6c0-11.7,3.1-23.2,8.9-33.3c1.9-3.3,0.8-7.5-2.5-9.4c-3.3-1.9-7.5-0.8-9.4,2.5c-7,12.2-10.8,26.1-10.8,40.2
				c0,14.1,3.7,28.1,10.8,40.2c1.3,2.2,3.6,3.4,6,3.4c5.2,0,8.6-5.8,6-10.3C297.3-9.4,294.2-20.9,294.2-32.6z"/>
		</g>
	</g>
	<g>
		<g>
			<path d="M278.5,16.9c-9-14.9-13.7-32-13.7-49.5c0-16.9,4.4-33.5,12.9-48c1.9-3.3,0.8-7.5-2.5-9.4c-3.3-1.9-7.5-0.8-9.4,2.5
				C256.1-70.9,251-51.9,251-32.6c0,20,5.4,39.6,15.7,56.6c1.3,2.1,3.6,3.3,5.9,3.3C277.9,27.4,281.2,21.4,278.5,16.9z"/>
		</g>
	</g>
</g>
</svg>
