<?xml version="1.0" encoding="utf-8"?>
<!-- Generator: Adobe Illustrator 19.0.0, SVG Export Plug-In . SVG Version: 6.00 Build 0)  -->
<svg version="1.1" id="Capa_1" xmlns="http://www.w3.org/2000/svg" xmlns:xlink="http://www.w3.org/1999/xlink" x="0px" y="0px"
	 viewBox="-105.6 189.9 502.6 463" enable-background="new -105.6 189.9 502.6 463" xml:space="preserve">
<path fill="#FFDA21" d="M52,608.8C3,580.5-105.6,597.2-105.6,445.7c0-140.4,107.3-85.9,181.6-183.6c70.6-92.8,153.4-81.2,176.8-46.5
	s63.9,119.8,88.6,145.2c24.7,25.3,44.9,87.5,7.3,113.4c-46,31.8-57.3,89-86.7,131.2S172,678.1,52,608.8z"/>
<g>
	<path d="M389.5,620c-13.6,0-20.9,5.2-26.7,9.4c-5.2,3.7-9.2,6.6-18,6.6c-8.8,0-12.9-2.9-18-6.6c-5.9-4.2-13.1-9.4-26.7-9.4
		c-13.6,0-20.9,5.2-26.8,9.4c-5.2,3.7-9.2,6.6-18,6.6s-12.9-2.9-18-6.6c-5.9-4.2-13.2-9.4-26.8-9.4s-20.9,5.2-26.8,9.4
		c-5.2,3.7-9.2,6.6-18,6.6c-0.2,0-0.4,0-0.6,0c0-0.2,0-0.3,0-0.5v-77.6l161,47c5.1,1.5,10.3,2.2,15.5,2.2c24.5,0,46.4-16.5,53.3-40
		c0.1-0.2,0.1-0.4,0.1-0.5c0.9-3.9-1.3-7.8-5.2-9l-69.3-20.2c-21.3-6.2-33.7-28.6-27.6-50c1.1-4-1.2-8.1-5.1-9.3l-42.1-12.3
		c13.9-6.7,24.8-19.1,29.2-34.5c7.7-26.5-5.4-54.2-29.6-65.6c15.6-7.4,27.4-22,30.8-39.9c5.3-27.7-12.6-55.9-40.8-64.1L-3.4,192.4
		c-8.2-2.4-16.8,2.4-19.2,10.6l-22.3,76.8c-1.2,4-0.7,8.2,1.3,11.8c2,3.6,5.3,6.3,9.3,7.4l39.1,11.4c-0.7,0.3-1.4,0.7-2,1.1
		c-13,7.1-22.4,18.9-26.6,33.2c-7.7,26.6,5.4,54.3,29.7,65.7c-1.1,0.5-2.1,1-3.1,1.6c-13,7.1-22.4,18.9-26.6,33.2v0
		c-8.5,29.4,8.4,60.2,37.8,68.8l104,30.4v75.9c-11.8,0.7-18.5,5.4-24,9.3c-5.2,3.7-9.2,6.6-18,6.6c-8.8,0-12.9-2.9-18.1-6.6
		c-5.9-4.2-13.2-9.4-26.8-9.4c-13.6,0-20.9,5.2-26.8,9.4c-5.2,3.7-9.3,6.6-18.1,6.6s-12.9-2.9-18.1-6.6c-5.9-4.2-13.2-9.4-26.8-9.4
		c-4.1,0-7.5,3.4-7.5,7.5c0,4.1,3.4,7.5,7.5,7.5c8.8,0,12.9,2.9,18.1,6.6c5.9,4.2,13.2,9.4,26.8,9.4s20.9-5.2,26.8-9.4
		c5.2-3.7,9.3-6.6,18.1-6.6c8.8,0,12.9,2.9,18.1,6.6c5.9,4.2,13.2,9.4,26.8,9.4c13.6,0,20.9-5.2,26.8-9.4c5.2-3.7,9.2-6.6,18-6.6
		c8.8,0,12.9,2.9,18,6.6c5.9,4.2,13.2,9.4,26.8,9.4c13.6,0,20.9-5.2,26.8-9.4c5.2-3.7,9.2-6.6,18-6.6s12.9,2.9,18,6.6
		c5.9,4.2,13.2,9.4,26.8,9.4c13.6,0,20.9-5.2,26.8-9.4c5.2-3.7,9.2-6.6,18-6.6c8.8,0,12.9,2.9,18,6.6c5.9,4.2,13.1,9.4,26.7,9.4
		c13.6,0,20.9-5.2,26.7-9.4c5.2-3.7,9.2-6.6,18-6.6c4.1,0,7.5-3.4,7.5-7.5C397,623.3,393.6,620,389.5,620z M261.3,322.9
		c-3.7,19.2-20.4,33.1-39.8,33.1c-3.8,0-7.6-0.5-11.3-1.6L1.7,293.8L24.2,216l206.8,60C251.9,282.1,265.2,302.7,261.3,322.9z
		 M-30.5,284L-30.5,284l22.3-76.8c0.1-0.2,0.3-0.4,0.5-0.4c0,0,0.1,0,0.1,0l17.4,5l-22.6,77.8l-17.4-5
		C-30.4,284.5-30.5,284.3-30.5,284z M-9.4,348.8c3-10.4,9.9-19,19.4-24.2c6.1-3.3,12.7-5,19.4-5c3.8,0,7.6,0.5,11.3,1.6l192,55.7
		c21.4,6.2,33.8,28.7,27.6,50.2c-5,17.2-21,29.2-38.9,29.2c-3.8,0-7.6-0.5-11.3-1.6L18.2,399C-3.3,392.7-15.6,370.2-9.4,348.8z
		 M-9.4,449.2c3-10.4,9.9-19,19.4-24.2c9.5-5.2,20.4-6.4,30.8-3.4l236,68.9c-3.9,26.9,12.6,53.4,39.4,61.2l61.4,17.9
		c-6.8,13.5-20.8,22.4-36.2,22.4c-3.8,0-7.6-0.5-11.3-1.6l-312-91.1C-3.3,493.2-15.6,470.7-9.4,449.2z M133,621.7v-73.1l17,5v77.6
		c-0.8-0.5-1.6-1.1-2.4-1.7C143.8,626.7,139.3,623.5,133,621.7z"/>
	<path d="M43.4,254.9l12.9,3.8c0.7,0.2,1.4,0.3,2.1,0.3c3.3,0,6.2-2.1,7.2-5.4c1.2-4-1.1-8.1-5.1-9.3l-12.9-3.8
		c-4-1.2-8.1,1.1-9.3,5.1C37.1,249.6,39.4,253.8,43.4,254.9z"/>
	<path d="M91.4,268.9l32,9.3c0.7,0.2,1.4,0.3,2.1,0.3c3.3,0,6.2-2.1,7.2-5.4c1.2-4-1.1-8.1-5.1-9.3l-32-9.3c-4-1.2-8.1,1.1-9.3,5.1
		C85.1,263.6,87.4,267.7,91.4,268.9z"/>
	<path d="M75.4,364.5l72,20.9c0.7,0.2,1.4,0.3,2.1,0.3c3.3,0,6.2-2.1,7.2-5.4c1.2-4-1.1-8.1-5.1-9.3l-72-20.9
		c-4-1.2-8.1,1.1-9.3,5.1C69.1,359.2,71.4,363.4,75.4,364.5z"/>
	<path d="M31.8,351.9l11.6,3.4c0.7,0.2,1.4,0.3,2.1,0.3c3.3,0,6.2-2.1,7.2-5.4c1.2-4-1.1-8.1-5.1-9.3L36,337.5
		c-4-1.2-8.1,1.1-9.3,5.1C25.6,346.6,27.9,350.7,31.8,351.9z"/>
	<path d="M191.6,483.4l-112-32.7c-4-1.2-8.1,1.1-9.3,5.1c-1.2,4,1.1,8.1,5.1,9.3l112,32.7c0.7,0.2,1.4,0.3,2.1,0.3
		c3.2,0,6.2-2.1,7.2-5.4C197.9,488.7,195.6,484.5,191.6,483.4z"/>
	<path d="M47.6,441.3L36,437.9c-4-1.2-8.1,1.1-9.3,5.1c-1.2,4,1.1,8.1,5.1,9.3l11.6,3.4c0.7,0.2,1.4,0.3,2.1,0.3
		c3.2,0,6.2-2.1,7.2-5.4C53.9,446.7,51.6,442.5,47.6,441.3z"/>
</g>
</svg>
