<?xml version="1.0" encoding="utf-8"?>
<!-- Generator: Adobe Illustrator 19.0.0, SVG Export Plug-In . SVG Version: 6.00 Build 0)  -->
<svg version="1.1" id="Capa_1" xmlns="http://www.w3.org/2000/svg" xmlns:xlink="http://www.w3.org/1999/xlink" x="0px" y="0px"
	 viewBox="-60.5 169.4 503 503" enable-background="new -60.5 169.4 503 503" xml:space="preserve">
<path fill="#FFDA21" d="M102.4,606.1C53.5,577.8-55.2,594.5-55.2,443c0-140.4,107.3-85.9,181.6-183.6
	c70.6-92.8,153.4-81.2,176.8-46.5c23.4,34.7,63.9,119.8,88.6,145.2c24.7,25.3,44.9,87.5,7.3,113.4c-46,31.8-57.3,89-86.7,131.2
	S222.4,675.4,102.4,606.1z"/>
<g>
	<path d="M170.5,542.5h-31.9c-3.5,0-6.5-2.4-7.3-5.8l-29.8-123.2c-3.5-14.2-6.5-27.4-9.2-40.2c-3,12.8-6.5,25.9-10.7,40.5L47.9,537
		c-0.9,3.3-3.9,5.5-7.3,5.5H8.7c-3.4,0-6.5-2.3-7.3-5.7l-60-236.5c-0.6-2.3-0.1-4.6,1.4-6.5c1.4-1.8,3.6-2.9,5.9-2.9H-19
		c3.5,0,6.5,2.4,7.3,5.8l28.1,119.7c3.8,16,7.5,32.2,10.7,47.4c3.7-15.6,8-31.9,12.3-48l31.6-119.3c0.9-3.3,3.9-5.6,7.3-5.6h31.9
		c3.5,0,6.5,2.4,7.3,5.8l28.8,120c3.6,15,7.1,30.4,10.2,45.4c3.2-13.6,6.6-27.5,10.2-41.8l1.1-4.4L199,296.6
		c0.9-3.3,3.9-5.6,7.3-5.6h31.2c2.4,0,4.6,1.1,6,3c1.4,1.9,1.9,4.3,1.2,6.6l-67,236.5C176.8,540.3,173.9,542.5,170.5,542.5z
		 M144.5,527.5h20.3L227.6,306h-15.5l-29.8,113.7l-1.1,4.3c-7,28.2-13.1,52.5-17.8,76.9c-0.7,3.6-3.8,6.1-7.4,6.1h-0.7
		c-3.8,0-6.9-2.8-7.5-6.5c-3.5-24.8-9.9-53.3-16.4-80.4L104.2,306H84L53.9,419.7c-7.5,28.4-15.3,57.7-19.2,81.4
		c-0.6,3.6-3.7,6.3-7.4,6.3h-0.7c-3.6,0-6.7-2.6-7.4-6.2C15,478.6,8.6,448.9,1.7,419.9L-25,306h-16.6l56.2,221.5h20.3l32.2-117.6
		c8.2-28.5,13.6-51.3,18.1-76.6c0.6-3.6,3.8-6.2,7.4-6.2h0.7c3.8,0,7,2.8,7.5,6.5c3.3,25,8.5,48.6,15.3,76.4L144.5,527.5z"/>
	<path d="M369.8,546.1c-35.8,0-66.5-11.4-88.7-32.9c-23.4-22.6-35.7-55.3-35.7-94.3c0-38.3,12.6-71.3,36.5-95.2
		c23.8-23.9,56.5-36.6,94.6-36.6c35.1,0,54.5,8.7,59.6,11.4c3.2,1.7,4.8,5.4,3.7,8.8l-7.4,24.9c-0.6,2.1-2.2,3.9-4.2,4.8
		c-2,0.9-4.3,0.9-6.3-0.1c-12.1-5.9-27.9-9.1-44.4-9.1c-53.1,0-84.8,33.7-84.8,90c0,54.8,31.2,87.6,83.4,87.6
		c17.2,0,35-3.5,46.5-9.1c2-1,4.4-1,6.4-0.1c2,0.9,3.6,2.8,4.1,4.9l6.3,24.2c0.9,3.4-0.7,7-3.9,8.6
		C424.1,539.8,400.7,546.1,369.8,546.1z M376.5,302.1c-69.4,0-116,46.9-116,116.7c0,69.2,41.9,112.1,109.3,112.1
		c23.7,0,42.4-4,53.5-8.1l-2.5-9.6c-12.8,4.5-29.1,7.1-44.7,7.1c-60.7,0-98.4-39.3-98.4-102.6c0-32.1,9.5-58.8,27.5-77.3
		c17.6-18.2,42.7-27.8,72.3-27.8c15.4,0,30.3,2.5,42.9,7.1l3.1-10.5C415.6,306.3,400.3,302.1,376.5,302.1z"/>
</g>
</svg>
