<?xml version="1.0" encoding="utf-8"?>
<!-- Generator: Adobe Illustrator 19.0.0, SVG Export Plug-In . SVG Version: 6.00 Build 0)  -->
<svg version="1.1" id="Layer_1" xmlns="http://www.w3.org/2000/svg" xmlns:xlink="http://www.w3.org/1999/xlink" x="0px" y="0px"
	 viewBox="-36.5 169.4 503 503" enable-background="new -36.5 169.4 503 503" xml:space="preserve">
<path fill="#FFDA21" d="M122.1,617.3C73.2,589-35.5,605.7-35.5,454.2c0-140.4,107.3-85.9,181.6-183.6
	c70.6-92.8,153.4-81.2,176.8-46.5c23.3,34.7,63.9,119.8,88.6,145.2c24.7,25.3,44.9,87.5,7.3,113.4c-46,31.8-57.3,89-86.7,131.2
	C302.8,656.2,242.1,686.6,122.1,617.3z"/>
<g>
	<g>
		<path d="M390.9,261.6c-43.3-43.3-100.9-67.1-162.1-67.1s-118.8,23.8-162.1,67.1C23.3,304.9-0.5,362.5-0.5,423.7
			s23.8,118.8,67.1,162.1c43.3,43.3,100.9,67.1,162.1,67.1s118.8-23.8,162.1-67.1C434.2,542.5,458,485,458,423.7
			S434.2,304.9,390.9,261.6z M376.3,266.6l-38,38c-3.1-1-6.4-1.6-9.9-1.6h-50.6l24.4-82C330,231.1,355.1,246.8,376.3,266.6z
			 M317.7,384.1c16,0.2,31.7,0.4,46.7,0.7c4.8,25.7,4.8,52.1,0,77.8c-121.1,2.5-241.6,0.5-271.3,0c-4.8-25.7-4.8-52.1,0-77.8
			c20.1-0.4,78.9-1.3,151.5-1.2c0,0,0,0,0,0c3.8,0,6.8-3,6.8-6.8c0-3.8-3-6.8-6.8-6.8c-69.1-0.1-125.8,0.8-148.5,1.2
			c4-15.5,9.7-30.7,17.3-45.2c3-5.8,9-9.4,15.6-9.4h199.3c6.6,0,12.6,3.6,15.6,9.4c7.6,14.5,13.3,29.7,17.3,45.2
			c-14-0.3-28.6-0.5-43.5-0.7c-3.8-0.1-6.8,3-6.9,6.7C310.9,380.9,313.9,384,317.7,384.1z M361.4,476.3c-4,15.5-9.7,30.7-17.3,45.2
			c-3,5.8-9,9.4-15.6,9.4H129.1c-6.6,0-12.6-3.6-15.6-9.4c-7.6-14.5-13.3-29.7-17.3-45.2c21.3,0.4,73.7,1.2,138.2,1.2
			C273.6,477.5,317.4,477.2,361.4,476.3z M228.8,208.1c21,0,41.4,3,60.6,8.7L263.6,303h-72.4L172,233.8c-1-3.6-4.8-5.7-8.4-4.7
			c-3.6,1-5.7,4.8-4.7,8.4l18.3,65.5h-48c-3.8,0-7.6,0.7-11,2l-36.9-38.3C119.8,230.4,171.7,208.1,228.8,208.1z M13.1,423.7
			c0-57,22.2-108.8,58.4-147.4l34.9,36.3c-2,2.1-3.7,4.4-5.1,7.1c-34,65.2-34,143,0,208.2c1.5,2.9,3.5,5.6,5.8,7.8l-35.6,35.6
			C35.4,532.6,13.1,480.7,13.1,423.7z M81.2,580.9l38-38c3.1,1,6.4,1.6,9.9,1.6h50.5l-25,81.7C127.1,616.1,102.2,600.5,81.2,580.9z
			 M228.8,639.4c-21.3,0-41.8-3.1-61.3-8.9l26.4-86h69.8L285,614c2.6,6.3,7.8,4.7,8.5,4.5c3.6-1.1,5.6-4.9,4.5-8.5l-20.1-65.5h50.5
			c3.4,0,6.7-0.6,9.9-1.6l38,38C337.7,617.1,285.8,639.4,228.8,639.4z M385.9,571.2l-35.6-35.6c2.3-2.2,4.3-4.9,5.8-7.8
			c34-65.2,34-143,0-208.2c-1.5-2.9-3.5-5.6-5.8-7.8l35.6-35.6c36.3,38.6,58.5,90.5,58.5,147.5C444.4,480.7,422.1,532.6,385.9,571.2
			z"/>
	</g>
</g>
<g>
	<g>
		<path d="M292.7,370.2c-7.6-0.1-15-0.1-22.4-0.1c0,0,0,0,0,0c-3.7,0-6.8,3-6.8,6.8c0,3.8,3,6.8,6.8,6.8c7.4,0,14.8,0.1,22.4,0.1
			c0,0,0,0,0.1,0c3.7,0,6.8-3,6.8-6.8C299.4,373.3,296.4,370.2,292.7,370.2z"/>
	</g>
</g>
<g>
	<g>
		<path d="M430.3,409.6c-0.3-3.8-3.5-6.6-7.3-6.3c-3.8,0.3-6.6,3.5-6.3,7.3c0.3,4.4,0.5,8.8,0.5,13.2c0,3.8,3,6.8,6.8,6.8
			c3.8,0,6.8-3,6.8-6.8C430.8,419,430.6,414.3,430.3,409.6z"/>
	</g>
</g>
<g>
	<g>
		<path d="M423.4,439.7c-3.7-0.4-7.1,2.2-7.5,6c-2.5,21.6-9.8,41.9-18.3,61.8c-3.2,7.5,5.1,9.8,6.1,9.8c2.5,0,4.9-1.4,6.1-3.8
			c10.3-20.8,16.9-43.1,19.6-66.3C429.8,443.5,427.2,440.1,423.4,439.7z"/>
	</g>
</g>
</svg>
