<?xml version="1.0" encoding="utf-8"?>
<!-- Generator: Adobe Illustrator 19.0.0, SVG Export Plug-In . SVG Version: 6.00 Build 0)  -->
<svg version="1.1" id="Capa_1" xmlns="http://www.w3.org/2000/svg" xmlns:xlink="http://www.w3.org/1999/xlink" x="0px" y="0px"
	 viewBox="-84.5 169.4 503 503" enable-background="new -84.5 169.4 503 503" xml:space="preserve">
<path fill="#FFDA21" d="M78.9,606.6C30,578.3-78.8,595-78.8,443.5c0-140.4,107.3-85.9,181.6-183.6c70.6-92.8,153.4-81.2,176.8-46.5
	c23.4,34.7,63.9,119.8,88.6,145.2c24.7,25.3,44.9,87.5,7.3,113.4c-46,31.8-57.3,89-86.7,131.2S198.9,675.9,78.9,606.6z"/>
<path d="M391.5,370.7c-13.6-46.8-42.9-89-82.7-118.8c-38.9-29.1-85-45.2-133.9-46.8v-8.1c0-4.4-3.6-8-8-8s-8,3.6-8,8v8.1
	c-48.9,1.6-95,17.7-133.9,46.8c-39.7,29.8-69.1,72-82.7,118.8c-1.2,4.2,1.2,8.7,5.5,9.9c0.9,0.3,1.8,0.3,2.7,0.3c0.1,0,0.3,0,0.4,0
	c4.4,0,8-3.6,8-8c0-5.9,10.2-12.6,23.9-12.6S6.9,367,6.9,372.9c0,4.4,3.6,8,8,8c0,0,0,0,0.1,0s0,0,0.1,0c0,0,0,0,0.1,0
	c3.8,0,7.1-2.6,7.9-6.4c0.3-1.4,0.6-2.9,0.9-4.3c2.9-4.7,12.8-9.9,27.1-9.9c17.1,0,27.9,7.4,27.9,12.6c0,4.4,3.6,8,8,8
	c0,0,0.1,0,0.1,0c1.4,0,2.8-0.3,4-1c0,0,0,0,0,0c0.2-0.1,0.4-0.3,0.6-0.4c0,0,0,0,0,0c0.2-0.1,0.4-0.3,0.6-0.4c0,0,0,0,0,0
	c0.2-0.2,0.4-0.3,0.5-0.5c0,0,0,0,0,0c0.2-0.2,0.3-0.3,0.5-0.5c0,0,0,0,0,0c0.1-0.2,0.3-0.4,0.4-0.6c0,0,0-0.1,0.1-0.1
	c0.1-0.2,0.2-0.4,0.3-0.5c0-0.1,0.1-0.1,0.1-0.2c0.1-0.2,0.2-0.3,0.2-0.5c0-0.1,0.1-0.2,0.1-0.3c0-0.1,0.1-0.3,0.1-0.4
	c0.1-0.2,0.1-0.3,0.1-0.5c0-0.1,0-0.2,0.1-0.3c0-0.2,0.1-0.4,0.1-0.6c0-0.1,0-0.1,0-0.2c0,0,0,0,0,0c0,0,0,0,0,0
	c0.1-0.5,0.1-1,0.2-1.6c1.2-3.9,11.2-11.8,31.8-11.8c22.1,0,31.9,9.1,31.9,12.6v232h-48c-13.2,0-24,10.8-24,24v16c0,4.4,3.6,8,8,8
	h144c4.4,0,8-3.6,8-8v-16c0-13.2-10.8-24-24-24h-48V374.3c0.1-0.5,0.1-0.9,0.1-1.4c0-3.5,9.8-12.6,31.9-12.6
	c19.8,0,29.8,7.3,31.6,11.3c0.1,0.7,0.2,1.4,0.2,2.1c0.4,4.1,3.9,7.2,7.9,7.2c0,0,0,0,0.1,0c0,0,0,0,0.1,0s0,0,0.1,0c0,0,0,0,0.1,0
	c4.4,0,8-3.6,8-8c0-5.1,10.9-12.6,27.9-12.6c14.2,0,24.2,5.2,27.1,9.9c0.3,1.4,0.6,2.8,0.9,4.3c0.8,3.8,4.1,6.4,7.8,6.4
	c0,0,0.1,0,0.1,0c0,0,0,0,0.1,0c0,0,0,0,0.1,0c0,0,0,0,0.1,0c4.4,0,8-3.6,8-8c0-5.9,10.2-12.6,23.9-12.6S375,367,375,372.9
	c0,4.4,3.6,8,8,8c0.2,0,0.3,0,0.5,0c0.1,0,0.2,0,0.3,0c0.7,0,1.5-0.1,2.2-0.3C390.3,379.3,392.8,374.9,391.5,370.7z M231,628.9v8
	H103v-8c0-4.4,3.6-8,8-8h112C227.4,620.9,231,624.5,231,628.9z M-17.1,344.3c-5.1,0-9.9,0.6-14.3,1.8c14.7-31.8,37.5-60.1,66.1-81.5
	c14.2-10.7,29.5-19.5,45.6-26.3c-5.2,4.4-10.2,9.2-15.1,14.4C41,278.6,22.4,313.7,11.7,352.9C4.5,347.6-5.7,344.3-17.1,344.3z
	 M50.9,344.3c-7.7,0-14.9,1.2-21.1,3.4c10.3-32.9,26.5-62.1,47-84c14.7-15.7,30.9-27.2,48.1-34.4c-5.2,6.6-10.5,15-15.6,25.4
	c-12.6,25.7-22.1,59.1-27.7,97.6C73.8,347.4,63,344.3,50.9,344.3z M207.1,344.3c-12.6,0-23.7,2.6-32.1,7v-58.4c0-4.4-3.6-8-8-8
	s-8,3.6-8,8v58.4c-8.4-4.3-19.4-6.9-31.9-6.9c-11,0-20.9,2-28.8,5.4c5.4-34.5,14.3-65.2,25.5-88c10.7-21.7,23-35.4,35.3-39.5v30.6
	c0,4.4,3.6,8,8,8s8-3.6,8-8v-30.6c12.4,4.2,24.6,17.8,35.3,39.5c11.2,22.8,20,53.4,25.4,87.9C227.9,346.3,218,344.3,207.1,344.3z
	 M283.1,344.3c-12.1,0-22.9,3-30.7,8c-5.6-38.4-15-71.9-27.7-97.6c-5.1-10.4-10.4-18.7-15.6-25.4c17.2,7.1,33.4,18.7,48.1,34.4
	c20.5,21.9,36.7,51.1,47,84C297.9,345.6,290.8,344.3,283.1,344.3z M322.3,352.9c-10.7-39.2-29.3-74.3-53.5-100.1
	c-4.9-5.2-9.9-10-15.1-14.4c16.1,6.8,31.3,15.6,45.6,26.3c28.6,21.4,51.3,49.7,66.1,81.5c-4.4-1.2-9.2-1.8-14.3-1.8
	C339.7,344.3,329.5,347.6,322.3,352.9z"/>
</svg>
