<?xml version="1.0" encoding="utf-8"?>
<!-- Generator: Adobe Illustrator 19.0.0, SVG Export Plug-In . SVG Version: 6.00 Build 0)  -->
<svg version="1.1" id="Capa_1" xmlns="http://www.w3.org/2000/svg" xmlns:xlink="http://www.w3.org/1999/xlink" x="0px" y="0px"
	 viewBox="-60.5 169.4 503 503" enable-background="new -60.5 169.4 503 503" xml:space="preserve">
<path fill="#FFDA21" d="M102.4,606.1C53.5,577.8-55.2,594.5-55.2,443c0-140.4,107.3-85.9,181.6-183.6
	c70.6-92.8,153.4-81.2,176.8-46.5c23.4,34.7,63.9,119.8,88.6,145.2c24.7,25.3,44.9,87.5,7.3,113.4c-46,31.8-57.3,89-86.7,131.2
	S222.4,675.4,102.4,606.1z"/>
<g>
	<path d="M433.1,443.4c-3.8-8.8-12.5-14.6-22.1-14.6c-3.3,0-6.4,0.7-9.4,1.9l-151,64.7L-11.2,204.8c-8.9-9.8-24.1-10.6-33.9-1.8
		c-4.8,4.3-7.6,10.2-7.9,16.6c-0.3,6.4,1.8,12.6,6.1,17.3l21.9,24.4c2.3,60.2,16.5,120.8,40.3,170.9c25.7,54.3,61.8,95.1,105.2,119
		L9.5,598.8C-2.6,604-8.3,618.2-3.1,630.3c3.8,8.8,12.5,14.5,22.1,14.5c3.3,0,6.4-0.7,9.4-1.9l164.3-70.4c0.3,0,0.6,0.1,0.8,0.1
		c3.1,0.2,6.3,0.3,9.4,0.3c17.2,0,33.8-1.3,49.2-3.7l61,67.8c4.5,5,11,7.9,17.8,7.9c5.9,0,11.6-2.2,16-6.2
		c4.8-4.3,7.6-10.2,7.9-16.6c0.3-6.4-1.8-12.6-6.1-17.3l-44.7-50.1c33.1-13.7,59.8-35.2,79.6-64.1l36.7-15.7
		c5.9-2.5,10.4-7.2,12.8-13.1S435.6,449.3,433.1,443.4z M-37,220.5c0.1-2.1,1-4.1,2.6-5.5c3.3-3,8.3-2.7,11.3,0.6l258,286.7
		l-15.5,6.7L139,419.5v-17.6c0-4.4-3.6-8-8-8c-4.4,0-7.9,3.5-8,7.9l-158-175.5C-36.4,224.6-37.1,222.6-37,220.5z M139.8,543
		c-0.3-0.1-0.5-0.2-0.8-0.4v-99.2l64.9,72.1L139.8,543z M29.8,425.4c-20.2-42.8-33.3-93.6-37.6-145L123,425.6v108.5
		C84.9,511.5,53,474.3,29.8,425.4z M232.4,555.5l5.4-2.3l1.4,1.6C237,555.1,234.7,555.3,232.4,555.5z M339,621.3
		c-0.1,2.1-1,4.1-2.6,5.5c-1.5,1.3-3.4,2.1-5.3,2.1c-2.3,0-4.4-0.9-6-2.6l-71.7-79.7l15.9-6.8l67.7,75.8
		C338.4,617.1,339.1,619.2,339,621.3z M292.8,542.1l-8-9l66.9-28.7C335.4,520.7,315.7,533.4,292.8,542.1z M418.4,455.8
		c-0.8,2-2.3,3.5-4.3,4.4l-392,168c-1,0.4-2.1,0.7-3.1,0.7c-3.2,0-6.1-1.9-7.4-4.9c-1.7-4.1,0.1-8.8,4.2-10.5L123,567.6v2.3
		c0,4.4,3.6,8,8,8s8-3.6,8-8v-9.1l268.8-115.2c1-0.4,2.1-0.7,3.1-0.7c3.2,0,6.1,1.9,7.4,4.9C419.2,451.7,419.2,453.9,418.4,455.8z"
		/>
	<path d="M243,516.9c-2.1,0-4.2,0.8-5.7,2.3s-2.3,3.5-2.3,5.7c0,2.1,0.9,4.2,2.3,5.7c1.5,1.5,3.5,2.3,5.7,2.3c2.1,0,4.2-0.9,5.7-2.3
		c1.5-1.5,2.3-3.6,2.3-5.7c0-2.1-0.9-4.2-2.3-5.7C247.2,517.7,245.1,516.9,243,516.9z"/>
</g>
</svg>
