<?xml version="1.0" encoding="utf-8"?>
<!-- Generator: Adobe Illustrator 19.0.0, SVG Export Plug-In . SVG Version: 6.00 Build 0)  -->
<svg version="1.1" id="Layer_1" xmlns="http://www.w3.org/2000/svg" xmlns:xlink="http://www.w3.org/1999/xlink" x="0px" y="0px"
	 viewBox="-36.5 169.4 503 503" enable-background="new -36.5 169.4 503 503" xml:space="preserve">
<path fill="#FFDA21" d="M127.3,606.3C78.4,578-30.3,594.7-30.3,443.2c0-140.4,107.3-85.9,181.6-183.6
	c70.6-92.8,153.4-81.2,176.8-46.5s63.9,119.8,88.6,145.2c24.7,25.3,44.9,87.5,7.3,113.4c-46,31.8-57.3,89-86.7,131.2
	S247.3,675.6,127.3,606.3z"/>
<g>
	<g>
		<g>
			<path d="M331.5,205.7c9.3,0,16.9,7.6,16.9,16.9c0,4,3.2,7.3,7.3,7.3s7.3-3.2,7.3-7.3c0-9.3,7.6-16.9,16.9-16.9
				c4,0,7.3-3.2,7.3-7.3c0-4-3.2-7.3-7.3-7.3c-9.7,0-18.4,4.4-24.2,11.4c-5.8-6.9-14.5-11.4-24.2-11.4c-4,0-7.3,3.2-7.3,7.3
				C324.2,202.4,327.5,205.7,331.5,205.7z"/>
			<path d="M31.7,292.7c4,0,7.3-3.2,7.3-7.3c0-4-3.2-7.3-7.3-7.3c-6.7,0-12.1-5.4-12.1-12.1c0-6.7,5.4-12.1,12.1-12.1h38.7
				c4,0,7.3-3.2,7.3-7.3c0-4-3.2-7.3-7.3-7.3H31.7c-14.7,0-26.6,11.9-26.6,26.6C5.1,280.8,17,292.7,31.7,292.7z"/>
			<path d="M278.3,461.9c1,0.5,2.1,0.7,3.2,0.7c2.7,0,5.3-1.5,6.5-4.1c8-16.3,12.1-33.9,12.1-52.2c0-18.1-4-35.5-11.8-51.7
				c-1.7-3.6-6.1-5.1-9.7-3.4c-3.6,1.7-5.1,6.1-3.4,9.7c6.9,14.2,10.4,29.4,10.4,45.3c0,16.1-3.6,31.5-10.6,45.8
				C273.2,455.8,274.7,460.1,278.3,461.9z"/>
			<path d="M309.7,575.6c0-4-3.2-7.3-7.3-7.3H109c-4,0-7.3,3.2-7.3,7.3c0,4,3.2,7.3,7.3,7.3h193.4
				C306.5,582.9,309.7,579.7,309.7,575.6z"/>
			<path d="M377.4,314.5c0,4,3.2,7.3,7.3,7.3h53.2c6.7,0,12.1,5.4,12.1,12.1c0,6.7-5.4,12.1-12.1,12.1H331.5
				c-6.7,0-12.1-5.4-12.1-12.1c0-4-3.2-7.3-7.3-7.3h-38.7c-6.7,0-12.1-5.4-12.1-12.1c0-6.7,5.4-12.1,12.1-12.1h67.7
				c6.7,0,12.1,5.4,12.1,12.1c0,4,3.2,7.3,7.3,7.3s7.3-3.2,7.3-7.3c0-14.7-11.9-26.6-26.6-26.6h-67.7c-14.7,0-26.6,11.9-26.6,26.6
				s11.9,26.6,26.6,26.6h32.4c3.2,11.2,13.4,19.3,25.6,19.3h106.4c14.7,0,26.6-11.9,26.6-26.6c0-14.7-11.9-26.6-26.6-26.6h-53.2
				C380.7,307.2,377.4,310.5,377.4,314.5z"/>
			<path d="M399.2,413.6h-27.4c-4.8,0-9.5,0.7-13.9,2c0.2-3.1,0.2-6.2,0.2-9.2c0-8.4-0.6-16.9-1.8-25.2c-0.6-4-4.3-6.7-8.2-6.2
				c-4,0.6-6.7,4.2-6.2,8.2c1.1,7.6,1.6,15.4,1.6,23.2c0,5.5-0.3,11.1-0.8,16.6c-8.3,6-14.7,14.5-18.1,24.7
				c-4.8,14.4-18.2,24.1-33.4,24.1h-64.6c-21.4,0-40.4,13.7-47.1,34l-8,24.1h-95c-36.2-30.9-57-75.7-57-123.3
				c0-89.3,72.7-162,162-162c35.4,0,69,11.2,97.2,32.4c3.2,2.4,7.8,1.8,10.2-1.4c2.4-3.2,1.8-7.8-1.4-10.2
				c-30.7-23.1-67.4-35.3-105.9-35.3C84.2,229.9,5.1,309,5.1,406.4c0,46.5,18.1,90.5,50.2,123.3h-43c-4,0-7.3,3.2-7.3,7.3
				c0,4,3.2,7.3,7.3,7.3h366.6c4,0,7.3-3.2,7.3-7.3c0-4-3.2-7.3-7.3-7.3H186.8l6.5-19.5c4.8-14.4,18.2-24.1,33.4-24.1h64.6
				c7.3,0,14.4-1.6,20.7-4.5c-4.9,8.3-10.6,16.2-17,23.5c-2.6,3-2.3,7.6,0.7,10.2c3,2.6,7.6,2.3,10.2-0.7
				C324,494,337,469,343.5,442.3c6.5-8.8,16.9-14.2,28.2-14.2h27.4c28,0,50.8,22.8,50.8,50.8v50.8h-44c-4,0-7.3,3.2-7.3,7.3
				c0,4,3.2,7.3,7.3,7.3h51.3c4,0,7.3-3.2,7.3-7.3v-58C464.5,442.9,435.2,413.6,399.2,413.6z"/>
			<path d="M171.9,602.2h-19.3c-4,0-7.3,3.2-7.3,7.3c0,4,3.2,7.3,7.3,7.3h19.3c4,0,7.3-3.2,7.3-7.3S175.9,602.2,171.9,602.2z"/>
			<path d="M360.5,568.4h-19.3c-4,0-7.3,3.2-7.3,7.3c0,4,3.2,7.3,7.3,7.3h19.3c4,0,7.3-3.2,7.3-7.3
				C367.8,571.6,364.5,568.4,360.5,568.4z"/>
			<path d="M181.6,302.4c15.6,0,30.6,3.4,44.5,10c3.6,1.7,7.9,0.2,9.7-3.4c1.7-3.6,0.2-7.9-3.4-9.7c-15.9-7.6-33-11.4-50.8-11.4
				c-65.3,0-118.5,53.2-118.5,118.5c0,54.5,36.8,101.7,89.6,114.9c0.6,0.1,1.2,0.2,1.8,0.2c3.2,0,6.2-2.2,7-5.5
				c1-3.9-1.4-7.8-5.3-8.8c-46.3-11.6-78.6-53.1-78.6-100.9C77.6,349,124.2,302.4,181.6,302.4z"/>
			<path d="M263.8,636.1h-58c-4,0-7.3,3.2-7.3,7.3c0,4,3.2,7.3,7.3,7.3h58c4,0,7.3-3.2,7.3-7.3C271.1,639.3,267.8,636.1,263.8,636.1
				z"/>
			<path d="M317,602.2H200.9c-4,0-7.3,3.2-7.3,7.3c0,4,3.2,7.3,7.3,7.3H317c4,0,7.3-3.2,7.3-7.3C324.2,605.5,321,602.2,317,602.2z"
				/>
		</g>
	</g>
</g>
</svg>
