<?xml version="1.0" encoding="utf-8"?>
<!-- Generator: Adobe Illustrator 19.0.0, SVG Export Plug-In . SVG Version: 6.00 Build 0)  -->
<svg version="1.1" id="Layer_1" xmlns="http://www.w3.org/2000/svg" xmlns:xlink="http://www.w3.org/1999/xlink" x="0px" y="0px"
	 viewBox="-36.4 169.3 503 503" enable-background="new -36.4 169.3 503 503" xml:space="preserve">
<path fill="#FFDA21" d="M123.8,606.6C74.9,578.4-33.8,595-33.8,443.6c0-140.4,107.3-85.9,181.6-183.6
	c70.6-92.8,153.4-81.2,176.8-46.5s63.9,119.8,88.6,145.2c24.7,25.3,44.9,87.5,7.3,113.4c-46,31.8-57.3,89-86.7,131.2
	S243.8,676,123.8,606.6z"/>
<g>
	<g>
		<path d="M313.8,473.3c1.5,1.3,3.3,2,5.1,2c2.1,0,4.2-0.9,5.7-2.6C423,362.8,453.6,243.9,454.8,238.9c3.3-12.6,7.6-35-0.7-43.3
			c-8.3-8.3-30.7-3.8-43.2-0.5c-1.4,0.3-136.9,35.1-250.8,145.9l-34.1-34l5.4-5.4c9-9,9-23.5,0-32.5L99,236.7
			c-7.2-7.2-16.8-11.2-27.1-11.2c-10.2,0-19.9,4-27.1,11.2c-14.9,14.9-14.9,39.2,0,54.2l32.5,32.5c4.3,4.3,10.1,6.7,16.2,6.7h0
			c6.1,0,11.9-2.4,16.3-6.7l5.4-5.4l70.4,70.4c0,0,0,0,0,0c0,0,0,0,0,0l70.3,70.3c-35.6,33.1-84.6,56.2-102.8,38
			c-14.1-14.1-3.3-52,25.3-88.1c2.6-3.3,2.1-8.1-1.3-10.8c-3.3-2.6-8.1-2.1-10.8,1.3c-35,44.3-44.7,87.9-24.1,108.4
			c7.1,7.1,17.1,10.5,28.9,10.5c26.7,0,62.7-17.6,95.6-48.5l20.2,20.2C176.6,597.4,59.6,631.1,57.8,631.6
			c-0.2,0.1-18.5,6.6-31.1,2.3l62.1-62.1c3-3,3-7.8,0-10.8c-3-3-7.8-3-10.8,0l-62,62c-3.4-10.5,0.2-25.2,2.5-31.6
			c0.3-1.1,30.5-107.2,126.5-212.7c2.8-3.1,2.6-8-0.5-10.8c-3.1-2.8-8-2.6-10.8,0.5C35.3,476.6,5,582.8,4,586.6
			c-0.6,1.4-13.3,35.7,5.1,54.1c7.7,7.7,18.2,9.9,27.8,9.9c13.4,0,25.1-4.3,25.6-4.5c5-1.4,122-34.9,235.3-145.6l34,34l-5.4,5.4
			c-9,9-9,23.5,0,32.5L359,605c7.2,7.2,16.8,11.2,27.1,11.2s19.8-4,27.1-11.2c7.2-7.2,11.2-16.9,11.2-27.1c0-10.2-4-19.9-11.2-27.1
			l-32.5-32.5c-8.7-8.7-23.8-8.7-32.5,0l-5.4,5.4L202,383c19.5-18.3,40.6-32.1,60.2-39.3c19.3-7,34.8-6.6,42.6,1.2
			c14,13.9,3.4,51.4-24.5,87.1c-2.6,3.3-2,8.1,1.3,10.8c1.4,1.1,3.1,1.6,4.7,1.6c2.3,0,4.5-1,6-2.9c34.3-43.9,43.7-87,23.3-107.4
			c-12.3-12.4-33.2-14.1-58.6-4.8c-21.6,7.9-44.8,23-65.8,42.8L171,352c63-61.2,132.5-98.5,181.2-119.4c5.9,1.8,22.8,8.1,39.9,25.2
			c17.8,17.8,23.7,35.6,25.1,40.6c-19.2,44.4-51.9,106-103.9,164.1C310.4,465.6,310.7,470.4,313.8,473.3z M120.7,290.8L99,312.5
			c-1.4,1.4-3.4,2.2-5.4,2.2c-2,0-4-0.8-5.4-2.2L55.7,280c-9-9-9-23.5,0-32.5c4.3-4.3,10.1-6.7,16.3-6.7c6.1,0,11.9,2.4,16.2,6.7
			l32.5,32.5C123.7,283,123.7,287.9,120.7,290.8z M337.3,550.8l21.7-21.7c1.4-1.4,3.4-2.2,5.4-2.2c2,0,4,0.8,5.4,2.2l32.5,32.5
			c4.3,4.3,6.7,10.1,6.7,16.3c0,6.1-2.4,11.9-6.7,16.2c-8.7,8.7-23.8,8.7-32.5,0l-32.5-32.5C334.3,558.7,334.4,553.8,337.3,550.8z
			 M402.9,246.9c-10.9-10.9-21.9-18-30.7-22.6c25.8-10,42.1-14.2,42.6-14.3c11.4-3.1,24.4-4.6,28.4-3.4c1.2,3.9-0.2,17-3.2,28.5
			c-0.1,0.4-4.4,16.9-14.5,42.9C421.1,269.1,414,258,402.9,246.9z"/>
	</g>
</g>
</svg>
